<?xml version="1.0" encoding="UTF-8" standalone="no"?>
<!DOCTYPE svg PUBLIC "-//W3C//DTD SVG 1.1//EN"
 "http://www.w3.org/Graphics/SVG/1.1/DTD/svg11.dtd">
<!-- Generated by graphviz version 15.0.0 (20260523.1842)
 -->
<!-- Title: G Pages: 1 -->
<svg width="770pt" height="1564pt"
 viewBox="0.00 0.00 770.00 1564.00" xmlns="http://www.w3.org/2000/svg" xmlns:xlink="http://www.w3.org/1999/xlink">
<g id="graph0" class="graph" transform="scale(1 1) rotate(0) translate(14.4 1549.4)">
<title>G</title>
<polygon fill="white" stroke="none" points="-14.4,14.4 -14.4,-1549.4 756.07,-1549.4 756.07,14.4 -14.4,14.4"/>
<text xml:space="preserve" text-anchor="middle" x="370.84" y="-1512" font-family="Segoe UI" font-size="20.00">desktop/models module detail</text>
<g id="clust1" class="cluster">
<title>cluster_focus</title>
<path fill="white" stroke="#93c5fd" stroke-width="1.2" d="M292.71,-724C292.71,-724 508.96,-724 508.96,-724 514.96,-724 520.96,-730 520.96,-736 520.96,-736 520.96,-799 520.96,-799 520.96,-805 514.96,-811 508.96,-811 508.96,-811 292.71,-811 292.71,-811 286.71,-811 280.71,-805 280.71,-799 280.71,-799 280.71,-736 280.71,-736 280.71,-730 286.71,-724 292.71,-724"/>
<text xml:space="preserve" text-anchor="middle" x="400.84" y="-788" font-family="Segoe UI" font-size="20.00">desktop/models modules</text>
</g>
<!-- mediapipeline_desktop_app_models -->
<g id="node1" class="node">
<title>mediapipeline_desktop_app_models</title>
<path fill="#eff6ff" stroke="#334155" stroke-width="1.1" d="M421.44,-768C421.44,-768 379.23,-768 379.23,-768 373.23,-768 367.23,-762 367.23,-756 367.23,-756 367.23,-744 367.23,-744 367.23,-738 373.23,-732 379.23,-732 379.23,-732 421.44,-732 421.44,-732 427.44,-732 433.44,-738 433.44,-744 433.44,-744 433.44,-756 433.44,-756 433.44,-762 427.44,-768 421.44,-768"/>
<text xml:space="preserve" text-anchor="middle" x="400.34" y="-747.23" font-family="Segoe UI" font-size="12.00" fill="#111827">models.py</text>
</g>
<!-- external_desktop_models_core -->
<g id="node23" class="node">
<title>external_desktop_models_core</title>
<path fill="#f0fdf4" stroke="#64748b" stroke-width="1.1" stroke-dasharray="5,2" d="M707.92,-798C707.92,-798 607.21,-798 607.21,-798 601.21,-798 595.21,-792 595.21,-786 595.21,-786 595.21,-774 595.21,-774 595.21,-768 601.21,-762 607.21,-762 607.21,-762 707.92,-762 707.92,-762 713.92,-762 719.92,-768 719.92,-774 719.92,-774 719.92,-786 719.92,-786 719.92,-792 713.92,-798 707.92,-798"/>
<text xml:space="preserve" text-anchor="middle" x="657.57" y="-777.23" font-family="Segoe UI" font-size="12.00" fill="#111827">desktop/models_core</text>
</g>
<!-- mediapipeline_desktop_app_models&#45;&gt;external_desktop_models_core -->
<g id="edge1" class="edge">
<title>mediapipeline_desktop_app_models&#45;&gt;external_desktop_models_core</title>
<path fill="none" stroke="#9333ea" stroke-width="1.05" d="M433.92,-753.83C472.32,-758.34 537.19,-765.97 587.04,-771.83"/>
<polygon fill="#9333ea" stroke="#9333ea" stroke-width="1.05" points="586.6,-774.07 593.32,-772.57 587.13,-769.55 586.6,-774.07"/>
<text xml:space="preserve" text-anchor="middle" x="543.21" y="-771" font-family="Segoe UI" font-size="9.00" fill="#7e22ce">1</text>
</g>
<!-- external_desktop_models_media_paths -->
<g id="node24" class="node">
<title>external_desktop_models_media_paths</title>
<path fill="#f0fdf4" stroke="#64748b" stroke-width="1.1" stroke-dasharray="5,2" d="M729.67,-737C729.67,-737 585.46,-737 585.46,-737 579.46,-737 573.46,-731 573.46,-725 573.46,-725 573.46,-713 573.46,-713 573.46,-707 579.46,-701 585.46,-701 585.46,-701 729.67,-701 729.67,-701 735.67,-701 741.67,-707 741.67,-713 741.67,-713 741.67,-725 741.67,-725 741.67,-731 735.67,-737 729.67,-737"/>
<text xml:space="preserve" text-anchor="middle" x="657.57" y="-716.23" font-family="Segoe UI" font-size="12.00" fill="#111827">desktop/models_media_paths</text>
</g>
<!-- mediapipeline_desktop_app_models&#45;&gt;external_desktop_models_media_paths -->
<g id="edge2" class="edge">
<title>mediapipeline_desktop_app_models&#45;&gt;external_desktop_models_media_paths</title>
<path fill="none" stroke="#9333ea" stroke-width="1.05" d="M433.92,-746.04C466.89,-742.04 519.37,-735.66 565.11,-730.11"/>
<polygon fill="#9333ea" stroke="#9333ea" stroke-width="1.05" points="565.21,-732.39 571.39,-729.35 564.67,-727.87 565.21,-732.39"/>
<text xml:space="preserve" text-anchor="middle" x="543.21" y="-736.84" font-family="Segoe UI" font-size="9.00" fill="#7e22ce">1</text>
</g>
<!-- external_app_application -->
<g id="node2" class="node">
<title>external_app_application</title>
<path fill="#f8fafc" stroke="#64748b" stroke-width="1.1" stroke-dasharray="5,2" d="M146.84,-1500C146.84,-1500 76.88,-1500 76.88,-1500 70.88,-1500 64.88,-1494 64.88,-1488 64.88,-1488 64.88,-1476 64.88,-1476 64.88,-1470 70.88,-1464 76.88,-1464 76.88,-1464 146.84,-1464 146.84,-1464 152.84,-1464 158.84,-1470 158.84,-1476 158.84,-1476 158.84,-1488 158.84,-1488 158.84,-1494 152.84,-1500 146.84,-1500"/>
<text xml:space="preserve" text-anchor="middle" x="111.86" y="-1479.22" font-family="Segoe UI" font-size="12.00" fill="#111827">app/application</text>
</g>
<!-- external_app_application&#45;&gt;mediapipeline_desktop_app_models -->
<g id="edge3" class="edge">
<title>external_app_application&#45;&gt;mediapipeline_desktop_app_models</title>
<path fill="none" stroke="#64748b" stroke-width="1.05" stroke-dasharray="5,2" d="M159.38,-1478.81C181.13,-1475.15 206.06,-1467.56 223.71,-1452 256.15,-1423.4 247.67,-1403.23 260.71,-1362 330.99,-1139.85 380.6,-861.72 395.02,-776.21"/>
<polygon fill="#64748b" stroke="#64748b" stroke-width="1.05" points="397.25,-776.67 396.08,-769.89 392.76,-775.92 397.25,-776.67"/>
<text xml:space="preserve" text-anchor="middle" x="256.21" y="-1405.7" font-family="Segoe UI" font-size="9.00" fill="#475569">1</text>
</g>
<!-- external_app_audit -->
<g id="node3" class="node">
<title>external_app_audit</title>
<path fill="#f8fafc" stroke="#64748b" stroke-width="1.1" stroke-dasharray="5,2" d="M131.46,-1439C131.46,-1439 92.25,-1439 92.25,-1439 86.25,-1439 80.25,-1433 80.25,-1427 80.25,-1427 80.25,-1415 80.25,-1415 80.25,-1409 86.25,-1403 92.25,-1403 92.25,-1403 131.46,-1403 131.46,-1403 137.46,-1403 143.46,-1409 143.46,-1415 143.46,-1415 143.46,-1427 143.46,-1427 143.46,-1433 137.46,-1439 131.46,-1439"/>
<text xml:space="preserve" text-anchor="middle" x="111.86" y="-1418.22" font-family="Segoe UI" font-size="12.00" fill="#111827">app/audit</text>
</g>
<!-- external_app_audit&#45;&gt;mediapipeline_desktop_app_models -->
<g id="edge4" class="edge">
<title>external_app_audit&#45;&gt;mediapipeline_desktop_app_models</title>
<path fill="none" stroke="#64748b" stroke-width="1.05" stroke-dasharray="5,2" d="M143.85,-1419.6C168.08,-1416.99 201.31,-1409.9 223.71,-1391 253.65,-1365.74 247.73,-1347.96 260.71,-1311 331.25,-1110.12 380.1,-856.78 394.75,-775.99"/>
<polygon fill="#64748b" stroke="#64748b" stroke-width="1.05" points="396.94,-776.65 395.85,-769.85 392.46,-775.85 396.94,-776.65"/>
<text xml:space="preserve" text-anchor="middle" x="256.21" y="-1347.29" font-family="Segoe UI" font-size="9.00" fill="#475569">8</text>
</g>
<!-- external_app_completed -->
<g id="node4" class="node">
<title>external_app_completed</title>
<path fill="#f8fafc" stroke="#64748b" stroke-width="1.1" stroke-dasharray="5,2" d="M145.71,-1378C145.71,-1378 78,-1378 78,-1378 72,-1378 66,-1372 66,-1366 66,-1366 66,-1354 66,-1354 66,-1348 72,-1342 78,-1342 78,-1342 145.71,-1342 145.71,-1342 151.71,-1342 157.71,-1348 157.71,-1354 157.71,-1354 157.71,-1366 157.71,-1366 157.71,-1372 151.71,-1378 145.71,-1378"/>
<text xml:space="preserve" text-anchor="middle" x="111.86" y="-1357.22" font-family="Segoe UI" font-size="12.00" fill="#111827">app/completed</text>
</g>
<!-- external_app_completed&#45;&gt;mediapipeline_desktop_app_models -->
<g id="edge5" class="edge">
<title>external_app_completed&#45;&gt;mediapipeline_desktop_app_models</title>
<path fill="none" stroke="#64748b" stroke-width="1.05" stroke-dasharray="5,2" d="M158.17,-1356.87C180.15,-1353.25 205.63,-1345.68 223.71,-1330 311.26,-1254.08 378.18,-879.36 395.15,-776.28"/>
<polygon fill="#64748b" stroke="#64748b" stroke-width="1.05" points="397.36,-776.87 396.16,-770.09 392.86,-776.14 397.36,-776.87"/>
<text xml:space="preserve" text-anchor="middle" x="256.21" y="-1296.52" font-family="Segoe UI" font-size="9.00" fill="#475569">7</text>
</g>
<!-- external_app_config -->
<g id="node5" class="node">
<title>external_app_config</title>
<path fill="#f8fafc" stroke="#64748b" stroke-width="1.1" stroke-dasharray="5,2" d="M134.46,-1317C134.46,-1317 89.25,-1317 89.25,-1317 83.25,-1317 77.25,-1311 77.25,-1305 77.25,-1305 77.25,-1293 77.25,-1293 77.25,-1287 83.25,-1281 89.25,-1281 89.25,-1281 134.46,-1281 134.46,-1281 140.46,-1281 146.46,-1287 146.46,-1293 146.46,-1293 146.46,-1305 146.46,-1305 146.46,-1311 140.46,-1317 134.46,-1317"/>
<text xml:space="preserve" text-anchor="middle" x="111.86" y="-1296.22" font-family="Segoe UI" font-size="12.00" fill="#111827">app/config</text>
</g>
<!-- external_app_config&#45;&gt;mediapipeline_desktop_app_models -->
<g id="edge6" class="edge">
<title>external_app_config&#45;&gt;mediapipeline_desktop_app_models</title>
<path fill="none" stroke="#64748b" stroke-width="1.05" stroke-dasharray="5,2" d="M146.8,-1296.83C170.53,-1293.76 201.78,-1286.43 223.71,-1269 250.95,-1247.35 247.3,-1232.11 260.71,-1200 325.91,-1043.83 376.32,-845.96 393.21,-775.96"/>
<polygon fill="#64748b" stroke="#64748b" stroke-width="1.05" points="395.34,-776.85 394.65,-770 390.92,-775.78 395.34,-776.85"/>
<text xml:space="preserve" text-anchor="middle" x="256.21" y="-1229.17" font-family="Segoe UI" font-size="9.00" fill="#475569">10</text>
</g>
<!-- external_app_diagnostics -->
<g id="node6" class="node">
<title>external_app_diagnostics</title>
<path fill="#f8fafc" stroke="#64748b" stroke-width="1.1" stroke-dasharray="5,2" d="M147.59,-1256C147.59,-1256 76.13,-1256 76.13,-1256 70.13,-1256 64.13,-1250 64.13,-1244 64.13,-1244 64.13,-1232 64.13,-1232 64.13,-1226 70.13,-1220 76.13,-1220 76.13,-1220 147.59,-1220 147.59,-1220 153.59,-1220 159.59,-1226 159.59,-1232 159.59,-1232 159.59,-1244 159.59,-1244 159.59,-1250 153.59,-1256 147.59,-1256"/>
<text xml:space="preserve" text-anchor="middle" x="111.86" y="-1235.22" font-family="Segoe UI" font-size="12.00" fill="#111827">app/diagnostics</text>
</g>
<!-- external_app_diagnostics&#45;&gt;mediapipeline_desktop_app_models -->
<g id="edge7" class="edge">
<title>external_app_diagnostics&#45;&gt;mediapipeline_desktop_app_models</title>
<path fill="none" stroke="#64748b" stroke-width="1.05" stroke-dasharray="5,2" d="M159.99,-1234.04C181.37,-1230.18 205.81,-1222.65 223.71,-1208 362.98,-1094.05 391.99,-856.19 397.88,-776.59"/>
<polygon fill="#64748b" stroke="#64748b" stroke-width="1.05" points="400.15,-776.76 398.33,-770.12 395.61,-776.45 400.15,-776.76"/>
<text xml:space="preserve" text-anchor="middle" x="256.21" y="-1185.49" font-family="Segoe UI" font-size="9.00" fill="#475569">3</text>
</g>
<!-- external_app_failures -->
<g id="node7" class="node">
<title>external_app_failures</title>
<path fill="#f8fafc" stroke="#64748b" stroke-width="1.1" stroke-dasharray="5,2" d="M137.46,-1195C137.46,-1195 86.25,-1195 86.25,-1195 80.25,-1195 74.25,-1189 74.25,-1183 74.25,-1183 74.25,-1171 74.25,-1171 74.25,-1165 80.25,-1159 86.25,-1159 86.25,-1159 137.46,-1159 137.46,-1159 143.46,-1159 149.46,-1165 149.46,-1171 149.46,-1171 149.46,-1183 149.46,-1183 149.46,-1189 143.46,-1195 137.46,-1195"/>
<text xml:space="preserve" text-anchor="middle" x="111.86" y="-1174.22" font-family="Segoe UI" font-size="12.00" fill="#111827">app/failures</text>
</g>
<!-- external_app_failures&#45;&gt;mediapipeline_desktop_app_models -->
<g id="edge8" class="edge">
<title>external_app_failures&#45;&gt;mediapipeline_desktop_app_models</title>
<path fill="none" stroke="#64748b" stroke-width="1.05" stroke-dasharray="5,2" d="M149.91,-1174.46C173.23,-1171.18 202.76,-1163.75 223.71,-1147 346.43,-1048.89 385.74,-847.31 396.11,-775.83"/>
<polygon fill="#64748b" stroke="#64748b" stroke-width="1.05" points="398.32,-776.49 396.96,-769.73 393.81,-775.86 398.32,-776.49"/>
<text xml:space="preserve" text-anchor="middle" x="256.21" y="-1119.51" font-family="Segoe UI" font-size="9.00" fill="#475569">4</text>
</g>
<!-- external_app_final_library -->
<g id="node8" class="node">
<title>external_app_final_library</title>
<path fill="#f8fafc" stroke="#64748b" stroke-width="1.1" stroke-dasharray="5,2" d="M149.09,-1134C149.09,-1134 74.63,-1134 74.63,-1134 68.63,-1134 62.63,-1128 62.63,-1122 62.63,-1122 62.63,-1110 62.63,-1110 62.63,-1104 68.63,-1098 74.63,-1098 74.63,-1098 149.09,-1098 149.09,-1098 155.09,-1098 161.09,-1104 161.09,-1110 161.09,-1110 161.09,-1122 161.09,-1122 161.09,-1128 155.09,-1134 149.09,-1134"/>
<text xml:space="preserve" text-anchor="middle" x="111.86" y="-1113.22" font-family="Segoe UI" font-size="12.00" fill="#111827">app/final_library</text>
</g>
<!-- external_app_final_library&#45;&gt;mediapipeline_desktop_app_models -->
<g id="edge9" class="edge">
<title>external_app_final_library&#45;&gt;mediapipeline_desktop_app_models</title>
<path fill="none" stroke="#64748b" stroke-width="1.05" stroke-dasharray="5,2" d="M161.54,-1111.58C182.49,-1107.61 206.15,-1100.11 223.71,-1086 328.28,-1002 377.66,-838.82 393.45,-775.75"/>
<polygon fill="#64748b" stroke="#64748b" stroke-width="1.05" points="395.58,-776.62 394.91,-769.76 391.16,-775.54 395.58,-776.62"/>
<text xml:space="preserve" text-anchor="middle" x="256.21" y="-1062.66" font-family="Segoe UI" font-size="9.00" fill="#475569">3</text>
</g>
<!-- external_app_maintenance -->
<g id="node9" class="node">
<title>external_app_maintenance</title>
<path fill="#f8fafc" stroke="#64748b" stroke-width="1.1" stroke-dasharray="5,2" d="M151.71,-1073C151.71,-1073 72,-1073 72,-1073 66,-1073 60,-1067 60,-1061 60,-1061 60,-1049 60,-1049 60,-1043 66,-1037 72,-1037 72,-1037 151.71,-1037 151.71,-1037 157.71,-1037 163.71,-1043 163.71,-1049 163.71,-1049 163.71,-1061 163.71,-1061 163.71,-1067 157.71,-1073 151.71,-1073"/>
<text xml:space="preserve" text-anchor="middle" x="111.86" y="-1052.22" font-family="Segoe UI" font-size="12.00" fill="#111827">app/maintenance</text>
</g>
<!-- external_app_maintenance&#45;&gt;mediapipeline_desktop_app_models -->
<g id="edge10" class="edge">
<title>external_app_maintenance&#45;&gt;mediapipeline_desktop_app_models</title>
<path fill="none" stroke="#64748b" stroke-width="1.05" stroke-dasharray="5,2" d="M164.04,-1049.23C184.12,-1045.01 206.43,-1037.69 223.71,-1025 314.02,-958.69 369.61,-830.71 390.23,-775.92"/>
<polygon fill="#64748b" stroke="#64748b" stroke-width="1.05" points="392.34,-776.76 392.46,-769.87 388.07,-775.18 392.34,-776.76"/>
<text xml:space="preserve" text-anchor="middle" x="256.21" y="-1000.64" font-family="Segoe UI" font-size="9.00" fill="#475569">4</text>
</g>
<!-- external_app_network -->
<g id="node10" class="node">
<title>external_app_network</title>
<path fill="#f8fafc" stroke="#64748b" stroke-width="1.1" stroke-dasharray="5,2" d="M139.71,-1012C139.71,-1012 84,-1012 84,-1012 78,-1012 72,-1006 72,-1000 72,-1000 72,-988 72,-988 72,-982 78,-976 84,-976 84,-976 139.71,-976 139.71,-976 145.71,-976 151.71,-982 151.71,-988 151.71,-988 151.71,-1000 151.71,-1000 151.71,-1006 145.71,-1012 139.71,-1012"/>
<text xml:space="preserve" text-anchor="middle" x="111.86" y="-991.23" font-family="Segoe UI" font-size="12.00" fill="#111827">app/network</text>
</g>
<!-- external_app_network&#45;&gt;mediapipeline_desktop_app_models -->
<g id="edge11" class="edge">
<title>external_app_network&#45;&gt;mediapipeline_desktop_app_models</title>
<path fill="none" stroke="#64748b" stroke-width="1.05" stroke-dasharray="5,2" d="M152.21,-989.39C174.56,-985.36 202.28,-977.86 223.71,-964 300.53,-914.34 360.19,-820.24 385.75,-775.22"/>
<polygon fill="#64748b" stroke="#64748b" stroke-width="1.05" points="387.59,-776.6 388.78,-769.82 383.62,-774.38 387.59,-776.6"/>
<text xml:space="preserve" text-anchor="middle" x="256.21" y="-945.97" font-family="Segoe UI" font-size="9.00" fill="#475569">1</text>
</g>
<!-- external_app_observability -->
<g id="node11" class="node">
<title>external_app_observability</title>
<path fill="#f8fafc" stroke="#64748b" stroke-width="1.1" stroke-dasharray="5,2" d="M151.71,-951C151.71,-951 72,-951 72,-951 66,-951 60,-945 60,-939 60,-939 60,-927 60,-927 60,-921 66,-915 72,-915 72,-915 151.71,-915 151.71,-915 157.71,-915 163.71,-921 163.71,-927 163.71,-927 163.71,-939 163.71,-939 163.71,-945 157.71,-951 151.71,-951"/>
<text xml:space="preserve" text-anchor="middle" x="111.86" y="-930.23" font-family="Segoe UI" font-size="12.00" fill="#111827">app/observability</text>
</g>
<!-- external_app_observability&#45;&gt;mediapipeline_desktop_app_models -->
<g id="edge12" class="edge">
<title>external_app_observability&#45;&gt;mediapipeline_desktop_app_models</title>
<path fill="none" stroke="#64748b" stroke-width="1.05" stroke-dasharray="5,2" d="M164.07,-924.23C183.49,-919.62 205.33,-912.81 223.71,-903 287.35,-869.02 347.58,-808.1 378.25,-774.29"/>
<polygon fill="#64748b" stroke="#64748b" stroke-width="1.05" points="379.91,-775.84 382.56,-769.48 376.52,-772.8 379.91,-775.84"/>
<text xml:space="preserve" text-anchor="middle" x="256.21" y="-887.52" font-family="Segoe UI" font-size="9.00" fill="#475569">4</text>
</g>
<!-- external_app_paths -->
<g id="node12" class="node">
<title>external_app_paths</title>
<path fill="#f8fafc" stroke="#64748b" stroke-width="1.1" stroke-dasharray="5,2" d="M132.59,-890C132.59,-890 91.13,-890 91.13,-890 85.13,-890 79.13,-884 79.13,-878 79.13,-878 79.13,-866 79.13,-866 79.13,-860 85.13,-854 91.13,-854 91.13,-854 132.59,-854 132.59,-854 138.59,-854 144.59,-860 144.59,-866 144.59,-866 144.59,-878 144.59,-878 144.59,-884 138.59,-890 132.59,-890"/>
<text xml:space="preserve" text-anchor="middle" x="111.86" y="-869.23" font-family="Segoe UI" font-size="12.00" fill="#111827">app/paths</text>
</g>
<!-- external_app_paths&#45;&gt;mediapipeline_desktop_app_models -->
<g id="edge13" class="edge">
<title>external_app_paths&#45;&gt;mediapipeline_desktop_app_models</title>
<path fill="none" stroke="#64748b" stroke-width="1.05" stroke-dasharray="5,2" d="M144.99,-865.26C167.44,-860.09 197.91,-852.11 223.71,-842 273.59,-822.46 327.72,-792.68 362.51,-772.33"/>
<polygon fill="#64748b" stroke="#64748b" stroke-width="1.05" points="363.39,-774.45 367.83,-769.19 361.08,-770.53 363.39,-774.45"/>
<text xml:space="preserve" text-anchor="middle" x="256.21" y="-833.58" font-family="Segoe UI" font-size="9.00" fill="#475569">2</text>
</g>
<!-- external_app_processes -->
<g id="node13" class="node">
<title>external_app_processes</title>
<path fill="#f8fafc" stroke="#64748b" stroke-width="1.1" stroke-dasharray="5,2" d="M143.84,-829C143.84,-829 79.88,-829 79.88,-829 73.88,-829 67.88,-823 67.88,-817 67.88,-817 67.88,-805 67.88,-805 67.88,-799 73.88,-793 79.88,-793 79.88,-793 143.84,-793 143.84,-793 149.84,-793 155.84,-799 155.84,-805 155.84,-805 155.84,-817 155.84,-817 155.84,-823 149.84,-829 143.84,-829"/>
<text xml:space="preserve" text-anchor="middle" x="111.86" y="-808.23" font-family="Segoe UI" font-size="12.00" fill="#111827">app/processes</text>
</g>
<!-- external_app_processes&#45;&gt;mediapipeline_desktop_app_models -->
<g id="edge14" class="edge">
<title>external_app_processes&#45;&gt;mediapipeline_desktop_app_models</title>
<path fill="none" stroke="#64748b" stroke-width="1.05" stroke-dasharray="5,2" d="M156.37,-801.74C211.45,-790.01 305.61,-769.96 359.09,-758.57"/>
<polygon fill="#64748b" stroke="#64748b" stroke-width="1.05" points="359.56,-760.8 365.44,-757.22 358.61,-756.34 359.56,-760.8"/>
<text xml:space="preserve" text-anchor="middle" x="256.21" y="-784.7" font-family="Segoe UI" font-size="9.00" fill="#475569">11</text>
</g>
<!-- external_app_publish -->
<g id="node14" class="node">
<title>external_app_publish</title>
<path fill="#f8fafc" stroke="#64748b" stroke-width="1.1" stroke-dasharray="5,2" d="M137.46,-768C137.46,-768 86.25,-768 86.25,-768 80.25,-768 74.25,-762 74.25,-756 74.25,-756 74.25,-744 74.25,-744 74.25,-738 80.25,-732 86.25,-732 86.25,-732 137.46,-732 137.46,-732 143.46,-732 149.46,-738 149.46,-744 149.46,-744 149.46,-756 149.46,-756 149.46,-762 143.46,-768 137.46,-768"/>
<text xml:space="preserve" text-anchor="middle" x="111.86" y="-747.23" font-family="Segoe UI" font-size="12.00" fill="#111827">app/publish</text>
</g>
<!-- external_app_publish&#45;&gt;mediapipeline_desktop_app_models -->
<g id="edge15" class="edge">
<title>external_app_publish&#45;&gt;mediapipeline_desktop_app_models</title>
<path fill="none" stroke="#64748b" stroke-width="1.05" stroke-dasharray="5,2" d="M149.72,-750C203.59,-750 303.45,-750 359.14,-750"/>
<polygon fill="#64748b" stroke="#64748b" stroke-width="1.05" points="358.94,-752.28 365.44,-750 358.94,-747.73 358.94,-752.28"/>
<text xml:space="preserve" text-anchor="middle" x="256.21" y="-754.2" font-family="Segoe UI" font-size="9.00" fill="#475569">3</text>
</g>
<!-- external_app_queue -->
<g id="node15" class="node">
<title>external_app_queue</title>
<path fill="#f8fafc" stroke="#64748b" stroke-width="1.1" stroke-dasharray="5,2" d="M134.46,-707C134.46,-707 89.25,-707 89.25,-707 83.25,-707 77.25,-701 77.25,-695 77.25,-695 77.25,-683 77.25,-683 77.25,-677 83.25,-671 89.25,-671 89.25,-671 134.46,-671 134.46,-671 140.46,-671 146.46,-677 146.46,-683 146.46,-683 146.46,-695 146.46,-695 146.46,-701 140.46,-707 134.46,-707"/>
<text xml:space="preserve" text-anchor="middle" x="111.86" y="-686.23" font-family="Segoe UI" font-size="12.00" fill="#111827">app/queue</text>
</g>
<!-- external_app_queue&#45;&gt;mediapipeline_desktop_app_models -->
<g id="edge16" class="edge">
<title>external_app_queue&#45;&gt;mediapipeline_desktop_app_models</title>
<path fill="none" stroke="#64748b" stroke-width="1.05" stroke-dasharray="5,2" d="M146.84,-696.24C199.93,-707.54 302.3,-729.34 359.02,-741.42"/>
<polygon fill="#64748b" stroke="#64748b" stroke-width="1.05" points="358.33,-743.59 365.16,-742.72 359.28,-739.14 358.33,-743.59"/>
<text xml:space="preserve" text-anchor="middle" x="256.21" y="-723.7" font-family="Segoe UI" font-size="9.00" fill="#475569">7</text>
</g>
<!-- external_app_rename -->
<g id="node16" class="node">
<title>external_app_rename</title>
<path fill="#f8fafc" stroke="#64748b" stroke-width="1.1" stroke-dasharray="5,2" d="M138.21,-646C138.21,-646 85.5,-646 85.5,-646 79.5,-646 73.5,-640 73.5,-634 73.5,-634 73.5,-622 73.5,-622 73.5,-616 79.5,-610 85.5,-610 85.5,-610 138.21,-610 138.21,-610 144.21,-610 150.21,-616 150.21,-622 150.21,-622 150.21,-634 150.21,-634 150.21,-640 144.21,-646 138.21,-646"/>
<text xml:space="preserve" text-anchor="middle" x="111.86" y="-625.23" font-family="Segoe UI" font-size="12.00" fill="#111827">app/rename</text>
</g>
<!-- external_app_rename&#45;&gt;mediapipeline_desktop_app_models -->
<g id="edge17" class="edge">
<title>external_app_rename&#45;&gt;mediapipeline_desktop_app_models</title>
<path fill="none" stroke="#64748b" stroke-width="1.05" stroke-dasharray="5,2" d="M150.72,-636.08C172.45,-641.25 200.04,-648.73 223.71,-658 273.59,-677.54 327.72,-707.32 362.51,-727.67"/>
<polygon fill="#64748b" stroke="#64748b" stroke-width="1.05" points="361.08,-729.47 367.83,-730.81 363.39,-725.55 361.08,-729.47"/>
<text xml:space="preserve" text-anchor="middle" x="256.21" y="-677.09" font-family="Segoe UI" font-size="9.00" fill="#475569">1</text>
</g>
<!-- external_app_sample_validation -->
<g id="node17" class="node">
<title>external_app_sample_validation</title>
<path fill="#f8fafc" stroke="#64748b" stroke-width="1.1" stroke-dasharray="5,2" d="M165.21,-585C165.21,-585 58.5,-585 58.5,-585 52.5,-585 46.5,-579 46.5,-573 46.5,-573 46.5,-561 46.5,-561 46.5,-555 52.5,-549 58.5,-549 58.5,-549 165.21,-549 165.21,-549 171.21,-549 177.21,-555 177.21,-561 177.21,-561 177.21,-573 177.21,-573 177.21,-579 171.21,-585 165.21,-585"/>
<text xml:space="preserve" text-anchor="middle" x="111.86" y="-564.23" font-family="Segoe UI" font-size="12.00" fill="#111827">app/sample_validation</text>
</g>
<!-- external_app_sample_validation&#45;&gt;mediapipeline_desktop_app_models -->
<g id="edge18" class="edge">
<title>external_app_sample_validation&#45;&gt;mediapipeline_desktop_app_models</title>
<path fill="none" stroke="#64748b" stroke-width="1.05" stroke-dasharray="5,2" d="M177.76,-579.31C193.34,-583.67 209.55,-589.44 223.71,-597 287.35,-630.98 347.58,-691.9 378.25,-725.71"/>
<polygon fill="#64748b" stroke="#64748b" stroke-width="1.05" points="376.52,-727.2 382.56,-730.52 379.91,-724.16 376.52,-727.2"/>
<text xml:space="preserve" text-anchor="middle" x="256.21" y="-620.88" font-family="Segoe UI" font-size="9.00" fill="#475569">2</text>
</g>
<!-- external_app_status -->
<g id="node18" class="node">
<title>external_app_status</title>
<path fill="#f8fafc" stroke="#64748b" stroke-width="1.1" stroke-dasharray="5,2" d="M133.71,-524C133.71,-524 90,-524 90,-524 84,-524 78,-518 78,-512 78,-512 78,-500 78,-500 78,-494 84,-488 90,-488 90,-488 133.71,-488 133.71,-488 139.71,-488 145.71,-494 145.71,-500 145.71,-500 145.71,-512 145.71,-512 145.71,-518 139.71,-524 133.71,-524"/>
<text xml:space="preserve" text-anchor="middle" x="111.86" y="-503.23" font-family="Segoe UI" font-size="12.00" fill="#111827">app/status</text>
</g>
<!-- external_app_status&#45;&gt;mediapipeline_desktop_app_models -->
<g id="edge19" class="edge">
<title>external_app_status&#45;&gt;mediapipeline_desktop_app_models</title>
<path fill="none" stroke="#64748b" stroke-width="1.05" stroke-dasharray="5,2" d="M146.07,-509.56C169.31,-513.29 200.27,-520.84 223.71,-536 300.53,-585.66 360.19,-679.76 385.75,-724.78"/>
<polygon fill="#64748b" stroke="#64748b" stroke-width="1.05" points="383.62,-725.62 388.78,-730.18 387.59,-723.4 383.62,-725.62"/>
<text xml:space="preserve" text-anchor="middle" x="256.21" y="-567.33" font-family="Segoe UI" font-size="9.00" fill="#475569">4</text>
</g>
<!-- external_app_telemetry -->
<g id="node19" class="node">
<title>external_app_telemetry</title>
<path fill="#f8fafc" stroke="#64748b" stroke-width="1.1" stroke-dasharray="5,2" d="M143.09,-463C143.09,-463 80.63,-463 80.63,-463 74.63,-463 68.63,-457 68.63,-451 68.63,-451 68.63,-439 68.63,-439 68.63,-433 74.63,-427 80.63,-427 80.63,-427 143.09,-427 143.09,-427 149.09,-427 155.09,-433 155.09,-439 155.09,-439 155.09,-451 155.09,-451 155.09,-457 149.09,-463 143.09,-463"/>
<text xml:space="preserve" text-anchor="middle" x="111.86" y="-442.23" font-family="Segoe UI" font-size="12.00" fill="#111827">app/telemetry</text>
</g>
<!-- external_app_telemetry&#45;&gt;mediapipeline_desktop_app_models -->
<g id="edge20" class="edge">
<title>external_app_telemetry&#45;&gt;mediapipeline_desktop_app_models</title>
<path fill="none" stroke="#64748b" stroke-width="1.05" stroke-dasharray="5,2" d="M155.52,-449.13C177.58,-452.99 203.94,-460.49 223.71,-475 314.02,-541.31 369.61,-669.29 390.23,-724.08"/>
<polygon fill="#64748b" stroke="#64748b" stroke-width="1.05" points="388.07,-724.82 392.46,-730.13 392.34,-723.24 388.07,-724.82"/>
<text xml:space="preserve" text-anchor="middle" x="256.21" y="-507.76" font-family="Segoe UI" font-size="9.00" fill="#475569">3</text>
</g>
<!-- external_desktop_api -->
<g id="node20" class="node">
<title>external_desktop_api</title>
<path fill="#f0fdf4" stroke="#64748b" stroke-width="1.1" stroke-dasharray="5,2" d="M137.09,-402C137.09,-402 86.63,-402 86.63,-402 80.63,-402 74.63,-396 74.63,-390 74.63,-390 74.63,-378 74.63,-378 74.63,-372 80.63,-366 86.63,-366 86.63,-366 137.09,-366 137.09,-366 143.09,-366 149.09,-372 149.09,-378 149.09,-378 149.09,-390 149.09,-390 149.09,-396 143.09,-402 137.09,-402"/>
<text xml:space="preserve" text-anchor="middle" x="111.86" y="-381.23" font-family="Segoe UI" font-size="12.00" fill="#111827">desktop/api</text>
</g>
<!-- external_desktop_api&#45;&gt;mediapipeline_desktop_app_models -->
<g id="edge21" class="edge">
<title>external_desktop_api&#45;&gt;mediapipeline_desktop_app_models</title>
<path fill="none" stroke="#64748b" stroke-width="1.05" stroke-dasharray="5,2" d="M149.42,-386.44C172.83,-389.67 202.65,-397.08 223.71,-414 328.28,-498 377.66,-661.18 393.45,-724.25"/>
<polygon fill="#64748b" stroke="#64748b" stroke-width="1.05" points="391.16,-724.46 394.91,-730.24 395.58,-723.38 391.16,-724.46"/>
<text xml:space="preserve" text-anchor="middle" x="256.21" y="-453.25" font-family="Segoe UI" font-size="9.00" fill="#475569">1</text>
</g>
<!-- external_desktop_application -->
<g id="node21" class="node">
<title>external_desktop_application</title>
<path fill="#f0fdf4" stroke="#64748b" stroke-width="1.1" stroke-dasharray="5,2" d="M157.71,-341C157.71,-341 66,-341 66,-341 60,-341 54,-335 54,-329 54,-329 54,-317 54,-317 54,-311 60,-305 66,-305 66,-305 157.71,-305 157.71,-305 163.71,-305 169.71,-311 169.71,-317 169.71,-317 169.71,-329 169.71,-329 169.71,-335 163.71,-341 157.71,-341"/>
<text xml:space="preserve" text-anchor="middle" x="111.86" y="-320.23" font-family="Segoe UI" font-size="12.00" fill="#111827">desktop/application</text>
</g>
<!-- external_desktop_application&#45;&gt;mediapipeline_desktop_app_models -->
<g id="edge22" class="edge">
<title>external_desktop_application&#45;&gt;mediapipeline_desktop_app_models</title>
<path fill="none" stroke="#64748b" stroke-width="1.05" stroke-dasharray="5,2" d="M169.98,-329.22C188.64,-333.53 208.46,-340.79 223.71,-353 346.35,-451.2 385.72,-652.72 396.1,-724.18"/>
<polygon fill="#64748b" stroke="#64748b" stroke-width="1.05" points="393.8,-724.15 396.96,-730.27 398.31,-723.52 393.8,-724.15"/>
<text xml:space="preserve" text-anchor="middle" x="256.21" y="-388.91" font-family="Segoe UI" font-size="9.00" fill="#475569">7</text>
</g>
<!-- external_desktop_local_api_main -->
<g id="node22" class="node">
<title>external_desktop_local_api_main</title>
<path fill="#f0fdf4" stroke="#64748b" stroke-width="1.1" stroke-dasharray="5,2" d="M167.46,-280C167.46,-280 56.25,-280 56.25,-280 50.25,-280 44.25,-274 44.25,-268 44.25,-268 44.25,-256 44.25,-256 44.25,-250 50.25,-244 56.25,-244 56.25,-244 167.46,-244 167.46,-244 173.46,-244 179.46,-250 179.46,-256 179.46,-256 179.46,-268 179.46,-268 179.46,-274 173.46,-280 167.46,-280"/>
<text xml:space="preserve" text-anchor="middle" x="111.86" y="-259.23" font-family="Segoe UI" font-size="12.00" fill="#111827">desktop/local_api_main</text>
</g>
<!-- external_desktop_local_api_main&#45;&gt;mediapipeline_desktop_app_models -->
<g id="edge23" class="edge">
<title>external_desktop_local_api_main&#45;&gt;mediapipeline_desktop_app_models</title>
<path fill="none" stroke="#64748b" stroke-width="1.05" stroke-dasharray="5,2" d="M179.93,-270.54C195.53,-275 211.22,-281.77 223.71,-292 362.9,-406.04 391.97,-643.85 397.87,-723.42"/>
<polygon fill="#64748b" stroke="#64748b" stroke-width="1.05" points="395.6,-723.56 398.32,-729.89 400.14,-723.24 395.6,-723.56"/>
<text xml:space="preserve" text-anchor="middle" x="256.21" y="-322.92" font-family="Segoe UI" font-size="9.00" fill="#475569">1</text>
</g>
<!-- external_desktop_network -->
<g id="node25" class="node">
<title>external_desktop_network</title>
<path fill="#f0fdf4" stroke="#64748b" stroke-width="1.1" stroke-dasharray="5,2" d="M150.59,-219C150.59,-219 73.13,-219 73.13,-219 67.13,-219 61.13,-213 61.13,-207 61.13,-207 61.13,-195 61.13,-195 61.13,-189 67.13,-183 73.13,-183 73.13,-183 150.59,-183 150.59,-183 156.59,-183 162.59,-189 162.59,-195 162.59,-195 162.59,-207 162.59,-207 162.59,-213 156.59,-219 150.59,-219"/>
<text xml:space="preserve" text-anchor="middle" x="111.86" y="-198.22" font-family="Segoe UI" font-size="12.00" fill="#111827">desktop/network</text>
</g>
<!-- external_desktop_network&#45;&gt;mediapipeline_desktop_app_models -->
<g id="edge24" class="edge">
<title>external_desktop_network&#45;&gt;mediapipeline_desktop_app_models</title>
<path fill="none" stroke="#64748b" stroke-width="1.05" stroke-dasharray="5,2" d="M162.87,-205.76C183.46,-209.82 206.47,-217.28 223.71,-231 251.01,-252.73 247.29,-268.04 260.71,-300.25 325.78,-456.38 376.26,-654.11 393.2,-724.06"/>
<polygon fill="#64748b" stroke="#64748b" stroke-width="1.05" points="390.9,-724.23 394.63,-730.02 395.32,-723.17 390.9,-724.23"/>
<text xml:space="preserve" text-anchor="middle" x="256.21" y="-304.45" font-family="Segoe UI" font-size="9.00" fill="#475569">2</text>
</g>
<!-- external_desktop_services -->
<g id="node26" class="node">
<title>external_desktop_services</title>
<path fill="#f0fdf4" stroke="#64748b" stroke-width="1.1" stroke-dasharray="5,2" d="M149.84,-158C149.84,-158 73.88,-158 73.88,-158 67.88,-158 61.88,-152 61.88,-146 61.88,-146 61.88,-134 61.88,-134 61.88,-128 67.88,-122 73.88,-122 73.88,-122 149.84,-122 149.84,-122 155.84,-122 161.84,-128 161.84,-134 161.84,-134 161.84,-146 161.84,-146 161.84,-152 155.84,-158 149.84,-158"/>
<text xml:space="preserve" text-anchor="middle" x="111.86" y="-137.22" font-family="Segoe UI" font-size="12.00" fill="#111827">desktop/services</text>
</g>
<!-- external_desktop_services&#45;&gt;mediapipeline_desktop_app_models -->
<g id="edge25" class="edge">
<title>external_desktop_services&#45;&gt;mediapipeline_desktop_app_models</title>
<path fill="none" stroke="#64748b" stroke-width="1.05" stroke-dasharray="5,2" d="M162.33,-143.85C183.31,-147.72 206.77,-155.3 223.71,-170 311.22,-245.97 378.17,-620.65 395.14,-723.72"/>
<polygon fill="#64748b" stroke="#64748b" stroke-width="1.05" points="392.86,-723.87 396.16,-729.91 397.35,-723.13 392.86,-723.87"/>
<text xml:space="preserve" text-anchor="middle" x="256.21" y="-221.86" font-family="Segoe UI" font-size="9.00" fill="#475569">1</text>
</g>
<!-- external_desktop_webview_settings_live_smoke -->
<g id="node27" class="node">
<title>external_desktop_webview_settings_live_smoke</title>
<path fill="#f0fdf4" stroke="#64748b" stroke-width="1.1" stroke-dasharray="5,2" d="M206.46,-97C206.46,-97 17.25,-97 17.25,-97 11.25,-97 5.25,-91 5.25,-85 5.25,-85 5.25,-73 5.25,-73 5.25,-67 11.25,-61 17.25,-61 17.25,-61 206.46,-61 206.46,-61 212.46,-61 218.46,-67 218.46,-73 218.46,-73 218.46,-85 218.46,-85 218.46,-91 212.46,-97 206.46,-97"/>
<text xml:space="preserve" text-anchor="middle" x="111.86" y="-76.22" font-family="Segoe UI" font-size="12.00" fill="#111827">desktop/webview_settings_live_smoke</text>
</g>
<!-- external_desktop_webview_settings_live_smoke&#45;&gt;mediapipeline_desktop_app_models -->
<g id="edge26" class="edge">
<title>external_desktop_webview_settings_live_smoke&#45;&gt;mediapipeline_desktop_app_models</title>
<path fill="none" stroke="#64748b" stroke-width="1.05" stroke-dasharray="5,2" d="M206.41,-97.54C212.6,-100.77 218.46,-104.56 223.71,-109 253.71,-134.35 247.72,-152.19 260.71,-189.25 331.11,-390.08 380.05,-643.28 394.73,-724.02"/>
<polygon fill="#64748b" stroke="#64748b" stroke-width="1.05" points="392.45,-724.17 395.84,-730.16 396.93,-723.36 392.45,-724.17"/>
<text xml:space="preserve" text-anchor="middle" x="256.21" y="-193.45" font-family="Segoe UI" font-size="9.00" fill="#475569">1</text>
</g>
<!-- external_desktop_webview_settings_patch_smoke -->
<g id="node28" class="node">
<title>external_desktop_webview_settings_patch_smoke</title>
<path fill="#f0fdf4" stroke="#64748b" stroke-width="1.1" stroke-dasharray="5,2" d="M211.71,-36C211.71,-36 12,-36 12,-36 6,-36 0,-30 0,-24 0,-24 0,-12 0,-12 0,-6 6,0 12,0 12,0 211.71,0 211.71,0 217.71,0 223.71,-6 223.71,-12 223.71,-12 223.71,-24 223.71,-24 223.71,-30 217.71,-36 211.71,-36"/>
<text xml:space="preserve" text-anchor="middle" x="111.86" y="-15.22" font-family="Segoe UI" font-size="12.00" fill="#111827">desktop/webview_settings_patch_smoke</text>
</g>
<!-- external_desktop_webview_settings_patch_smoke&#45;&gt;mediapipeline_desktop_app_models -->
<g id="edge27" class="edge">
<title>external_desktop_webview_settings_patch_smoke&#45;&gt;mediapipeline_desktop_app_models</title>
<path fill="none" stroke="#64748b" stroke-width="1.05" stroke-dasharray="5,2" d="M206.9,-36.43C212.94,-39.69 218.63,-43.51 223.71,-48 256.22,-76.68 247.65,-96.91 260.71,-138.25 330.86,-360.34 380.56,-638.33 395.01,-723.8"/>
<polygon fill="#64748b" stroke="#64748b" stroke-width="1.05" points="392.75,-724.09 396.07,-730.12 397.24,-723.34 392.75,-724.09"/>
<text xml:space="preserve" text-anchor="middle" x="256.21" y="-142.45" font-family="Segoe UI" font-size="9.00" fill="#475569">1</text>
</g>
</g>
</svg>
