<?xml version="1.0" encoding="UTF-8" standalone="no"?>
<!DOCTYPE svg PUBLIC "-//W3C//DTD SVG 1.1//EN"
 "http://www.w3.org/Graphics/SVG/1.1/DTD/svg11.dtd">
<!-- Generated by graphviz version 15.0.0 (20260523.1842)
 -->
<!-- Title: G Pages: 1 -->
<svg width="582pt" height="710pt"
 viewBox="0.00 0.00 582.00 710.00" xmlns="http://www.w3.org/2000/svg" xmlns:xlink="http://www.w3.org/1999/xlink">
<g id="graph0" class="graph" transform="scale(1 1) rotate(0) translate(14.4 695.4)">
<title>G</title>
<polygon fill="white" stroke="none" points="-14.4,14.4 -14.4,-695.4 567.61,-695.4 567.61,14.4 -14.4,14.4"/>
<text xml:space="preserve" text-anchor="middle" x="276.61" y="-658" font-family="Segoe UI" font-size="20.00">desktop/config_keys module detail</text>
<g id="clust1" class="cluster">
<title>cluster_focus</title>
<path fill="white" stroke="#93c5fd" stroke-width="1.2" d="M288.21,-297C288.21,-297 541.21,-297 541.21,-297 547.21,-297 553.21,-303 553.21,-309 553.21,-309 553.21,-372 553.21,-372 553.21,-378 547.21,-384 541.21,-384 541.21,-384 288.21,-384 288.21,-384 282.21,-384 276.21,-378 276.21,-372 276.21,-372 276.21,-309 276.21,-309 276.21,-303 282.21,-297 288.21,-297"/>
<text xml:space="preserve" text-anchor="middle" x="414.71" y="-361" font-family="Segoe UI" font-size="20.00">desktop/config_keys modules</text>
</g>
<!-- mediapipeline_desktop_app_config_keys -->
<g id="node1" class="node">
<title>mediapipeline_desktop_app_config_keys</title>
<path fill="#eff6ff" stroke="#334155" stroke-width="1.1" d="M446.57,-341C446.57,-341 381.86,-341 381.86,-341 375.86,-341 369.86,-335 369.86,-329 369.86,-329 369.86,-317 369.86,-317 369.86,-311 375.86,-305 381.86,-305 381.86,-305 446.57,-305 446.57,-305 452.57,-305 458.57,-311 458.57,-317 458.57,-317 458.57,-329 458.57,-329 458.57,-335 452.57,-341 446.57,-341"/>
<text xml:space="preserve" text-anchor="middle" x="414.21" y="-320.23" font-family="Segoe UI" font-size="12.00" fill="#111827">config_keys.py</text>
</g>
<!-- external_app_api -->
<g id="node2" class="node">
<title>external_app_api</title>
<path fill="#f8fafc" stroke="#64748b" stroke-width="1.1" stroke-dasharray="5,2" d="M126.86,-646C126.86,-646 96.86,-646 96.86,-646 90.86,-646 84.86,-640 84.86,-634 84.86,-634 84.86,-622 84.86,-622 84.86,-616 90.86,-610 96.86,-610 96.86,-610 126.86,-610 126.86,-610 132.86,-610 138.86,-616 138.86,-622 138.86,-622 138.86,-634 138.86,-634 138.86,-640 132.86,-646 126.86,-646"/>
<text xml:space="preserve" text-anchor="middle" x="111.86" y="-625.23" font-family="Segoe UI" font-size="12.00" fill="#111827">app/api</text>
</g>
<!-- external_app_api&#45;&gt;mediapipeline_desktop_app_config_keys -->
<g id="edge1" class="edge">
<title>external_app_api&#45;&gt;mediapipeline_desktop_app_config_keys</title>
<path fill="none" stroke="#64748b" stroke-width="1.05" stroke-dasharray="5,2" d="M139.23,-626.01C163.17,-623.08 198.48,-615.85 223.71,-598 317.5,-531.62 379.64,-403.21 402.93,-348.59"/>
<polygon fill="#64748b" stroke="#64748b" stroke-width="1.05" points="404.92,-349.73 405.34,-342.85 400.73,-347.96 404.92,-349.73"/>
<text xml:space="preserve" text-anchor="middle" x="253.96" y="-579.78" font-family="Segoe UI" font-size="9.00" fill="#475569">1</text>
</g>
<!-- external_app_completed -->
<g id="node3" class="node">
<title>external_app_completed</title>
<path fill="#f8fafc" stroke="#64748b" stroke-width="1.1" stroke-dasharray="5,2" d="M145.71,-585C145.71,-585 78,-585 78,-585 72,-585 66,-579 66,-573 66,-573 66,-561 66,-561 66,-555 72,-549 78,-549 78,-549 145.71,-549 145.71,-549 151.71,-549 157.71,-555 157.71,-561 157.71,-561 157.71,-573 157.71,-573 157.71,-579 151.71,-585 145.71,-585"/>
<text xml:space="preserve" text-anchor="middle" x="111.86" y="-564.23" font-family="Segoe UI" font-size="12.00" fill="#111827">app/completed</text>
</g>
<!-- external_app_completed&#45;&gt;mediapipeline_desktop_app_config_keys -->
<g id="edge2" class="edge">
<title>external_app_completed&#45;&gt;mediapipeline_desktop_app_config_keys</title>
<path fill="none" stroke="#64748b" stroke-width="1.05" stroke-dasharray="5,2" d="M158.15,-560.89C179.24,-556.56 203.97,-549.24 223.71,-537 303.97,-487.22 369.63,-393.18 398.04,-348.2"/>
<polygon fill="#64748b" stroke="#64748b" stroke-width="1.05" points="399.92,-349.48 401.43,-342.77 396.06,-347.07 399.92,-349.48"/>
<text xml:space="preserve" text-anchor="middle" x="253.96" y="-518.94" font-family="Segoe UI" font-size="9.00" fill="#475569">1</text>
</g>
<!-- external_app_config -->
<g id="node4" class="node">
<title>external_app_config</title>
<path fill="#f8fafc" stroke="#64748b" stroke-width="1.1" stroke-dasharray="5,2" d="M134.46,-524C134.46,-524 89.25,-524 89.25,-524 83.25,-524 77.25,-518 77.25,-512 77.25,-512 77.25,-500 77.25,-500 77.25,-494 83.25,-488 89.25,-488 89.25,-488 134.46,-488 134.46,-488 140.46,-488 146.46,-494 146.46,-500 146.46,-500 146.46,-512 146.46,-512 146.46,-518 140.46,-524 134.46,-524"/>
<text xml:space="preserve" text-anchor="middle" x="111.86" y="-503.23" font-family="Segoe UI" font-size="12.00" fill="#111827">app/config</text>
</g>
<!-- external_app_config&#45;&gt;mediapipeline_desktop_app_config_keys -->
<g id="edge3" class="edge">
<title>external_app_config&#45;&gt;mediapipeline_desktop_app_config_keys</title>
<path fill="none" stroke="#64748b" stroke-width="1.05" stroke-dasharray="5,2" d="M146.67,-500.63C169.34,-496.13 199.38,-488.41 223.71,-476 291,-441.67 356.67,-380.73 390.2,-347.05"/>
<polygon fill="#64748b" stroke="#64748b" stroke-width="1.05" points="391.63,-348.85 394.58,-342.62 388.39,-345.65 391.63,-348.85"/>
<text xml:space="preserve" text-anchor="middle" x="253.96" y="-463.96" font-family="Segoe UI" font-size="9.00" fill="#475569">7</text>
</g>
<!-- external_app_final_library -->
<g id="node5" class="node">
<title>external_app_final_library</title>
<path fill="#f8fafc" stroke="#64748b" stroke-width="1.1" stroke-dasharray="5,2" d="M149.09,-463C149.09,-463 74.63,-463 74.63,-463 68.63,-463 62.63,-457 62.63,-451 62.63,-451 62.63,-439 62.63,-439 62.63,-433 68.63,-427 74.63,-427 74.63,-427 149.09,-427 149.09,-427 155.09,-427 161.09,-433 161.09,-439 161.09,-439 161.09,-451 161.09,-451 161.09,-457 155.09,-463 149.09,-463"/>
<text xml:space="preserve" text-anchor="middle" x="111.86" y="-442.23" font-family="Segoe UI" font-size="12.00" fill="#111827">app/final_library</text>
</g>
<!-- external_app_final_library&#45;&gt;mediapipeline_desktop_app_config_keys -->
<g id="edge4" class="edge">
<title>external_app_final_library&#45;&gt;mediapipeline_desktop_app_config_keys</title>
<path fill="none" stroke="#64748b" stroke-width="1.05" stroke-dasharray="5,2" d="M161.5,-433.94C181.09,-428.95 203.73,-422.48 223.71,-415 277.07,-395.03 335.67,-365.29 373.37,-345.07"/>
<polygon fill="#64748b" stroke="#64748b" stroke-width="1.05" points="374.12,-347.25 378.76,-342.16 371.96,-343.25 374.12,-347.25"/>
<text xml:space="preserve" text-anchor="middle" x="253.96" y="-406.39" font-family="Segoe UI" font-size="9.00" fill="#475569">1</text>
</g>
<!-- external_app_paths -->
<g id="node6" class="node">
<title>external_app_paths</title>
<path fill="#f8fafc" stroke="#64748b" stroke-width="1.1" stroke-dasharray="5,2" d="M132.59,-402C132.59,-402 91.13,-402 91.13,-402 85.13,-402 79.13,-396 79.13,-390 79.13,-390 79.13,-378 79.13,-378 79.13,-372 85.13,-366 91.13,-366 91.13,-366 132.59,-366 132.59,-366 138.59,-366 144.59,-372 144.59,-378 144.59,-378 144.59,-390 144.59,-390 144.59,-396 138.59,-402 132.59,-402"/>
<text xml:space="preserve" text-anchor="middle" x="111.86" y="-381.23" font-family="Segoe UI" font-size="12.00" fill="#111827">app/paths</text>
</g>
<!-- external_app_paths&#45;&gt;mediapipeline_desktop_app_config_keys -->
<g id="edge5" class="edge">
<title>external_app_paths&#45;&gt;mediapipeline_desktop_app_config_keys</title>
<path fill="none" stroke="#64748b" stroke-width="1.05" stroke-dasharray="5,2" d="M145,-377.47C196.88,-366.93 299.54,-346.09 361.71,-333.46"/>
<polygon fill="#64748b" stroke="#64748b" stroke-width="1.05" points="361.99,-335.72 367.9,-332.2 361.08,-331.27 361.99,-335.72"/>
<text xml:space="preserve" text-anchor="middle" x="253.96" y="-359.53" font-family="Segoe UI" font-size="9.00" fill="#475569">2</text>
</g>
<!-- external_app_processes -->
<g id="node7" class="node">
<title>external_app_processes</title>
<path fill="#f8fafc" stroke="#64748b" stroke-width="1.1" stroke-dasharray="5,2" d="M143.84,-341C143.84,-341 79.88,-341 79.88,-341 73.88,-341 67.88,-335 67.88,-329 67.88,-329 67.88,-317 67.88,-317 67.88,-311 73.88,-305 79.88,-305 79.88,-305 143.84,-305 143.84,-305 149.84,-305 155.84,-311 155.84,-317 155.84,-317 155.84,-329 155.84,-329 155.84,-335 149.84,-341 143.84,-341"/>
<text xml:space="preserve" text-anchor="middle" x="111.86" y="-320.23" font-family="Segoe UI" font-size="12.00" fill="#111827">app/processes</text>
</g>
<!-- external_app_processes&#45;&gt;mediapipeline_desktop_app_config_keys -->
<g id="edge6" class="edge">
<title>external_app_processes&#45;&gt;mediapipeline_desktop_app_config_keys</title>
<path fill="none" stroke="#64748b" stroke-width="1.05" stroke-dasharray="5,2" d="M156.21,-323C210.51,-323 303.46,-323 361.44,-323"/>
<polygon fill="#64748b" stroke="#64748b" stroke-width="1.05" points="361.29,-325.28 367.79,-323 361.29,-320.73 361.29,-325.28"/>
<text xml:space="preserve" text-anchor="middle" x="253.96" y="-327.2" font-family="Segoe UI" font-size="9.00" fill="#475569">1</text>
</g>
<!-- external_app_rename -->
<g id="node8" class="node">
<title>external_app_rename</title>
<path fill="#f8fafc" stroke="#64748b" stroke-width="1.1" stroke-dasharray="5,2" d="M138.21,-280C138.21,-280 85.5,-280 85.5,-280 79.5,-280 73.5,-274 73.5,-268 73.5,-268 73.5,-256 73.5,-256 73.5,-250 79.5,-244 85.5,-244 85.5,-244 138.21,-244 138.21,-244 144.21,-244 150.21,-250 150.21,-256 150.21,-256 150.21,-268 150.21,-268 150.21,-274 144.21,-280 138.21,-280"/>
<text xml:space="preserve" text-anchor="middle" x="111.86" y="-259.23" font-family="Segoe UI" font-size="12.00" fill="#111827">app/rename</text>
</g>
<!-- external_app_rename&#45;&gt;mediapipeline_desktop_app_config_keys -->
<g id="edge7" class="edge">
<title>external_app_rename&#45;&gt;mediapipeline_desktop_app_config_keys</title>
<path fill="none" stroke="#64748b" stroke-width="1.05" stroke-dasharray="5,2" d="M150.59,-269.66C203.97,-280.5 301.69,-300.35 361.7,-312.54"/>
<polygon fill="#64748b" stroke="#64748b" stroke-width="1.05" points="361.17,-314.75 367.99,-313.82 362.08,-310.29 361.17,-314.75"/>
<text xml:space="preserve" text-anchor="middle" x="253.96" y="-294.87" font-family="Segoe UI" font-size="9.00" fill="#475569">1</text>
</g>
<!-- external_desktop_application -->
<g id="node9" class="node">
<title>external_desktop_application</title>
<path fill="#f0fdf4" stroke="#64748b" stroke-width="1.1" stroke-dasharray="5,2" d="M157.71,-219C157.71,-219 66,-219 66,-219 60,-219 54,-213 54,-207 54,-207 54,-195 54,-195 54,-189 60,-183 66,-183 66,-183 157.71,-183 157.71,-183 163.71,-183 169.71,-189 169.71,-195 169.71,-195 169.71,-207 169.71,-207 169.71,-213 163.71,-219 157.71,-219"/>
<text xml:space="preserve" text-anchor="middle" x="111.86" y="-198.22" font-family="Segoe UI" font-size="12.00" fill="#111827">desktop/application</text>
</g>
<!-- external_desktop_application&#45;&gt;mediapipeline_desktop_app_config_keys -->
<g id="edge8" class="edge">
<title>external_desktop_application&#45;&gt;mediapipeline_desktop_app_config_keys</title>
<path fill="none" stroke="#64748b" stroke-width="1.05" stroke-dasharray="5,2" d="M170.18,-214.32C187.59,-218.95 206.62,-224.61 223.71,-231 277.07,-250.97 335.67,-280.71 373.37,-300.93"/>
<polygon fill="#64748b" stroke="#64748b" stroke-width="1.05" points="371.96,-302.75 378.76,-303.84 374.12,-298.75 371.96,-302.75"/>
<text xml:space="preserve" text-anchor="middle" x="253.96" y="-248.01" font-family="Segoe UI" font-size="9.00" fill="#475569">4</text>
</g>
<!-- external_desktop_network -->
<g id="node10" class="node">
<title>external_desktop_network</title>
<path fill="#f0fdf4" stroke="#64748b" stroke-width="1.1" stroke-dasharray="5,2" d="M150.59,-158C150.59,-158 73.13,-158 73.13,-158 67.13,-158 61.13,-152 61.13,-146 61.13,-146 61.13,-134 61.13,-134 61.13,-128 67.13,-122 73.13,-122 73.13,-122 150.59,-122 150.59,-122 156.59,-122 162.59,-128 162.59,-134 162.59,-134 162.59,-146 162.59,-146 162.59,-152 156.59,-158 150.59,-158"/>
<text xml:space="preserve" text-anchor="middle" x="111.86" y="-137.22" font-family="Segoe UI" font-size="12.00" fill="#111827">desktop/network</text>
</g>
<!-- external_desktop_network&#45;&gt;mediapipeline_desktop_app_config_keys -->
<g id="edge9" class="edge">
<title>external_desktop_network&#45;&gt;mediapipeline_desktop_app_config_keys</title>
<path fill="none" stroke="#64748b" stroke-width="1.05" stroke-dasharray="5,2" d="M163.04,-148.94C182.64,-153.6 204.88,-160.4 223.71,-170 291,-204.33 356.67,-265.27 390.2,-298.95"/>
<polygon fill="#64748b" stroke="#64748b" stroke-width="1.05" points="388.39,-300.35 394.58,-303.38 391.63,-297.15 388.39,-300.35"/>
<text xml:space="preserve" text-anchor="middle" x="253.96" y="-190.44" font-family="Segoe UI" font-size="9.00" fill="#475569">5</text>
</g>
<!-- external_desktop_webview_settings_live_smoke -->
<g id="node11" class="node">
<title>external_desktop_webview_settings_live_smoke</title>
<path fill="#f0fdf4" stroke="#64748b" stroke-width="1.1" stroke-dasharray="5,2" d="M206.46,-97C206.46,-97 17.25,-97 17.25,-97 11.25,-97 5.25,-91 5.25,-85 5.25,-85 5.25,-73 5.25,-73 5.25,-67 11.25,-61 17.25,-61 17.25,-61 206.46,-61 206.46,-61 212.46,-61 218.46,-67 218.46,-73 218.46,-73 218.46,-85 218.46,-85 218.46,-91 212.46,-97 206.46,-97"/>
<text xml:space="preserve" text-anchor="middle" x="111.86" y="-76.22" font-family="Segoe UI" font-size="12.00" fill="#111827">desktop/webview_settings_live_smoke</text>
</g>
<!-- external_desktop_webview_settings_live_smoke&#45;&gt;mediapipeline_desktop_app_config_keys -->
<g id="edge10" class="edge">
<title>external_desktop_webview_settings_live_smoke&#45;&gt;mediapipeline_desktop_app_config_keys</title>
<path fill="none" stroke="#64748b" stroke-width="1.05" stroke-dasharray="5,2" d="M200.53,-97.47C208.64,-100.72 216.51,-104.53 223.71,-109 303.97,-158.78 369.63,-252.82 398.04,-297.8"/>
<polygon fill="#64748b" stroke="#64748b" stroke-width="1.05" points="396.06,-298.93 401.43,-303.23 399.92,-296.52 396.06,-298.93"/>
<text xml:space="preserve" text-anchor="middle" x="253.96" y="-135.46" font-family="Segoe UI" font-size="9.00" fill="#475569">1</text>
</g>
<!-- external_desktop_webview_settings_patch_smoke -->
<g id="node12" class="node">
<title>external_desktop_webview_settings_patch_smoke</title>
<path fill="#f0fdf4" stroke="#64748b" stroke-width="1.1" stroke-dasharray="5,2" d="M211.71,-36C211.71,-36 12,-36 12,-36 6,-36 0,-30 0,-24 0,-24 0,-12 0,-12 0,-6 6,0 12,0 12,0 211.71,0 211.71,0 217.71,0 223.71,-6 223.71,-12 223.71,-12 223.71,-24 223.71,-24 223.71,-30 217.71,-36 211.71,-36"/>
<text xml:space="preserve" text-anchor="middle" x="111.86" y="-15.22" font-family="Segoe UI" font-size="12.00" fill="#111827">desktop/webview_settings_patch_smoke</text>
</g>
<!-- external_desktop_webview_settings_patch_smoke&#45;&gt;mediapipeline_desktop_app_config_keys -->
<g id="edge11" class="edge">
<title>external_desktop_webview_settings_patch_smoke&#45;&gt;mediapipeline_desktop_app_config_keys</title>
<path fill="none" stroke="#64748b" stroke-width="1.05" stroke-dasharray="5,2" d="M203.09,-36.44C210.38,-39.69 217.36,-43.51 223.71,-48 317.5,-114.38 379.64,-242.79 402.93,-297.41"/>
<polygon fill="#64748b" stroke="#64748b" stroke-width="1.05" points="400.73,-298.04 405.34,-303.15 404.92,-296.27 400.73,-298.04"/>
<text xml:space="preserve" text-anchor="middle" x="253.96" y="-74.62" font-family="Segoe UI" font-size="9.00" fill="#475569">1</text>
</g>
</g>
</svg>
