<?xml version="1.0" encoding="UTF-8" standalone="no"?>
<!DOCTYPE svg PUBLIC "-//W3C//DTD SVG 1.1//EN"
 "http://www.w3.org/Graphics/SVG/1.1/DTD/svg11.dtd">
<!-- Generated by graphviz version 15.0.0 (20260523.1842)
 -->
<!-- Title: G Pages: 1 -->
<svg width="582pt" height="649pt"
 viewBox="0.00 0.00 582.00 649.00" xmlns="http://www.w3.org/2000/svg" xmlns:xlink="http://www.w3.org/1999/xlink">
<g id="graph0" class="graph" transform="scale(1 1) rotate(0) translate(14.4 634.4)">
<title>G</title>
<polygon fill="white" stroke="none" points="-14.4,14.4 -14.4,-634.4 567.61,-634.4 567.61,14.4 -14.4,14.4"/>
<text xml:space="preserve" text-anchor="middle" x="276.61" y="-597" font-family="Segoe UI" font-size="20.00">desktop/config_keys module detail</text>
<g id="clust1" class="cluster">
<title>cluster_focus</title>
<path fill="white" stroke="#93c5fd" stroke-width="1.2" d="M288.21,-266C288.21,-266 541.21,-266 541.21,-266 547.21,-266 553.21,-272 553.21,-278 553.21,-278 553.21,-341 553.21,-341 553.21,-347 547.21,-353 541.21,-353 541.21,-353 288.21,-353 288.21,-353 282.21,-353 276.21,-347 276.21,-341 276.21,-341 276.21,-278 276.21,-278 276.21,-272 282.21,-266 288.21,-266"/>
<text xml:space="preserve" text-anchor="middle" x="414.71" y="-330" font-family="Segoe UI" font-size="20.00">desktop/config_keys modules</text>
</g>
<!-- mediapipeline_desktop_app_config_keys -->
<g id="node1" class="node">
<title>mediapipeline_desktop_app_config_keys</title>
<path fill="#eff6ff" stroke="#334155" stroke-width="1.1" d="M446.57,-310C446.57,-310 381.86,-310 381.86,-310 375.86,-310 369.86,-304 369.86,-298 369.86,-298 369.86,-286 369.86,-286 369.86,-280 375.86,-274 381.86,-274 381.86,-274 446.57,-274 446.57,-274 452.57,-274 458.57,-280 458.57,-286 458.57,-286 458.57,-298 458.57,-298 458.57,-304 452.57,-310 446.57,-310"/>
<text xml:space="preserve" text-anchor="middle" x="414.21" y="-289.23" font-family="Segoe UI" font-size="12.00" fill="#111827">config_keys.py</text>
</g>
<!-- external_app_completed -->
<g id="node2" class="node">
<title>external_app_completed</title>
<path fill="#f8fafc" stroke="#64748b" stroke-width="1.1" stroke-dasharray="5,2" d="M145.71,-585C145.71,-585 78,-585 78,-585 72,-585 66,-579 66,-573 66,-573 66,-561 66,-561 66,-555 72,-549 78,-549 78,-549 145.71,-549 145.71,-549 151.71,-549 157.71,-555 157.71,-561 157.71,-561 157.71,-573 157.71,-573 157.71,-579 151.71,-585 145.71,-585"/>
<text xml:space="preserve" text-anchor="middle" x="111.86" y="-564.23" font-family="Segoe UI" font-size="12.00" fill="#111827">app/completed</text>
</g>
<!-- external_app_completed&#45;&gt;mediapipeline_desktop_app_config_keys -->
<g id="edge1" class="edge">
<title>external_app_completed&#45;&gt;mediapipeline_desktop_app_config_keys</title>
<path fill="none" stroke="#64748b" stroke-width="1.05" stroke-dasharray="5,2" d="M158.25,-561.52C179.48,-557.33 204.31,-549.95 223.71,-537 310.9,-478.83 375.17,-367.21 400.88,-317.26"/>
<polygon fill="#64748b" stroke="#64748b" stroke-width="1.05" points="402.76,-318.59 403.67,-311.76 398.7,-316.53 402.76,-318.59"/>
<text xml:space="preserve" text-anchor="middle" x="253.96" y="-518.52" font-family="Segoe UI" font-size="9.00" fill="#475569">1</text>
</g>
<!-- external_app_config -->
<g id="node3" class="node">
<title>external_app_config</title>
<path fill="#f8fafc" stroke="#64748b" stroke-width="1.1" stroke-dasharray="5,2" d="M134.46,-524C134.46,-524 89.25,-524 89.25,-524 83.25,-524 77.25,-518 77.25,-512 77.25,-512 77.25,-500 77.25,-500 77.25,-494 83.25,-488 89.25,-488 89.25,-488 134.46,-488 134.46,-488 140.46,-488 146.46,-494 146.46,-500 146.46,-500 146.46,-512 146.46,-512 146.46,-518 140.46,-524 134.46,-524"/>
<text xml:space="preserve" text-anchor="middle" x="111.86" y="-503.23" font-family="Segoe UI" font-size="12.00" fill="#111827">app/config</text>
</g>
<!-- external_app_config&#45;&gt;mediapipeline_desktop_app_config_keys -->
<g id="edge2" class="edge">
<title>external_app_config&#45;&gt;mediapipeline_desktop_app_config_keys</title>
<path fill="none" stroke="#64748b" stroke-width="1.05" stroke-dasharray="5,2" d="M146.56,-501.43C169.45,-497.27 199.8,-489.61 223.71,-476 297.66,-433.9 363.98,-356.15 394.87,-316.56"/>
<polygon fill="#64748b" stroke="#64748b" stroke-width="1.05" points="396.37,-318.33 398.54,-311.8 392.77,-315.55 396.37,-318.33"/>
<text xml:space="preserve" text-anchor="middle" x="253.96" y="-460.94" font-family="Segoe UI" font-size="9.00" fill="#475569">7</text>
</g>
<!-- external_app_final_library -->
<g id="node4" class="node">
<title>external_app_final_library</title>
<path fill="#f8fafc" stroke="#64748b" stroke-width="1.1" stroke-dasharray="5,2" d="M149.09,-463C149.09,-463 74.63,-463 74.63,-463 68.63,-463 62.63,-457 62.63,-451 62.63,-451 62.63,-439 62.63,-439 62.63,-433 68.63,-427 74.63,-427 74.63,-427 149.09,-427 149.09,-427 155.09,-427 161.09,-433 161.09,-439 161.09,-439 161.09,-451 161.09,-451 161.09,-457 155.09,-463 149.09,-463"/>
<text xml:space="preserve" text-anchor="middle" x="111.86" y="-442.23" font-family="Segoe UI" font-size="12.00" fill="#111827">app/final_library</text>
</g>
<!-- external_app_final_library&#45;&gt;mediapipeline_desktop_app_config_keys -->
<g id="edge3" class="edge">
<title>external_app_final_library&#45;&gt;mediapipeline_desktop_app_config_keys</title>
<path fill="none" stroke="#64748b" stroke-width="1.05" stroke-dasharray="5,2" d="M161.45,-435.32C181.25,-430.49 204.05,-423.78 223.71,-415 284.4,-387.9 347.77,-342.78 383.69,-315.38"/>
<polygon fill="#64748b" stroke="#64748b" stroke-width="1.05" points="385.04,-317.21 388.81,-311.44 382.27,-313.6 385.04,-317.21"/>
<text xml:space="preserve" text-anchor="middle" x="253.96" y="-404.36" font-family="Segoe UI" font-size="9.00" fill="#475569">1</text>
</g>
<!-- external_app_paths -->
<g id="node5" class="node">
<title>external_app_paths</title>
<path fill="#f8fafc" stroke="#64748b" stroke-width="1.1" stroke-dasharray="5,2" d="M132.59,-402C132.59,-402 91.13,-402 91.13,-402 85.13,-402 79.13,-396 79.13,-390 79.13,-390 79.13,-378 79.13,-378 79.13,-372 85.13,-366 91.13,-366 91.13,-366 132.59,-366 132.59,-366 138.59,-366 144.59,-372 144.59,-378 144.59,-378 144.59,-390 144.59,-390 144.59,-396 138.59,-402 132.59,-402"/>
<text xml:space="preserve" text-anchor="middle" x="111.86" y="-381.23" font-family="Segoe UI" font-size="12.00" fill="#111827">app/paths</text>
</g>
<!-- external_app_paths&#45;&gt;mediapipeline_desktop_app_config_keys -->
<g id="edge4" class="edge">
<title>external_app_paths&#45;&gt;mediapipeline_desktop_app_config_keys</title>
<path fill="none" stroke="#64748b" stroke-width="1.05" stroke-dasharray="5,2" d="M145,-375.77C167.19,-369.98 197.35,-361.87 223.71,-354 270.82,-339.93 323.99,-322.39 361.99,-309.56"/>
<polygon fill="#64748b" stroke="#64748b" stroke-width="1.05" points="362.45,-311.8 367.87,-307.57 360.99,-307.49 362.45,-311.8"/>
<text xml:space="preserve" text-anchor="middle" x="253.96" y="-348.67" font-family="Segoe UI" font-size="9.00" fill="#475569">2</text>
</g>
<!-- external_app_processes -->
<g id="node6" class="node">
<title>external_app_processes</title>
<path fill="#f8fafc" stroke="#64748b" stroke-width="1.1" stroke-dasharray="5,2" d="M143.84,-341C143.84,-341 79.88,-341 79.88,-341 73.88,-341 67.88,-335 67.88,-329 67.88,-329 67.88,-317 67.88,-317 67.88,-311 73.88,-305 79.88,-305 79.88,-305 143.84,-305 143.84,-305 149.84,-305 155.84,-311 155.84,-317 155.84,-317 155.84,-329 155.84,-329 155.84,-335 149.84,-341 143.84,-341"/>
<text xml:space="preserve" text-anchor="middle" x="111.86" y="-320.23" font-family="Segoe UI" font-size="12.00" fill="#111827">app/processes</text>
</g>
<!-- external_app_processes&#45;&gt;mediapipeline_desktop_app_config_keys -->
<g id="edge5" class="edge">
<title>external_app_processes&#45;&gt;mediapipeline_desktop_app_config_keys</title>
<path fill="none" stroke="#64748b" stroke-width="1.05" stroke-dasharray="5,2" d="M156.21,-318.53C210.51,-312.92 303.46,-303.33 361.44,-297.34"/>
<polygon fill="#64748b" stroke="#64748b" stroke-width="1.05" points="361.57,-299.62 367.8,-296.69 361.1,-295.09 361.57,-299.62"/>
<text xml:space="preserve" text-anchor="middle" x="253.96" y="-312.63" font-family="Segoe UI" font-size="9.00" fill="#475569">1</text>
</g>
<!-- external_app_rename -->
<g id="node7" class="node">
<title>external_app_rename</title>
<path fill="#f8fafc" stroke="#64748b" stroke-width="1.1" stroke-dasharray="5,2" d="M138.21,-280C138.21,-280 85.5,-280 85.5,-280 79.5,-280 73.5,-274 73.5,-268 73.5,-268 73.5,-256 73.5,-256 73.5,-250 79.5,-244 85.5,-244 85.5,-244 138.21,-244 138.21,-244 144.21,-244 150.21,-250 150.21,-256 150.21,-256 150.21,-268 150.21,-268 150.21,-274 144.21,-280 138.21,-280"/>
<text xml:space="preserve" text-anchor="middle" x="111.86" y="-259.23" font-family="Segoe UI" font-size="12.00" fill="#111827">app/rename</text>
</g>
<!-- external_app_rename&#45;&gt;mediapipeline_desktop_app_config_keys -->
<g id="edge6" class="edge">
<title>external_app_rename&#45;&gt;mediapipeline_desktop_app_config_keys</title>
<path fill="none" stroke="#64748b" stroke-width="1.05" stroke-dasharray="5,2" d="M150.59,-265.77C203.97,-271.1 301.69,-280.86 361.7,-286.86"/>
<polygon fill="#64748b" stroke="#64748b" stroke-width="1.05" points="361.28,-289.1 367.97,-287.48 361.73,-284.57 361.28,-289.1"/>
<text xml:space="preserve" text-anchor="middle" x="253.96" y="-280.3" font-family="Segoe UI" font-size="9.00" fill="#475569">1</text>
</g>
<!-- external_desktop_application -->
<g id="node8" class="node">
<title>external_desktop_application</title>
<path fill="#f0fdf4" stroke="#64748b" stroke-width="1.1" stroke-dasharray="5,2" d="M157.71,-219C157.71,-219 66,-219 66,-219 60,-219 54,-213 54,-207 54,-207 54,-195 54,-195 54,-189 60,-183 66,-183 66,-183 157.71,-183 157.71,-183 163.71,-183 169.71,-189 169.71,-195 169.71,-195 169.71,-207 169.71,-207 169.71,-213 163.71,-219 157.71,-219"/>
<text xml:space="preserve" text-anchor="middle" x="111.86" y="-198.22" font-family="Segoe UI" font-size="12.00" fill="#111827">desktop/application</text>
</g>
<!-- external_desktop_application&#45;&gt;mediapipeline_desktop_app_config_keys -->
<g id="edge7" class="edge">
<title>external_desktop_application&#45;&gt;mediapipeline_desktop_app_config_keys</title>
<path fill="none" stroke="#64748b" stroke-width="1.05" stroke-dasharray="5,2" d="M170.25,-215.98C187.49,-220.63 206.41,-225.88 223.71,-231 270.78,-244.94 323.95,-262.19 361.96,-274.78"/>
<polygon fill="#64748b" stroke="#64748b" stroke-width="1.05" points="360.96,-276.85 367.85,-276.74 362.4,-272.53 360.96,-276.85"/>
<text xml:space="preserve" text-anchor="middle" x="253.96" y="-244.63" font-family="Segoe UI" font-size="9.00" fill="#475569">4</text>
</g>
<!-- external_desktop_network -->
<g id="node9" class="node">
<title>external_desktop_network</title>
<path fill="#f0fdf4" stroke="#64748b" stroke-width="1.1" stroke-dasharray="5,2" d="M150.59,-158C150.59,-158 73.13,-158 73.13,-158 67.13,-158 61.13,-152 61.13,-146 61.13,-146 61.13,-134 61.13,-134 61.13,-128 67.13,-122 73.13,-122 73.13,-122 150.59,-122 150.59,-122 156.59,-122 162.59,-128 162.59,-134 162.59,-134 162.59,-146 162.59,-146 162.59,-152 156.59,-158 150.59,-158"/>
<text xml:space="preserve" text-anchor="middle" x="111.86" y="-137.22" font-family="Segoe UI" font-size="12.00" fill="#111827">desktop/network</text>
</g>
<!-- external_desktop_network&#45;&gt;mediapipeline_desktop_app_config_keys -->
<g id="edge8" class="edge">
<title>external_desktop_network&#45;&gt;mediapipeline_desktop_app_config_keys</title>
<path fill="none" stroke="#64748b" stroke-width="1.05" stroke-dasharray="5,2" d="M163.09,-150.13C182.49,-154.92 204.58,-161.5 223.71,-170 284.13,-196.85 347.35,-241.41 383.35,-268.6"/>
<polygon fill="#64748b" stroke="#64748b" stroke-width="1.05" points="381.94,-270.38 388.49,-272.51 384.69,-266.76 381.94,-270.38"/>
<text xml:space="preserve" text-anchor="middle" x="253.96" y="-188.94" font-family="Segoe UI" font-size="9.00" fill="#475569">5</text>
</g>
<!-- external_desktop_webview_settings_live_smoke -->
<g id="node10" class="node">
<title>external_desktop_webview_settings_live_smoke</title>
<path fill="#f0fdf4" stroke="#64748b" stroke-width="1.1" stroke-dasharray="5,2" d="M206.46,-97C206.46,-97 17.25,-97 17.25,-97 11.25,-97 5.25,-91 5.25,-85 5.25,-85 5.25,-73 5.25,-73 5.25,-67 11.25,-61 17.25,-61 17.25,-61 206.46,-61 206.46,-61 212.46,-61 218.46,-67 218.46,-73 218.46,-73 218.46,-85 218.46,-85 218.46,-91 212.46,-97 206.46,-97"/>
<text xml:space="preserve" text-anchor="middle" x="111.86" y="-76.22" font-family="Segoe UI" font-size="12.00" fill="#111827">desktop/webview_settings_live_smoke</text>
</g>
<!-- external_desktop_webview_settings_live_smoke&#45;&gt;mediapipeline_desktop_app_config_keys -->
<g id="edge9" class="edge">
<title>external_desktop_webview_settings_live_smoke&#45;&gt;mediapipeline_desktop_app_config_keys</title>
<path fill="none" stroke="#64748b" stroke-width="1.05" stroke-dasharray="5,2" d="M198.73,-97.52C207.42,-100.77 215.91,-104.57 223.71,-109 297.53,-150.89 363.9,-228.21 394.84,-267.58"/>
<polygon fill="#64748b" stroke="#64748b" stroke-width="1.05" points="392.73,-268.58 398.52,-272.31 396.32,-265.78 392.73,-268.58"/>
<text xml:space="preserve" text-anchor="middle" x="253.96" y="-132.36" font-family="Segoe UI" font-size="9.00" fill="#475569">1</text>
</g>
<!-- external_desktop_webview_settings_patch_smoke -->
<g id="node11" class="node">
<title>external_desktop_webview_settings_patch_smoke</title>
<path fill="#f0fdf4" stroke="#64748b" stroke-width="1.1" stroke-dasharray="5,2" d="M211.71,-36C211.71,-36 12,-36 12,-36 6,-36 0,-30 0,-24 0,-24 0,-12 0,-12 0,-6 6,0 12,0 12,0 211.71,0 211.71,0 217.71,0 223.71,-6 223.71,-12 223.71,-12 223.71,-24 223.71,-24 223.71,-30 217.71,-36 211.71,-36"/>
<text xml:space="preserve" text-anchor="middle" x="111.86" y="-15.22" font-family="Segoe UI" font-size="12.00" fill="#111827">desktop/webview_settings_patch_smoke</text>
</g>
<!-- external_desktop_webview_settings_patch_smoke&#45;&gt;mediapipeline_desktop_app_config_keys -->
<g id="edge10" class="edge">
<title>external_desktop_webview_settings_patch_smoke&#45;&gt;mediapipeline_desktop_app_config_keys</title>
<path fill="none" stroke="#64748b" stroke-width="1.05" stroke-dasharray="5,2" d="M201.98,-36.47C209.62,-39.72 216.99,-43.53 223.71,-48 310.55,-105.82 374.83,-216.64 400.7,-266.54"/>
<polygon fill="#64748b" stroke="#64748b" stroke-width="1.05" points="398.66,-267.56 403.65,-272.31 402.71,-265.49 398.66,-267.56"/>
<text xml:space="preserve" text-anchor="middle" x="253.96" y="-74.79" font-family="Segoe UI" font-size="9.00" fill="#475569">1</text>
</g>
</g>
</svg>
