<?xml version="1.0" encoding="UTF-8" standalone="no"?>
<!DOCTYPE svg PUBLIC "-//W3C//DTD SVG 1.1//EN"
 "http://www.w3.org/Graphics/SVG/1.1/DTD/svg11.dtd">
<!-- Generated by graphviz version 15.0.0 (20260523.1842)
 -->
<!-- Title: G Pages: 1 -->
<svg width="526pt" height="711pt"
 viewBox="0.00 0.00 526.00 711.00" xmlns="http://www.w3.org/2000/svg" xmlns:xlink="http://www.w3.org/1999/xlink">
<g id="graph0" class="graph" transform="scale(1 1) rotate(0) translate(14.4 696.4)">
<title>G</title>
<polygon fill="white" stroke="none" points="-14.4,14.4 -14.4,-696.4 512.03,-696.4 512.03,14.4 -14.4,14.4"/>
<text xml:space="preserve" text-anchor="middle" x="248.82" y="-659" font-family="Segoe UI" font-size="20.00">core/validation module detail</text>
<g id="clust1" class="cluster">
<title>cluster_focus</title>
<path fill="white" stroke="#93c5fd" stroke-width="1.2" d="M144.59,-299C144.59,-299 477.63,-299 477.63,-299 483.63,-299 489.63,-305 489.63,-311 489.63,-311 489.63,-496 489.63,-496 489.63,-502 483.63,-508 477.63,-508 477.63,-508 144.59,-508 144.59,-508 138.59,-508 132.59,-502 132.59,-496 132.59,-496 132.59,-311 132.59,-311 132.59,-305 138.59,-299 144.59,-299"/>
<text xml:space="preserve" text-anchor="middle" x="311.11" y="-485" font-family="Segoe UI" font-size="20.00">core/validation modules</text>
</g>
<!-- mediapipeline_core_validation -->
<g id="node1" class="node">
<title>mediapipeline_core_validation</title>
<path fill="#eff6ff" stroke="#334155" stroke-width="1.1" d="M256.67,-343C256.67,-343 159.71,-343 159.71,-343 153.71,-343 147.71,-337 147.71,-331 147.71,-331 147.71,-319 147.71,-319 147.71,-313 153.71,-307 159.71,-307 159.71,-307 256.67,-307 256.67,-307 262.67,-307 268.67,-313 268.67,-319 268.67,-319 268.67,-331 268.67,-331 268.67,-337 262.67,-343 256.67,-343"/>
<text xml:space="preserve" text-anchor="middle" x="208.19" y="-322.23" font-family="Segoe UI" font-size="12.00" fill="#111827">validation/__init__.py</text>
</g>
<!-- mediapipeline_core_validation_boundary -->
<g id="node2" class="node">
<title>mediapipeline_core_validation_boundary</title>
<path fill="#eff6ff" stroke="#334155" stroke-width="1.1" d="M263.05,-465C263.05,-465 153.34,-465 153.34,-465 147.34,-465 141.34,-459 141.34,-453 141.34,-453 141.34,-441 141.34,-441 141.34,-435 147.34,-429 153.34,-429 153.34,-429 263.05,-429 263.05,-429 269.05,-429 275.05,-435 275.05,-441 275.05,-441 275.05,-453 275.05,-453 275.05,-459 269.05,-465 263.05,-465"/>
<text xml:space="preserve" text-anchor="middle" x="208.19" y="-444.23" font-family="Segoe UI" font-size="12.00" fill="#111827">validation/boundary.py</text>
</g>
<!-- external_contracts_api_commands -->
<g id="node5" class="node">
<title>external_contracts_api_commands</title>
<path fill="#f0fdf4" stroke="#64748b" stroke-width="1.1" stroke-dasharray="5,2" d="M473.38,-552C473.38,-552 353.92,-552 353.92,-552 347.92,-552 341.92,-546 341.92,-540 341.92,-540 341.92,-528 341.92,-528 341.92,-522 347.92,-516 353.92,-516 353.92,-516 473.38,-516 473.38,-516 479.38,-516 485.38,-522 485.38,-528 485.38,-528 485.38,-540 485.38,-540 485.38,-546 479.38,-552 473.38,-552"/>
<text xml:space="preserve" text-anchor="middle" x="413.65" y="-531.23" font-family="Segoe UI" font-size="12.00" fill="#111827">contracts/api_commands</text>
</g>
<!-- mediapipeline_core_validation_boundary&#45;&gt;external_contracts_api_commands -->
<g id="edge2" class="edge">
<title>mediapipeline_core_validation_boundary&#45;&gt;external_contracts_api_commands</title>
<path fill="none" stroke="#9333ea" stroke-width="1.05" d="M243.19,-465.45C269.62,-479.36 307.47,-498.3 341.92,-512 342.48,-512.22 343.04,-512.44 343.61,-512.67"/>
<polygon fill="#9333ea" stroke="#9333ea" stroke-width="1.05" points="342.74,-514.77 349.62,-514.93 344.34,-510.51 342.74,-514.77"/>
<text xml:space="preserve" text-anchor="middle" x="311.67" y="-503.52" font-family="Segoe UI" font-size="9.00" fill="#7e22ce">1</text>
</g>
<!-- external_contracts_stages -->
<g id="node9" class="node">
<title>external_contracts_stages</title>
<path fill="#f0fdf4" stroke="#64748b" stroke-width="1.1" stroke-dasharray="5,2" d="M450.51,-613C450.51,-613 376.8,-613 376.8,-613 370.8,-613 364.8,-607 364.8,-601 364.8,-601 364.8,-589 364.8,-589 364.8,-583 370.8,-577 376.8,-577 376.8,-577 450.51,-577 450.51,-577 456.51,-577 462.51,-583 462.51,-589 462.51,-589 462.51,-601 462.51,-601 462.51,-607 456.51,-613 450.51,-613"/>
<text xml:space="preserve" text-anchor="middle" x="413.65" y="-592.23" font-family="Segoe UI" font-size="12.00" fill="#111827">contracts/stages</text>
</g>
<!-- mediapipeline_core_validation_boundary&#45;&gt;external_contracts_stages -->
<g id="edge3" class="edge">
<title>mediapipeline_core_validation_boundary&#45;&gt;external_contracts_stages</title>
<path fill="none" stroke="#9333ea" stroke-width="1.05" d="M226.13,-465.44C250,-490.59 295.8,-535.83 341.92,-565 346.73,-568.04 351.89,-570.9 357.16,-573.55"/>
<polygon fill="#9333ea" stroke="#9333ea" stroke-width="1.05" points="356.12,-575.58 362.97,-576.35 358.1,-571.48 356.12,-575.58"/>
<text xml:space="preserve" text-anchor="middle" x="311.67" y="-546.81" font-family="Segoe UI" font-size="9.00" fill="#7e22ce">1</text>
</g>
<!-- mediapipeline_core_validation_state_json -->
<g id="node3" class="node">
<title>mediapipeline_core_validation_state_json</title>
<path fill="#eff6ff" stroke="#334155" stroke-width="1.1" d="M263.8,-404C263.8,-404 152.59,-404 152.59,-404 146.59,-404 140.59,-398 140.59,-392 140.59,-392 140.59,-380 140.59,-380 140.59,-374 146.59,-368 152.59,-368 152.59,-368 263.8,-368 263.8,-368 269.8,-368 275.8,-374 275.8,-380 275.8,-380 275.8,-392 275.8,-392 275.8,-398 269.8,-404 263.8,-404"/>
<text xml:space="preserve" text-anchor="middle" x="208.19" y="-383.23" font-family="Segoe UI" font-size="12.00" fill="#111827">validation/state_json.py</text>
</g>
<!-- mediapipeline_core_validation_strict_json -->
<g id="node4" class="node">
<title>mediapipeline_core_validation_strict_json</title>
<path fill="#eff6ff" stroke="#334155" stroke-width="1.1" d="M469.63,-343C469.63,-343 357.67,-343 357.67,-343 351.67,-343 345.67,-337 345.67,-331 345.67,-331 345.67,-319 345.67,-319 345.67,-313 351.67,-307 357.67,-307 357.67,-307 469.63,-307 469.63,-307 475.63,-307 481.63,-313 481.63,-319 481.63,-319 481.63,-331 481.63,-331 481.63,-337 475.63,-343 469.63,-343"/>
<text xml:space="preserve" text-anchor="middle" x="413.65" y="-322.23" font-family="Segoe UI" font-size="12.00" fill="#111827">validation/strict_json.py</text>
</g>
<!-- mediapipeline_core_validation_state_json&#45;&gt;mediapipeline_core_validation_strict_json -->
<g id="edge1" class="edge">
<title>mediapipeline_core_validation_state_json&#45;&gt;mediapipeline_core_validation_strict_json</title>
<path fill="none" stroke="#2563eb" stroke-width="1.05" d="M270.79,-367.53C293.69,-360.67 319.82,-352.83 343.37,-345.77"/>
<polygon fill="#2563eb" stroke="#2563eb" stroke-width="1.05" points="343.82,-348.01 349.39,-343.97 342.51,-343.65 343.82,-348.01"/>
</g>
<!-- external_contracts_config -->
<g id="node6" class="node">
<title>external_contracts_config</title>
<path fill="#f0fdf4" stroke="#64748b" stroke-width="1.1" stroke-dasharray="5,2" d="M244.67,-282C244.67,-282 171.71,-282 171.71,-282 165.71,-282 159.71,-276 159.71,-270 159.71,-270 159.71,-258 159.71,-258 159.71,-252 165.71,-246 171.71,-246 171.71,-246 244.67,-246 244.67,-246 250.67,-246 256.67,-252 256.67,-258 256.67,-258 256.67,-270 256.67,-270 256.67,-276 250.67,-282 244.67,-282"/>
<text xml:space="preserve" text-anchor="middle" x="208.19" y="-261.23" font-family="Segoe UI" font-size="12.00" fill="#111827">contracts/config</text>
</g>
<!-- external_contracts_config&#45;&gt;mediapipeline_core_validation_strict_json -->
<g id="edge4" class="edge">
<title>external_contracts_config&#45;&gt;mediapipeline_core_validation_strict_json</title>
<path fill="none" stroke="#64748b" stroke-width="1.05" stroke-dasharray="5,2" d="M257.15,-278.38C282.92,-286.11 315.16,-295.77 343.59,-304.3"/>
<polygon fill="#64748b" stroke="#64748b" stroke-width="1.05" points="342.71,-306.41 349.59,-306.09 344.02,-302.05 342.71,-306.41"/>
<text xml:space="preserve" text-anchor="middle" x="311.67" y="-298.7" font-family="Segoe UI" font-size="9.00" fill="#475569">1</text>
</g>
<!-- external_contracts_config_coercion -->
<g id="node7" class="node">
<title>external_contracts_config_coercion</title>
<path fill="#f0fdf4" stroke="#64748b" stroke-width="1.1" stroke-dasharray="5,2" d="M269.42,-221C269.42,-221 146.96,-221 146.96,-221 140.96,-221 134.96,-215 134.96,-209 134.96,-209 134.96,-197 134.96,-197 134.96,-191 140.96,-185 146.96,-185 146.96,-185 269.42,-185 269.42,-185 275.42,-185 281.42,-191 281.42,-197 281.42,-197 281.42,-209 281.42,-209 281.42,-215 275.42,-221 269.42,-221"/>
<text xml:space="preserve" text-anchor="middle" x="208.19" y="-200.22" font-family="Segoe UI" font-size="12.00" fill="#111827">contracts/config_coercion</text>
</g>
<!-- external_contracts_config_coercion&#45;&gt;mediapipeline_core_validation_strict_json -->
<g id="edge5" class="edge">
<title>external_contracts_config_coercion&#45;&gt;mediapipeline_core_validation_strict_json</title>
<path fill="none" stroke="#64748b" stroke-width="1.05" stroke-dasharray="5,2" d="M256.09,-221.5C264.66,-225.34 273.42,-229.57 281.42,-234 318.09,-254.31 357.21,-282.37 383.11,-301.94"/>
<polygon fill="#64748b" stroke="#64748b" stroke-width="1.05" points="381.58,-303.64 388.13,-305.76 384.34,-300.02 381.58,-303.64"/>
<text xml:space="preserve" text-anchor="middle" x="311.67" y="-256.09" font-family="Segoe UI" font-size="9.00" fill="#475569">1</text>
</g>
<!-- external_contracts_config_fields -->
<g id="node8" class="node">
<title>external_contracts_config_fields</title>
<path fill="#f0fdf4" stroke="#64748b" stroke-width="1.1" stroke-dasharray="5,2" d="M261.17,-647C261.17,-647 155.21,-647 155.21,-647 149.21,-647 143.21,-641 143.21,-635 143.21,-635 143.21,-623 143.21,-623 143.21,-617 149.21,-611 155.21,-611 155.21,-611 261.17,-611 261.17,-611 267.17,-611 273.17,-617 273.17,-623 273.17,-623 273.17,-635 273.17,-635 273.17,-641 267.17,-647 261.17,-647"/>
<text xml:space="preserve" text-anchor="middle" x="208.19" y="-626.23" font-family="Segoe UI" font-size="12.00" fill="#111827">contracts/config_fields</text>
</g>
<!-- external_contracts_config_fields&#45;&gt;mediapipeline_core_validation_strict_json -->
<g id="edge6" class="edge">
<title>external_contracts_config_fields&#45;&gt;mediapipeline_core_validation_strict_json</title>
<path fill="none" stroke="#64748b" stroke-width="1.05" stroke-dasharray="5,2" d="M248.98,-610.56C270.57,-598.9 296.35,-582.05 313.92,-561 328.22,-543.87 380.92,-408.18 402.91,-350.65"/>
<polygon fill="#64748b" stroke="#64748b" stroke-width="1.05" points="404.92,-351.76 405.11,-344.87 400.67,-350.13 404.92,-351.76"/>
<text xml:space="preserve" text-anchor="middle" x="311.67" y="-570.23" font-family="Segoe UI" font-size="9.00" fill="#475569">1</text>
</g>
<!-- external_core_config -->
<g id="node10" class="node">
<title>external_core_config</title>
<path fill="#f8fafc" stroke="#64748b" stroke-width="1.1" stroke-dasharray="5,2" d="M232.3,-36C232.3,-36 184.09,-36 184.09,-36 178.09,-36 172.09,-30 172.09,-24 172.09,-24 172.09,-12 172.09,-12 172.09,-6 178.09,0 184.09,0 184.09,0 232.3,0 232.3,0 238.3,0 244.3,-6 244.3,-12 244.3,-12 244.3,-24 244.3,-24 244.3,-30 238.3,-36 232.3,-36"/>
<text xml:space="preserve" text-anchor="middle" x="208.19" y="-15.22" font-family="Segoe UI" font-size="12.00" fill="#111827">core/config</text>
</g>
<!-- external_core_config&#45;&gt;mediapipeline_core_validation_strict_json -->
<g id="edge7" class="edge">
<title>external_core_config&#45;&gt;mediapipeline_core_validation_strict_json</title>
<path fill="none" stroke="#64748b" stroke-width="1.05" stroke-dasharray="5,2" d="M244.74,-28.84C257.16,-33.72 270.67,-40.37 281.42,-49 363.06,-114.57 396.82,-243.09 408,-298.52"/>
<polygon fill="#64748b" stroke="#64748b" stroke-width="1.05" points="405.77,-298.95 409.24,-304.9 410.23,-298.08 405.77,-298.95"/>
<text xml:space="preserve" text-anchor="middle" x="311.67" y="-81.6" font-family="Segoe UI" font-size="9.00" fill="#475569">3</text>
</g>
<!-- external_core_rename -->
<g id="node11" class="node">
<title>external_core_rename</title>
<path fill="#f8fafc" stroke="#64748b" stroke-width="1.1" stroke-dasharray="5,2" d="M236.05,-97C236.05,-97 180.34,-97 180.34,-97 174.34,-97 168.34,-91 168.34,-85 168.34,-85 168.34,-73 168.34,-73 168.34,-67 174.34,-61 180.34,-61 180.34,-61 236.05,-61 236.05,-61 242.05,-61 248.05,-67 248.05,-73 248.05,-73 248.05,-85 248.05,-85 248.05,-91 242.05,-97 236.05,-97"/>
<text xml:space="preserve" text-anchor="middle" x="208.19" y="-76.22" font-family="Segoe UI" font-size="12.00" fill="#111827">core/rename</text>
</g>
<!-- external_core_rename&#45;&gt;mediapipeline_core_validation_strict_json -->
<g id="edge8" class="edge">
<title>external_core_rename&#45;&gt;mediapipeline_core_validation_strict_json</title>
<path fill="none" stroke="#64748b" stroke-width="1.05" stroke-dasharray="5,2" d="M248.58,-84.95C270.03,-89.94 295.82,-98.98 313.92,-115.25 370.14,-165.77 397.01,-255.06 407.33,-299.04"/>
<polygon fill="#64748b" stroke="#64748b" stroke-width="1.05" points="405.06,-299.32 408.72,-305.15 409.5,-298.31 405.06,-299.32"/>
<text xml:space="preserve" text-anchor="middle" x="311.67" y="-119.45" font-family="Segoe UI" font-size="9.00" fill="#475569">1</text>
</g>
<!-- external_desktop_api -->
<g id="node12" class="node">
<title>external_desktop_api</title>
<path fill="#f0fdf4" stroke="#64748b" stroke-width="1.1" stroke-dasharray="5,2" d="M62.46,-186C62.46,-186 12,-186 12,-186 6,-186 0,-180 0,-174 0,-174 0,-162 0,-162 0,-156 6,-150 12,-150 12,-150 62.46,-150 62.46,-150 68.46,-150 74.46,-156 74.46,-162 74.46,-162 74.46,-174 74.46,-174 74.46,-180 68.46,-186 62.46,-186"/>
<text xml:space="preserve" text-anchor="middle" x="37.23" y="-165.22" font-family="Segoe UI" font-size="12.00" fill="#111827">desktop/api</text>
</g>
<!-- external_desktop_api&#45;&gt;mediapipeline_core_validation_boundary -->
<g id="edge9" class="edge">
<title>external_desktop_api&#45;&gt;mediapipeline_core_validation_boundary</title>
<path fill="none" stroke="#64748b" stroke-width="1.05" stroke-dasharray="5,2" d="M40.16,-186.31C45.85,-231.52 66.57,-349.65 132.59,-417 135.2,-419.66 138.07,-422.1 141.14,-424.32"/>
<polygon fill="#64748b" stroke="#64748b" stroke-width="1.05" points="139.64,-426.06 146.32,-427.73 142.14,-422.26 139.64,-426.06"/>
<text xml:space="preserve" text-anchor="middle" x="104.71" y="-387.74" font-family="Segoe UI" font-size="9.00" fill="#475569">1</text>
</g>
<!-- external_desktop_api&#45;&gt;mediapipeline_core_validation_strict_json -->
<g id="edge10" class="edge">
<title>external_desktop_api&#45;&gt;mediapipeline_core_validation_strict_json</title>
<path fill="none" stroke="#64748b" stroke-width="1.05" stroke-dasharray="5,2" d="M74.59,-156.86C124.11,-143.83 214.26,-127.88 281.42,-160.25 341.64,-189.27 382.77,-260.86 401.37,-299.42"/>
<polygon fill="#64748b" stroke="#64748b" stroke-width="1.05" points="399.28,-300.32 404.11,-305.23 403.4,-298.38 399.28,-300.32"/>
<text xml:space="preserve" text-anchor="middle" x="208.19" y="-164.45" font-family="Segoe UI" font-size="9.00" fill="#475569">1</text>
</g>
</g>
</svg>
