<?xml version="1.0" encoding="UTF-8" standalone="no"?>
<!DOCTYPE svg PUBLIC "-//W3C//DTD SVG 1.1//EN"
 "http://www.w3.org/Graphics/SVG/1.1/DTD/svg11.dtd">
<!-- Generated by graphviz version 15.0.0 (20260523.1842)
 -->
<!-- Title: G Pages: 1 -->
<svg width="702pt" height="466pt"
 viewBox="0.00 0.00 702.00 466.00" xmlns="http://www.w3.org/2000/svg" xmlns:xlink="http://www.w3.org/1999/xlink">
<g id="graph0" class="graph" transform="scale(1 1) rotate(0) translate(14.4 451.4)">
<title>G</title>
<polygon fill="white" stroke="none" points="-14.4,14.4 -14.4,-451.4 687.82,-451.4 687.82,14.4 -14.4,14.4"/>
<text xml:space="preserve" text-anchor="middle" x="336.71" y="-414" font-family="Segoe UI" font-size="20.00">contracts/config_fields module detail</text>
<g id="clust1" class="cluster">
<title>cluster_focus</title>
<path fill="white" stroke="#93c5fd" stroke-width="1.2" d="M161.46,-175C161.46,-175 430.96,-175 430.96,-175 436.96,-175 442.96,-181 442.96,-187 442.96,-187 442.96,-250 442.96,-250 442.96,-256 436.96,-262 430.96,-262 430.96,-262 161.46,-262 161.46,-262 155.46,-262 149.46,-256 149.46,-250 149.46,-250 149.46,-187 149.46,-187 149.46,-181 155.46,-175 161.46,-175"/>
<text xml:space="preserve" text-anchor="middle" x="296.21" y="-239" font-family="Segoe UI" font-size="20.00">contracts/config_fields modules</text>
</g>
<!-- mediapipeline_contracts_config_fields -->
<g id="node1" class="node">
<title>mediapipeline_contracts_config_fields</title>
<path fill="#eff6ff" stroke="#334155" stroke-width="1.1" d="M330.32,-219C330.32,-219 261.11,-219 261.11,-219 255.11,-219 249.11,-213 249.11,-207 249.11,-207 249.11,-195 249.11,-195 249.11,-189 255.11,-183 261.11,-183 261.11,-183 330.32,-183 330.32,-183 336.32,-183 342.32,-189 342.32,-195 342.32,-195 342.32,-207 342.32,-207 342.32,-213 336.32,-219 330.32,-219"/>
<text xml:space="preserve" text-anchor="middle" x="295.71" y="-198.22" font-family="Segoe UI" font-size="12.00" fill="#111827">config_fields.py</text>
</g>
<!-- external_contracts_config_coercion -->
<g id="node3" class="node">
<title>external_contracts_config_coercion</title>
<path fill="#f0fdf4" stroke="#64748b" stroke-width="1.1" stroke-dasharray="5,2" d="M645.67,-402C645.67,-402 523.21,-402 523.21,-402 517.21,-402 511.21,-396 511.21,-390 511.21,-390 511.21,-378 511.21,-378 511.21,-372 517.21,-366 523.21,-366 523.21,-366 645.67,-366 645.67,-366 651.67,-366 657.67,-372 657.67,-378 657.67,-378 657.67,-390 657.67,-390 657.67,-396 651.67,-402 645.67,-402"/>
<text xml:space="preserve" text-anchor="middle" x="584.44" y="-381.23" font-family="Segoe UI" font-size="12.00" fill="#111827">contracts/config_coercion</text>
</g>
<!-- mediapipeline_contracts_config_fields&#45;&gt;external_contracts_config_coercion -->
<g id="edge1" class="edge">
<title>mediapipeline_contracts_config_fields&#45;&gt;external_contracts_config_coercion</title>
<path fill="none" stroke="#9333ea" stroke-width="1.05" d="M316.06,-219.46C349.95,-250.93 423.32,-315.3 495.46,-354 501.18,-357.07 507.28,-359.92 513.5,-362.53"/>
<polygon fill="#9333ea" stroke="#9333ea" stroke-width="1.05" points="512.48,-364.58 519.36,-364.9 514.18,-360.36 512.48,-364.58"/>
<text xml:space="preserve" text-anchor="middle" x="465.21" y="-341.11" font-family="Segoe UI" font-size="9.00" fill="#7e22ce">1</text>
</g>
<!-- external_contracts_config_defaults -->
<g id="node4" class="node">
<title>external_contracts_config_defaults</title>
<path fill="#f0fdf4" stroke="#64748b" stroke-width="1.1" stroke-dasharray="5,2" d="M644.17,-341C644.17,-341 524.71,-341 524.71,-341 518.71,-341 512.71,-335 512.71,-329 512.71,-329 512.71,-317 512.71,-317 512.71,-311 518.71,-305 524.71,-305 524.71,-305 644.17,-305 644.17,-305 650.17,-305 656.17,-311 656.17,-317 656.17,-317 656.17,-329 656.17,-329 656.17,-335 650.17,-341 644.17,-341"/>
<text xml:space="preserve" text-anchor="middle" x="584.44" y="-320.23" font-family="Segoe UI" font-size="12.00" fill="#111827">contracts/config_defaults</text>
</g>
<!-- mediapipeline_contracts_config_fields&#45;&gt;external_contracts_config_defaults -->
<g id="edge2" class="edge">
<title>mediapipeline_contracts_config_fields&#45;&gt;external_contracts_config_defaults</title>
<path fill="none" stroke="#9333ea" stroke-width="1.05" d="M333.56,-219.48C373.08,-238.95 437.93,-269.95 495.46,-293 503.03,-296.03 511.04,-299.04 519.02,-301.91"/>
<polygon fill="#9333ea" stroke="#9333ea" stroke-width="1.05" points="517.94,-303.94 524.83,-303.97 519.46,-299.65 517.94,-303.94"/>
<text xml:space="preserve" text-anchor="middle" x="465.21" y="-284.64" font-family="Segoe UI" font-size="9.00" fill="#7e22ce">1</text>
</g>
<!-- external_contracts_config_schema_extras -->
<g id="node5" class="node">
<title>external_contracts_config_schema_extras</title>
<path fill="#f0fdf4" stroke="#64748b" stroke-width="1.1" stroke-dasharray="5,2" d="M661.42,-280C661.42,-280 507.46,-280 507.46,-280 501.46,-280 495.46,-274 495.46,-268 495.46,-268 495.46,-256 495.46,-256 495.46,-250 501.46,-244 507.46,-244 507.46,-244 661.42,-244 661.42,-244 667.42,-244 673.42,-250 673.42,-256 673.42,-256 673.42,-268 673.42,-268 673.42,-274 667.42,-280 661.42,-280"/>
<text xml:space="preserve" text-anchor="middle" x="584.44" y="-259.23" font-family="Segoe UI" font-size="12.00" fill="#111827">contracts/config_schema_extras</text>
</g>
<!-- mediapipeline_contracts_config_fields&#45;&gt;external_contracts_config_schema_extras -->
<g id="edge3" class="edge">
<title>mediapipeline_contracts_config_fields&#45;&gt;external_contracts_config_schema_extras</title>
<path fill="none" stroke="#9333ea" stroke-width="1.05" d="M342.78,-210.8C382,-219.14 439.61,-231.4 488.63,-241.83"/>
<polygon fill="#9333ea" stroke="#9333ea" stroke-width="1.05" points="488.04,-244.03 494.87,-243.16 488.98,-239.58 488.04,-244.03"/>
<text xml:space="preserve" text-anchor="middle" x="465.21" y="-241.16" font-family="Segoe UI" font-size="9.00" fill="#7e22ce">1</text>
</g>
<!-- external_contracts_config_validators -->
<g id="node6" class="node">
<title>external_contracts_config_validators</title>
<path fill="#f0fdf4" stroke="#64748b" stroke-width="1.1" stroke-dasharray="5,2" d="M649.05,-219C649.05,-219 519.84,-219 519.84,-219 513.84,-219 507.84,-213 507.84,-207 507.84,-207 507.84,-195 507.84,-195 507.84,-189 513.84,-183 519.84,-183 519.84,-183 649.05,-183 649.05,-183 655.05,-183 661.05,-189 661.05,-195 661.05,-195 661.05,-207 661.05,-207 661.05,-213 655.05,-219 649.05,-219"/>
<text xml:space="preserve" text-anchor="middle" x="584.44" y="-198.22" font-family="Segoe UI" font-size="12.00" fill="#111827">contracts/config_validators</text>
</g>
<!-- mediapipeline_contracts_config_fields&#45;&gt;external_contracts_config_validators -->
<g id="edge4" class="edge">
<title>mediapipeline_contracts_config_fields&#45;&gt;external_contracts_config_validators</title>
<path fill="none" stroke="#9333ea" stroke-width="1.05" d="M342.78,-201C385.01,-201 448.58,-201 499.78,-201"/>
<polygon fill="#9333ea" stroke="#9333ea" stroke-width="1.05" points="499.48,-203.28 505.98,-201 499.48,-198.73 499.48,-203.28"/>
<text xml:space="preserve" text-anchor="middle" x="465.21" y="-205.2" font-family="Segoe UI" font-size="9.00" fill="#7e22ce">1</text>
</g>
<!-- external_contracts_height_tolerance -->
<g id="node7" class="node">
<title>external_contracts_height_tolerance</title>
<path fill="#f0fdf4" stroke="#64748b" stroke-width="1.1" stroke-dasharray="5,2" d="M647.92,-158C647.92,-158 520.96,-158 520.96,-158 514.96,-158 508.96,-152 508.96,-146 508.96,-146 508.96,-134 508.96,-134 508.96,-128 514.96,-122 520.96,-122 520.96,-122 647.92,-122 647.92,-122 653.92,-122 659.92,-128 659.92,-134 659.92,-134 659.92,-146 659.92,-146 659.92,-152 653.92,-158 647.92,-158"/>
<text xml:space="preserve" text-anchor="middle" x="584.44" y="-137.22" font-family="Segoe UI" font-size="12.00" fill="#111827">contracts/height_tolerance</text>
</g>
<!-- mediapipeline_contracts_config_fields&#45;&gt;external_contracts_height_tolerance -->
<g id="edge5" class="edge">
<title>mediapipeline_contracts_config_fields&#45;&gt;external_contracts_height_tolerance</title>
<path fill="none" stroke="#9333ea" stroke-width="1.05" d="M342.78,-191.2C385.32,-182.15 449.49,-168.5 500.88,-157.57"/>
<polygon fill="#9333ea" stroke="#9333ea" stroke-width="1.05" points="501.24,-159.81 507.13,-156.23 500.3,-155.36 501.24,-159.81"/>
<text xml:space="preserve" text-anchor="middle" x="465.21" y="-169.24" font-family="Segoe UI" font-size="9.00" fill="#7e22ce">1</text>
</g>
<!-- external_core_rename -->
<g id="node8" class="node">
<title>external_core_rename</title>
<path fill="#f8fafc" stroke="#64748b" stroke-width="1.1" stroke-dasharray="5,2" d="M612.3,-97C612.3,-97 556.59,-97 556.59,-97 550.59,-97 544.59,-91 544.59,-85 544.59,-85 544.59,-73 544.59,-73 544.59,-67 550.59,-61 556.59,-61 556.59,-61 612.3,-61 612.3,-61 618.3,-61 624.3,-67 624.3,-73 624.3,-73 624.3,-85 624.3,-85 624.3,-91 618.3,-97 612.3,-97"/>
<text xml:space="preserve" text-anchor="middle" x="584.44" y="-76.22" font-family="Segoe UI" font-size="12.00" fill="#111827">core/rename</text>
</g>
<!-- mediapipeline_contracts_config_fields&#45;&gt;external_core_rename -->
<g id="edge6" class="edge">
<title>mediapipeline_contracts_config_fields&#45;&gt;external_core_rename</title>
<path fill="none" stroke="#9333ea" stroke-width="1.05" d="M333.56,-182.52C373.08,-163.05 437.93,-132.05 495.46,-109 508.73,-103.68 523.35,-98.45 536.8,-93.89"/>
<polygon fill="#9333ea" stroke="#9333ea" stroke-width="1.05" points="537.2,-96.15 542.63,-91.93 535.75,-91.84 537.2,-96.15"/>
<text xml:space="preserve" text-anchor="middle" x="465.21" y="-125.76" font-family="Segoe UI" font-size="9.00" fill="#7e22ce">3</text>
</g>
<!-- external_core_validation -->
<g id="node9" class="node">
<title>external_core_validation</title>
<path fill="#f8fafc" stroke="#64748b" stroke-width="1.1" stroke-dasharray="5,2" d="M617.92,-36C617.92,-36 550.96,-36 550.96,-36 544.96,-36 538.96,-30 538.96,-24 538.96,-24 538.96,-12 538.96,-12 538.96,-6 544.96,0 550.96,0 550.96,0 617.92,0 617.92,0 623.92,0 629.92,-6 629.92,-12 629.92,-12 629.92,-24 629.92,-24 629.92,-30 623.92,-36 617.92,-36"/>
<text xml:space="preserve" text-anchor="middle" x="584.44" y="-15.22" font-family="Segoe UI" font-size="12.00" fill="#111827">core/validation</text>
</g>
<!-- mediapipeline_contracts_config_fields&#45;&gt;external_core_validation -->
<g id="edge7" class="edge">
<title>mediapipeline_contracts_config_fields&#45;&gt;external_core_validation</title>
<path fill="none" stroke="#9333ea" stroke-width="1.05" d="M316.06,-182.54C349.95,-151.07 423.32,-86.7 495.46,-48 506.65,-42 519.27,-36.85 531.38,-32.6"/>
<polygon fill="#9333ea" stroke="#9333ea" stroke-width="1.05" points="531.92,-34.83 537.34,-30.58 530.45,-30.52 531.92,-34.83"/>
<text xml:space="preserve" text-anchor="middle" x="465.21" y="-69.29" font-family="Segoe UI" font-size="9.00" fill="#7e22ce">1</text>
</g>
<!-- external_contracts_config -->
<g id="node2" class="node">
<title>external_contracts_config</title>
<path fill="#f0fdf4" stroke="#64748b" stroke-width="1.1" stroke-dasharray="5,2" d="M84.96,-219C84.96,-219 12,-219 12,-219 6,-219 0,-213 0,-207 0,-207 0,-195 0,-195 0,-189 6,-183 12,-183 12,-183 84.96,-183 84.96,-183 90.96,-183 96.96,-189 96.96,-195 96.96,-195 96.96,-207 96.96,-207 96.96,-213 90.96,-219 84.96,-219"/>
<text xml:space="preserve" text-anchor="middle" x="48.48" y="-198.22" font-family="Segoe UI" font-size="12.00" fill="#111827">contracts/config</text>
</g>
<!-- external_contracts_config&#45;&gt;mediapipeline_contracts_config_fields -->
<g id="edge8" class="edge">
<title>external_contracts_config&#45;&gt;mediapipeline_contracts_config_fields</title>
<path fill="none" stroke="#64748b" stroke-width="1.05" stroke-dasharray="5,2" d="M97.34,-201C138.46,-201 197.72,-201 240.56,-201"/>
<polygon fill="#64748b" stroke="#64748b" stroke-width="1.05" points="240.54,-203.28 247.04,-201 240.54,-198.73 240.54,-203.28"/>
<text xml:space="preserve" text-anchor="middle" x="127.21" y="-205.2" font-family="Segoe UI" font-size="9.00" fill="#475569">1</text>
</g>
</g>
</svg>
