<?xml version="1.0" encoding="UTF-8" standalone="no"?>
<!DOCTYPE svg PUBLIC "-//W3C//DTD SVG 1.1//EN"
 "http://www.w3.org/Graphics/SVG/1.1/DTD/svg11.dtd">
<!-- Generated by graphviz version 15.0.0 (20260523.1842)
 -->
<!-- Title: G Pages: 1 -->
<svg width="628pt" height="167pt"
 viewBox="0.00 0.00 628.00 167.00" xmlns="http://www.w3.org/2000/svg" xmlns:xlink="http://www.w3.org/1999/xlink">
<g id="graph0" class="graph" transform="scale(1 1) rotate(0) translate(14.4 152.4)">
<title>G</title>
<polygon fill="white" stroke="none" points="-14.4,14.4 -14.4,-152.4 613.57,-152.4 613.57,14.4 -14.4,14.4"/>
<text xml:space="preserve" text-anchor="middle" x="299.58" y="-115" font-family="Segoe UI" font-size="20.00">contracts/config_defaults module detail</text>
<g id="clust1" class="cluster">
<title>cluster_focus</title>
<path fill="white" stroke="#93c5fd" stroke-width="1.2" d="M161.46,-8C161.46,-8 454.96,-8 454.96,-8 460.96,-8 466.96,-14 466.96,-20 466.96,-20 466.96,-83 466.96,-83 466.96,-89 460.96,-95 454.96,-95 454.96,-95 161.46,-95 161.46,-95 155.46,-95 149.46,-89 149.46,-83 149.46,-83 149.46,-20 149.46,-20 149.46,-14 155.46,-8 161.46,-8"/>
<text xml:space="preserve" text-anchor="middle" x="308.21" y="-72" font-family="Segoe UI" font-size="20.00">contracts/config_defaults modules</text>
</g>
<!-- mediapipeline_contracts_config_defaults -->
<g id="node1" class="node">
<title>mediapipeline_contracts_config_defaults</title>
<path fill="#eff6ff" stroke="#334155" stroke-width="1.1" d="M349.06,-52C349.06,-52 266.36,-52 266.36,-52 260.36,-52 254.35,-46 254.35,-40 254.35,-40 254.35,-28 254.35,-28 254.35,-22 260.36,-16 266.36,-16 266.36,-16 349.06,-16 349.06,-16 355.06,-16 361.06,-22 361.06,-28 361.06,-28 361.06,-40 361.06,-40 361.06,-46 355.06,-52 349.06,-52"/>
<text xml:space="preserve" text-anchor="middle" x="307.71" y="-31.23" font-family="Segoe UI" font-size="12.00" fill="#111827">config_defaults.py</text>
</g>
<!-- external_core_rename -->
<g id="node3" class="node">
<title>external_core_rename</title>
<path fill="#f8fafc" stroke="#64748b" stroke-width="1.1" stroke-dasharray="5,2" d="M587.17,-52C587.17,-52 531.46,-52 531.46,-52 525.46,-52 519.46,-46 519.46,-40 519.46,-40 519.46,-28 519.46,-28 519.46,-22 525.46,-16 531.46,-16 531.46,-16 587.17,-16 587.17,-16 593.17,-16 599.17,-22 599.17,-28 599.17,-28 599.17,-40 599.17,-40 599.17,-46 593.17,-52 587.17,-52"/>
<text xml:space="preserve" text-anchor="middle" x="559.31" y="-31.23" font-family="Segoe UI" font-size="12.00" fill="#111827">core/rename</text>
</g>
<!-- mediapipeline_contracts_config_defaults&#45;&gt;external_core_rename -->
<g id="edge1" class="edge">
<title>mediapipeline_contracts_config_defaults&#45;&gt;external_core_rename</title>
<path fill="none" stroke="#9333ea" stroke-width="1.05" d="M361.34,-34C405.68,-34 468.54,-34 511.24,-34"/>
<polygon fill="#9333ea" stroke="#9333ea" stroke-width="1.05" points="511.14,-36.28 517.64,-34 511.14,-31.73 511.14,-36.28"/>
<text xml:space="preserve" text-anchor="middle" x="489.21" y="-38.2" font-family="Segoe UI" font-size="9.00" fill="#7e22ce">1</text>
</g>
<!-- external_contracts_config -->
<g id="node2" class="node">
<title>external_contracts_config</title>
<path fill="#f0fdf4" stroke="#64748b" stroke-width="1.1" stroke-dasharray="5,2" d="M84.96,-52C84.96,-52 12,-52 12,-52 6,-52 0,-46 0,-40 0,-40 0,-28 0,-28 0,-22 6,-16 12,-16 12,-16 84.96,-16 84.96,-16 90.96,-16 96.96,-22 96.96,-28 96.96,-28 96.96,-40 96.96,-40 96.96,-46 90.96,-52 84.96,-52"/>
<text xml:space="preserve" text-anchor="middle" x="48.48" y="-31.23" font-family="Segoe UI" font-size="12.00" fill="#111827">contracts/config</text>
</g>
<!-- external_contracts_config&#45;&gt;mediapipeline_contracts_config_defaults -->
<g id="edge2" class="edge">
<title>external_contracts_config&#45;&gt;mediapipeline_contracts_config_defaults</title>
<path fill="none" stroke="#64748b" stroke-width="1.05" stroke-dasharray="5,2" d="M97.26,-34C139.2,-34 200.43,-34 245.86,-34"/>
<polygon fill="#64748b" stroke="#64748b" stroke-width="1.05" points="245.78,-36.28 252.28,-34 245.78,-31.73 245.78,-36.28"/>
<text xml:space="preserve" text-anchor="middle" x="127.21" y="-38.2" font-family="Segoe UI" font-size="9.00" fill="#475569">1</text>
</g>
</g>
</svg>
