<?xml version="1.0" encoding="UTF-8" standalone="no"?>
<!DOCTYPE svg PUBLIC "-//W3C//DTD SVG 1.1//EN"
 "http://www.w3.org/Graphics/SVG/1.1/DTD/svg11.dtd">
<!-- Generated by graphviz version 15.0.0 (20260523.1842)
 -->
<!-- Title: G Pages: 1 -->
<svg width="679pt" height="167pt"
 viewBox="0.00 0.00 679.00 167.00" xmlns="http://www.w3.org/2000/svg" xmlns:xlink="http://www.w3.org/1999/xlink">
<g id="graph0" class="graph" transform="scale(1 1) rotate(0) translate(14.4 152.4)">
<title>G</title>
<polygon fill="white" stroke="none" points="-14.4,14.4 -14.4,-152.4 664.57,-152.4 664.57,14.4 -14.4,14.4"/>
<text xml:space="preserve" text-anchor="middle" x="325.08" y="-115" font-family="Segoe UI" font-size="20.00">contracts/api_commands module detail</text>
<g id="clust1" class="cluster">
<title>cluster_focus</title>
<path fill="white" stroke="#93c5fd" stroke-width="1.2" d="M155.46,-8C155.46,-8 448.96,-8 448.96,-8 454.96,-8 460.96,-14 460.96,-20 460.96,-20 460.96,-83 460.96,-83 460.96,-89 454.96,-95 448.96,-95 448.96,-95 155.46,-95 155.46,-95 149.46,-95 143.46,-89 143.46,-83 143.46,-83 143.46,-20 143.46,-20 143.46,-14 149.46,-8 155.46,-8"/>
<text xml:space="preserve" text-anchor="middle" x="302.21" y="-72" font-family="Segoe UI" font-size="20.00">contracts/api_commands modules</text>
</g>
<!-- mediapipeline_contracts_api_commands -->
<g id="node1" class="node">
<title>mediapipeline_contracts_api_commands</title>
<path fill="#eff6ff" stroke="#334155" stroke-width="1.1" d="M343.06,-52C343.06,-52 260.35,-52 260.35,-52 254.35,-52 248.35,-46 248.35,-40 248.35,-40 248.35,-28 248.35,-28 248.35,-22 254.35,-16 260.35,-16 260.35,-16 343.06,-16 343.06,-16 349.06,-16 355.06,-22 355.06,-28 355.06,-28 355.06,-40 355.06,-40 355.06,-46 349.06,-52 343.06,-52"/>
<text xml:space="preserve" text-anchor="middle" x="301.71" y="-31.23" font-family="Segoe UI" font-size="12.00" fill="#111827">api_commands.py</text>
</g>
<!-- external_contracts_source_media -->
<g id="node2" class="node">
<title>external_contracts_source_media</title>
<path fill="#f0fdf4" stroke="#64748b" stroke-width="1.1" stroke-dasharray="5,2" d="M638.17,-52C638.17,-52 525.46,-52 525.46,-52 519.46,-52 513.46,-46 513.46,-40 513.46,-40 513.46,-28 513.46,-28 513.46,-22 519.46,-16 525.46,-16 525.46,-16 638.17,-16 638.17,-16 644.17,-16 650.17,-22 650.17,-28 650.17,-28 650.17,-40 650.17,-40 650.17,-46 644.17,-52 638.17,-52"/>
<text xml:space="preserve" text-anchor="middle" x="581.81" y="-31.23" font-family="Segoe UI" font-size="12.00" fill="#111827">contracts/source_media</text>
</g>
<!-- mediapipeline_contracts_api_commands&#45;&gt;external_contracts_source_media -->
<g id="edge1" class="edge">
<title>mediapipeline_contracts_api_commands&#45;&gt;external_contracts_source_media</title>
<path fill="none" stroke="#9333ea" stroke-width="1.05" d="M355.35,-34C397.71,-34 457.8,-34 505.3,-34"/>
<polygon fill="#9333ea" stroke="#9333ea" stroke-width="1.05" points="505.02,-36.28 511.52,-34 505.02,-31.73 505.02,-36.28"/>
<text xml:space="preserve" text-anchor="middle" x="483.21" y="-38.2" font-family="Segoe UI" font-size="9.00" fill="#7e22ce">1</text>
</g>
<!-- external_core_validation -->
<g id="node3" class="node">
<title>external_core_validation</title>
<path fill="#f8fafc" stroke="#64748b" stroke-width="1.1" stroke-dasharray="5,2" d="M78.96,-52C78.96,-52 12,-52 12,-52 6,-52 0,-46 0,-40 0,-40 0,-28 0,-28 0,-22 6,-16 12,-16 12,-16 78.96,-16 78.96,-16 84.96,-16 90.96,-22 90.96,-28 90.96,-28 90.96,-40 90.96,-40 90.96,-46 84.96,-52 78.96,-52"/>
<text xml:space="preserve" text-anchor="middle" x="45.48" y="-31.23" font-family="Segoe UI" font-size="12.00" fill="#111827">core/validation</text>
</g>
<!-- external_core_validation&#45;&gt;mediapipeline_contracts_api_commands -->
<g id="edge2" class="edge">
<title>external_core_validation&#45;&gt;mediapipeline_contracts_api_commands</title>
<path fill="none" stroke="#64748b" stroke-width="1.05" stroke-dasharray="5,2" d="M91.35,-34C132.63,-34 194.2,-34 239.89,-34"/>
<polygon fill="#64748b" stroke="#64748b" stroke-width="1.05" points="239.85,-36.28 246.35,-34 239.85,-31.73 239.85,-36.28"/>
<text xml:space="preserve" text-anchor="middle" x="121.21" y="-38.2" font-family="Segoe UI" font-size="9.00" fill="#475569">1</text>
</g>
</g>
</svg>
