<?xml version="1.0" encoding="UTF-8" standalone="no"?>
<!DOCTYPE svg PUBLIC "-//W3C//DTD SVG 1.1//EN"
 "http://www.w3.org/Graphics/SVG/1.1/DTD/svg11.dtd">
<!-- Generated by graphviz version 15.0.0 (20260523.1842)
 -->
<!-- Title: G Pages: 1 -->
<svg width="553pt" height="716pt"
 viewBox="0.00 0.00 553.00 716.00" xmlns="http://www.w3.org/2000/svg" xmlns:xlink="http://www.w3.org/1999/xlink">
<g id="graph0" class="graph" transform="scale(1 1) rotate(0) translate(14.4 701.4)">
<title>G</title>
<polygon fill="white" stroke="none" points="-14.4,14.4 -14.4,-701.4 538.57,-701.4 538.57,14.4 -14.4,14.4"/>
<text xml:space="preserve" text-anchor="middle" x="262.08" y="-664" font-family="Segoe UI" font-size="20.00">desktop/contracts module detail</text>
<g id="clust1" class="cluster">
<title>cluster_focus</title>
<path fill="white" stroke="#93c5fd" stroke-width="1.2" d="M155.46,-8C155.46,-8 387.46,-8 387.46,-8 393.46,-8 399.46,-14 399.46,-20 399.46,-20 399.46,-632 399.46,-632 399.46,-638 393.46,-644 387.46,-644 387.46,-644 155.46,-644 155.46,-644 149.46,-644 143.46,-638 143.46,-632 143.46,-632 143.46,-20 143.46,-20 143.46,-14 149.46,-8 155.46,-8"/>
<text xml:space="preserve" text-anchor="middle" x="271.46" y="-621" font-family="Segoe UI" font-size="20.00">desktop/contracts modules</text>
</g>
<!-- mediapipeline_desktop_contracts -->
<g id="node1" class="node">
<title>mediapipeline_desktop_contracts</title>
<path fill="#eff6ff" stroke="#334155" stroke-width="1.1" d="M317.56,-540C317.56,-540 224.35,-540 224.35,-540 218.35,-540 212.35,-534 212.35,-528 212.35,-528 212.35,-516 212.35,-516 212.35,-510 218.35,-504 224.35,-504 224.35,-504 317.56,-504 317.56,-504 323.56,-504 329.56,-510 329.56,-516 329.56,-516 329.56,-528 329.56,-528 329.56,-534 323.56,-540 317.56,-540"/>
<text xml:space="preserve" text-anchor="middle" x="270.96" y="-519.23" font-family="Segoe UI" font-size="12.00" fill="#111827">contracts/__init__.py</text>
</g>
<!-- external_core_kernel -->
<g id="node11" class="node">
<title>external_core_kernel</title>
<path fill="#f8fafc" stroke="#64748b" stroke-width="1.1" stroke-dasharray="5,2" d="M512.17,-326C512.17,-326 463.96,-326 463.96,-326 457.96,-326 451.96,-320 451.96,-314 451.96,-314 451.96,-302 451.96,-302 451.96,-296 457.96,-290 463.96,-290 463.96,-290 512.17,-290 512.17,-290 518.17,-290 524.17,-296 524.17,-302 524.17,-302 524.17,-314 524.17,-314 524.17,-320 518.17,-326 512.17,-326"/>
<text xml:space="preserve" text-anchor="middle" x="488.06" y="-305.23" font-family="Segoe UI" font-size="12.00" fill="#111827">core/kernel</text>
</g>
<!-- mediapipeline_desktop_contracts&#45;&gt;external_core_kernel -->
<g id="edge1" class="edge">
<title>mediapipeline_desktop_contracts&#45;&gt;external_core_kernel</title>
<path fill="none" stroke="#9333ea" stroke-width="1.05" d="M330.07,-519.18C353.71,-515.45 379.99,-507.7 399.46,-492 449.96,-451.27 473.06,-374.49 482.11,-334.19"/>
<polygon fill="#9333ea" stroke="#9333ea" stroke-width="1.05" points="484.3,-334.8 483.44,-327.96 479.85,-333.84 484.3,-334.8"/>
<text xml:space="preserve" text-anchor="middle" x="421.71" y="-473.03" font-family="Segoe UI" font-size="9.00" fill="#7e22ce">1</text>
</g>
<!-- mediapipeline_desktop_contracts_active_job -->
<g id="node2" class="node">
<title>mediapipeline_desktop_contracts_active_job</title>
<path fill="#eff6ff" stroke="#334155" stroke-width="1.1" d="M324.69,-601C324.69,-601 217.23,-601 217.23,-601 211.23,-601 205.23,-595 205.23,-589 205.23,-589 205.23,-577 205.23,-577 205.23,-571 211.23,-565 217.23,-565 217.23,-565 324.69,-565 324.69,-565 330.69,-565 336.69,-571 336.69,-577 336.69,-577 336.69,-589 336.69,-589 336.69,-595 330.69,-601 324.69,-601"/>
<text xml:space="preserve" text-anchor="middle" x="270.96" y="-580.23" font-family="Segoe UI" font-size="12.00" fill="#111827">contracts/active_job.py</text>
</g>
<!-- mediapipeline_desktop_contracts_active_job&#45;&gt;external_core_kernel -->
<g id="edge2" class="edge">
<title>mediapipeline_desktop_contracts_active_job&#45;&gt;external_core_kernel</title>
<path fill="none" stroke="#9333ea" stroke-width="1.05" d="M336.93,-579.93C358.95,-575.95 382.29,-568.08 399.46,-553 465.21,-495.25 481.61,-384.61 485.71,-334.2"/>
<polygon fill="#9333ea" stroke="#9333ea" stroke-width="1.05" points="487.96,-334.59 486.17,-327.94 483.42,-334.26 487.96,-334.59"/>
<text xml:space="preserve" text-anchor="middle" x="421.71" y="-531.8" font-family="Segoe UI" font-size="9.00" fill="#7e22ce">1</text>
</g>
<!-- mediapipeline_desktop_contracts_base -->
<g id="node3" class="node">
<title>mediapipeline_desktop_contracts_base</title>
<path fill="#eff6ff" stroke="#334155" stroke-width="1.1" d="M310.81,-479C310.81,-479 231.1,-479 231.1,-479 225.1,-479 219.1,-473 219.1,-467 219.1,-467 219.1,-455 219.1,-455 219.1,-449 225.1,-443 231.1,-443 231.1,-443 310.81,-443 310.81,-443 316.81,-443 322.81,-449 322.81,-455 322.81,-455 322.81,-467 322.81,-467 322.81,-473 316.81,-479 310.81,-479"/>
<text xml:space="preserve" text-anchor="middle" x="270.96" y="-458.23" font-family="Segoe UI" font-size="12.00" fill="#111827">contracts/base.py</text>
</g>
<!-- mediapipeline_desktop_contracts_base&#45;&gt;external_core_kernel -->
<g id="edge3" class="edge">
<title>mediapipeline_desktop_contracts_base&#45;&gt;external_core_kernel</title>
<path fill="none" stroke="#9333ea" stroke-width="1.05" d="M323.12,-457.38C347.87,-453.63 377,-446.09 399.46,-431 435.82,-406.58 462.03,-361.64 475.86,-333.37"/>
<polygon fill="#9333ea" stroke="#9333ea" stroke-width="1.05" points="477.84,-334.5 478.58,-327.66 473.73,-332.55 477.84,-334.5"/>
<text xml:space="preserve" text-anchor="middle" x="421.71" y="-417.02" font-family="Segoe UI" font-size="9.00" fill="#7e22ce">1</text>
</g>
<!-- mediapipeline_desktop_contracts_completed_job -->
<g id="node4" class="node">
<title>mediapipeline_desktop_contracts_completed_job</title>
<path fill="#eff6ff" stroke="#334155" stroke-width="1.1" d="M337.06,-418C337.06,-418 204.85,-418 204.85,-418 198.85,-418 192.85,-412 192.85,-406 192.85,-406 192.85,-394 192.85,-394 192.85,-388 198.85,-382 204.85,-382 204.85,-382 337.06,-382 337.06,-382 343.06,-382 349.06,-388 349.06,-394 349.06,-394 349.06,-406 349.06,-406 349.06,-412 343.06,-418 337.06,-418"/>
<text xml:space="preserve" text-anchor="middle" x="270.96" y="-397.23" font-family="Segoe UI" font-size="12.00" fill="#111827">contracts/completed_job.py</text>
</g>
<!-- mediapipeline_desktop_contracts_completed_job&#45;&gt;external_core_kernel -->
<g id="edge4" class="edge">
<title>mediapipeline_desktop_contracts_completed_job&#45;&gt;external_core_kernel</title>
<path fill="none" stroke="#9333ea" stroke-width="1.05" d="M349.39,-386.81C366.3,-382.56 383.81,-377.06 399.46,-370 421.35,-360.13 443.41,-344.48 459.91,-331.38"/>
<polygon fill="#9333ea" stroke="#9333ea" stroke-width="1.05" points="461.32,-333.17 464.94,-327.31 458.46,-329.63 461.32,-333.17"/>
<text xml:space="preserve" text-anchor="middle" x="421.71" y="-363.31" font-family="Segoe UI" font-size="9.00" fill="#7e22ce">1</text>
</g>
<!-- mediapipeline_desktop_contracts_control_flag -->
<g id="node5" class="node">
<title>mediapipeline_desktop_contracts_control_flag</title>
<path fill="#eff6ff" stroke="#334155" stroke-width="1.1" d="M329.56,-357C329.56,-357 212.35,-357 212.35,-357 206.35,-357 200.35,-351 200.35,-345 200.35,-345 200.35,-333 200.35,-333 200.35,-327 206.35,-321 212.35,-321 212.35,-321 329.56,-321 329.56,-321 335.56,-321 341.56,-327 341.56,-333 341.56,-333 341.56,-345 341.56,-345 341.56,-351 335.56,-357 329.56,-357"/>
<text xml:space="preserve" text-anchor="middle" x="270.96" y="-336.23" font-family="Segoe UI" font-size="12.00" fill="#111827">contracts/control_flag.py</text>
</g>
<!-- mediapipeline_desktop_contracts_control_flag&#45;&gt;external_core_kernel -->
<g id="edge5" class="edge">
<title>mediapipeline_desktop_contracts_control_flag&#45;&gt;external_core_kernel</title>
<path fill="none" stroke="#9333ea" stroke-width="1.05" d="M342.1,-328.89C375.6,-324.06 414.65,-318.44 443.77,-314.24"/>
<polygon fill="#9333ea" stroke="#9333ea" stroke-width="1.05" points="444.02,-316.5 450.13,-313.32 443.37,-312 444.02,-316.5"/>
<text xml:space="preserve" text-anchor="middle" x="421.71" y="-321.36" font-family="Segoe UI" font-size="9.00" fill="#7e22ce">1</text>
</g>
<!-- mediapipeline_desktop_contracts_pending_publish -->
<g id="node6" class="node">
<title>mediapipeline_desktop_contracts_pending_publish</title>
<path fill="#eff6ff" stroke="#334155" stroke-width="1.1" d="M341.94,-296C341.94,-296 199.98,-296 199.98,-296 193.98,-296 187.98,-290 187.98,-284 187.98,-284 187.98,-272 187.98,-272 187.98,-266 193.98,-260 199.98,-260 199.98,-260 341.94,-260 341.94,-260 347.94,-260 353.94,-266 353.94,-272 353.94,-272 353.94,-284 353.94,-284 353.94,-290 347.94,-296 341.94,-296"/>
<text xml:space="preserve" text-anchor="middle" x="270.96" y="-275.23" font-family="Segoe UI" font-size="12.00" fill="#111827">contracts/pending_publish.py</text>
</g>
<!-- mediapipeline_desktop_contracts_pending_publish&#45;&gt;external_core_kernel -->
<g id="edge6" class="edge">
<title>mediapipeline_desktop_contracts_pending_publish&#45;&gt;external_core_kernel</title>
<path fill="none" stroke="#9333ea" stroke-width="1.05" d="M354.38,-281.72C377.04,-283.53 401.55,-286.23 423.96,-290.25 430.48,-291.42 437.3,-292.97 443.95,-294.68"/>
<polygon fill="#9333ea" stroke="#9333ea" stroke-width="1.05" points="443.23,-296.84 450.1,-296.33 444.41,-292.45 443.23,-296.84"/>
<text xml:space="preserve" text-anchor="middle" x="421.71" y="-294.45" font-family="Segoe UI" font-size="9.00" fill="#7e22ce">1</text>
</g>
<!-- mediapipeline_desktop_contracts_pipeline_events -->
<g id="node7" class="node">
<title>mediapipeline_desktop_contracts_pipeline_events</title>
<path fill="#eff6ff" stroke="#334155" stroke-width="1.1" d="M338.94,-235C338.94,-235 202.98,-235 202.98,-235 196.98,-235 190.98,-229 190.98,-223 190.98,-223 190.98,-211 190.98,-211 190.98,-205 196.98,-199 202.98,-199 202.98,-199 338.94,-199 338.94,-199 344.94,-199 350.94,-205 350.94,-211 350.94,-211 350.94,-223 350.94,-223 350.94,-229 344.94,-235 338.94,-235"/>
<text xml:space="preserve" text-anchor="middle" x="270.96" y="-214.22" font-family="Segoe UI" font-size="12.00" fill="#111827">contracts/pipeline_events.py</text>
</g>
<!-- mediapipeline_desktop_contracts_pipeline_events&#45;&gt;external_core_kernel -->
<g id="edge7" class="edge">
<title>mediapipeline_desktop_contracts_pipeline_events&#45;&gt;external_core_kernel</title>
<path fill="none" stroke="#9333ea" stroke-width="1.05" d="M351.32,-231.58C367.61,-235.87 384.38,-241.27 399.46,-248 420.71,-257.48 442.31,-272.2 458.74,-284.69"/>
<polygon fill="#9333ea" stroke="#9333ea" stroke-width="1.05" points="457.21,-286.38 463.74,-288.55 459.99,-282.78 457.21,-286.38"/>
<text xml:space="preserve" text-anchor="middle" x="421.71" y="-264.31" font-family="Segoe UI" font-size="9.00" fill="#7e22ce">1</text>
</g>
<!-- mediapipeline_desktop_contracts_process_result -->
<g id="node8" class="node">
<title>mediapipeline_desktop_contracts_process_result</title>
<path fill="#eff6ff" stroke="#334155" stroke-width="1.1" d="M335.94,-174C335.94,-174 205.98,-174 205.98,-174 199.98,-174 193.98,-168 193.98,-162 193.98,-162 193.98,-150 193.98,-150 193.98,-144 199.98,-138 205.98,-138 205.98,-138 335.94,-138 335.94,-138 341.94,-138 347.94,-144 347.94,-150 347.94,-150 347.94,-162 347.94,-162 347.94,-168 341.94,-174 335.94,-174"/>
<text xml:space="preserve" text-anchor="middle" x="270.96" y="-153.22" font-family="Segoe UI" font-size="12.00" fill="#111827">contracts/process_result.py</text>
</g>
<!-- mediapipeline_desktop_contracts_process_result&#45;&gt;external_core_kernel -->
<g id="edge8" class="edge">
<title>mediapipeline_desktop_contracts_process_result&#45;&gt;external_core_kernel</title>
<path fill="none" stroke="#9333ea" stroke-width="1.05" d="M348.43,-165.4C366.21,-170 384.33,-176.84 399.46,-187 435.23,-211.02 461.47,-254.83 475.49,-282.63"/>
<polygon fill="#9333ea" stroke="#9333ea" stroke-width="1.05" points="473.34,-283.41 478.25,-288.24 477.42,-281.4 473.34,-283.41"/>
<text xml:space="preserve" text-anchor="middle" x="421.71" y="-209.15" font-family="Segoe UI" font-size="9.00" fill="#7e22ce">1</text>
</g>
<!-- mediapipeline_desktop_contracts_progress -->
<g id="node9" class="node">
<title>mediapipeline_desktop_contracts_progress</title>
<path fill="#eff6ff" stroke="#334155" stroke-width="1.1" d="M321.69,-113C321.69,-113 220.23,-113 220.23,-113 214.23,-113 208.23,-107 208.23,-101 208.23,-101 208.23,-89 208.23,-89 208.23,-83 214.23,-77 220.23,-77 220.23,-77 321.69,-77 321.69,-77 327.69,-77 333.69,-83 333.69,-89 333.69,-89 333.69,-101 333.69,-101 333.69,-107 327.69,-113 321.69,-113"/>
<text xml:space="preserve" text-anchor="middle" x="270.96" y="-92.22" font-family="Segoe UI" font-size="12.00" fill="#111827">contracts/progress.py</text>
</g>
<!-- mediapipeline_desktop_contracts_progress&#45;&gt;external_core_kernel -->
<g id="edge9" class="edge">
<title>mediapipeline_desktop_contracts_progress&#45;&gt;external_core_kernel</title>
<path fill="none" stroke="#9333ea" stroke-width="1.05" d="M333.95,-99.05C356.55,-103.19 381.04,-111.1 399.46,-126 449.32,-166.35 472.65,-241.94 481.91,-281.82"/>
<polygon fill="#9333ea" stroke="#9333ea" stroke-width="1.05" points="479.65,-282.13 483.28,-287.98 484.09,-281.15 479.65,-282.13"/>
<text xml:space="preserve" text-anchor="middle" x="421.71" y="-153.18" font-family="Segoe UI" font-size="9.00" fill="#7e22ce">1</text>
</g>
<!-- mediapipeline_desktop_contracts_queue_snapshot -->
<g id="node10" class="node">
<title>mediapipeline_desktop_contracts_queue_snapshot</title>
<path fill="#eff6ff" stroke="#334155" stroke-width="1.1" d="M341.19,-52C341.19,-52 200.73,-52 200.73,-52 194.73,-52 188.73,-46 188.73,-40 188.73,-40 188.73,-28 188.73,-28 188.73,-22 194.73,-16 200.73,-16 200.73,-16 341.19,-16 341.19,-16 347.19,-16 353.19,-22 353.19,-28 353.19,-28 353.19,-40 353.19,-40 353.19,-46 347.19,-52 341.19,-52"/>
<text xml:space="preserve" text-anchor="middle" x="270.96" y="-31.23" font-family="Segoe UI" font-size="12.00" fill="#111827">contracts/queue_snapshot.py</text>
</g>
<!-- mediapipeline_desktop_contracts_queue_snapshot&#45;&gt;external_core_kernel -->
<g id="edge10" class="edge">
<title>mediapipeline_desktop_contracts_queue_snapshot&#45;&gt;external_core_kernel</title>
<path fill="none" stroke="#9333ea" stroke-width="1.05" d="M353.53,-41.49C370.22,-46.22 386.59,-53.59 399.46,-65 464.32,-122.47 481.18,-231.64 485.55,-281.71"/>
<polygon fill="#9333ea" stroke="#9333ea" stroke-width="1.05" points="483.26,-281.62 486.04,-287.92 487.79,-281.26 483.26,-281.62"/>
<text xml:space="preserve" text-anchor="middle" x="421.71" y="-94.5" font-family="Segoe UI" font-size="9.00" fill="#7e22ce">1</text>
</g>
<!-- external_core_processes -->
<g id="node12" class="node">
<title>external_core_processes</title>
<path fill="#f8fafc" stroke="#64748b" stroke-width="1.1" stroke-dasharray="5,2" d="M78.96,-592C78.96,-592 12,-592 12,-592 6,-592 0,-586 0,-580 0,-580 0,-568 0,-568 0,-562 6,-556 12,-556 12,-556 78.96,-556 78.96,-556 84.96,-556 90.96,-562 90.96,-568 90.96,-568 90.96,-580 90.96,-580 90.96,-586 84.96,-592 78.96,-592"/>
<text xml:space="preserve" text-anchor="middle" x="45.48" y="-571.23" font-family="Segoe UI" font-size="12.00" fill="#111827">core/processes</text>
</g>
<!-- external_core_processes&#45;&gt;mediapipeline_desktop_contracts -->
<g id="edge11" class="edge">
<title>external_core_processes&#45;&gt;mediapipeline_desktop_contracts</title>
<path fill="none" stroke="#64748b" stroke-width="1.05" stroke-dasharray="5,2" d="M91.44,-563.54C123.8,-556.01 167.98,-545.73 204.29,-537.28"/>
<polygon fill="#64748b" stroke="#64748b" stroke-width="1.05" points="204.55,-539.56 210.36,-535.87 203.51,-535.13 204.55,-539.56"/>
<text xml:space="preserve" text-anchor="middle" x="121.21" y="-560.64" font-family="Segoe UI" font-size="9.00" fill="#475569">2</text>
</g>
<!-- external_core_processes&#45;&gt;mediapipeline_desktop_contracts_active_job -->
<g id="edge12" class="edge">
<title>external_core_processes&#45;&gt;mediapipeline_desktop_contracts_active_job</title>
<path fill="none" stroke="#64748b" stroke-width="1.05" stroke-dasharray="5,2" d="M91.14,-584.01C100.29,-585.67 109.9,-587.13 118.96,-588 144.29,-590.42 172.1,-590.29 196.88,-589.2"/>
<polygon fill="#64748b" stroke="#64748b" stroke-width="1.05" points="196.84,-591.47 203.22,-588.88 196.62,-586.93 196.84,-591.47"/>
<text xml:space="preserve" text-anchor="middle" x="121.21" y="-592.56" font-family="Segoe UI" font-size="9.00" fill="#475569">1</text>
</g>
<!-- external_core_processes&#45;&gt;mediapipeline_desktop_contracts_control_flag -->
<g id="edge13" class="edge">
<title>external_core_processes&#45;&gt;mediapipeline_desktop_contracts_control_flag</title>
<path fill="none" stroke="#64748b" stroke-width="1.05" stroke-dasharray="5,2" d="M74.1,-555.6C91.17,-542.69 111.95,-523.86 123.46,-502 151.1,-449.5 103.43,-413.8 143.46,-370 156.14,-356.13 173.92,-347.99 192.16,-343.34"/>
<polygon fill="#64748b" stroke="#64748b" stroke-width="1.05" points="192.61,-345.57 198.44,-341.9 191.59,-341.13 192.61,-345.57"/>
<text xml:space="preserve" text-anchor="middle" x="121.21" y="-513.54" font-family="Segoe UI" font-size="9.00" fill="#475569">1</text>
</g>
<!-- external_core_publish -->
<g id="node13" class="node">
<title>external_core_publish</title>
<path fill="#f8fafc" stroke="#64748b" stroke-width="1.1" stroke-dasharray="5,2" d="M72.59,-393C72.59,-393 18.38,-393 18.38,-393 12.38,-393 6.38,-387 6.38,-381 6.38,-381 6.38,-369 6.38,-369 6.38,-363 12.38,-357 18.38,-357 18.38,-357 72.59,-357 72.59,-357 78.59,-357 84.59,-363 84.59,-369 84.59,-369 84.59,-381 84.59,-381 84.59,-387 78.59,-393 72.59,-393"/>
<text xml:space="preserve" text-anchor="middle" x="45.48" y="-372.23" font-family="Segoe UI" font-size="12.00" fill="#111827">core/publish</text>
</g>
<!-- external_core_publish&#45;&gt;mediapipeline_desktop_contracts -->
<g id="edge14" class="edge">
<title>external_core_publish&#45;&gt;mediapipeline_desktop_contracts</title>
<path fill="none" stroke="#64748b" stroke-width="1.05" stroke-dasharray="5,2" d="M75.68,-393.5C80.98,-397.36 86.3,-401.61 90.96,-406 107.94,-422.01 111.38,-427.28 123.46,-447.25 134.73,-465.89 126.68,-478.1 143.46,-492 160.49,-506.1 183.01,-513.81 204.33,-517.94"/>
<polygon fill="#64748b" stroke="#64748b" stroke-width="1.05" points="203.75,-520.15 210.55,-519.03 204.54,-515.67 203.75,-520.15"/>
<text xml:space="preserve" text-anchor="middle" x="121.21" y="-451.45" font-family="Segoe UI" font-size="9.00" fill="#475569">1</text>
</g>
<!-- external_core_queue -->
<g id="node14" class="node">
<title>external_core_queue</title>
<path fill="#f8fafc" stroke="#64748b" stroke-width="1.1" stroke-dasharray="5,2" d="M69.59,-515C69.59,-515 21.38,-515 21.38,-515 15.38,-515 9.38,-509 9.38,-503 9.38,-503 9.38,-491 9.38,-491 9.38,-485 15.38,-479 21.38,-479 21.38,-479 69.59,-479 69.59,-479 75.59,-479 81.59,-485 81.59,-491 81.59,-491 81.59,-503 81.59,-503 81.59,-509 75.59,-515 69.59,-515"/>
<text xml:space="preserve" text-anchor="middle" x="45.48" y="-494.23" font-family="Segoe UI" font-size="12.00" fill="#111827">core/queue</text>
</g>
<!-- external_core_queue&#45;&gt;mediapipeline_desktop_contracts -->
<g id="edge15" class="edge">
<title>external_core_queue&#45;&gt;mediapipeline_desktop_contracts</title>
<path fill="none" stroke="#64748b" stroke-width="1.05" stroke-dasharray="5,2" d="M81.78,-491.29C93.57,-489.64 106.8,-488.06 118.96,-487.25 130.03,-486.51 132.67,-489.44 143.46,-492 163.24,-496.69 184.75,-501.8 204.33,-506.44"/>
<polygon fill="#64748b" stroke="#64748b" stroke-width="1.05" points="203.63,-508.61 210.48,-507.9 204.68,-504.18 203.63,-508.61"/>
<text xml:space="preserve" text-anchor="middle" x="121.21" y="-491.45" font-family="Segoe UI" font-size="9.00" fill="#475569">1</text>
</g>
<!-- external_core_status -->
<g id="node15" class="node">
<title>external_core_status</title>
<path fill="#f8fafc" stroke="#64748b" stroke-width="1.1" stroke-dasharray="5,2" d="M68.84,-454C68.84,-454 22.13,-454 22.13,-454 16.13,-454 10.13,-448 10.13,-442 10.13,-442 10.13,-430 10.13,-430 10.13,-424 16.13,-418 22.13,-418 22.13,-418 68.84,-418 68.84,-418 74.84,-418 80.84,-424 80.84,-430 80.84,-430 80.84,-442 80.84,-442 80.84,-448 74.84,-454 68.84,-454"/>
<text xml:space="preserve" text-anchor="middle" x="45.48" y="-433.23" font-family="Segoe UI" font-size="12.00" fill="#111827">core/status</text>
</g>
<!-- external_core_status&#45;&gt;mediapipeline_desktop_contracts -->
<g id="edge16" class="edge">
<title>external_core_status&#45;&gt;mediapipeline_desktop_contracts</title>
<path fill="none" stroke="#64748b" stroke-width="1.05" stroke-dasharray="5,2" d="M81.27,-446.58C95.18,-451.79 110.85,-458.98 123.46,-468.25 134.58,-476.42 131.71,-484.76 143.46,-492 161.61,-503.18 183.58,-510.19 204.09,-514.59"/>
<polygon fill="#64748b" stroke="#64748b" stroke-width="1.05" points="203.49,-516.79 210.31,-515.84 204.38,-512.33 203.49,-516.79"/>
<text xml:space="preserve" text-anchor="middle" x="121.21" y="-472.45" font-family="Segoe UI" font-size="9.00" fill="#475569">2</text>
</g>
</g>
</svg>
