<?xml version="1.0" encoding="UTF-8" standalone="no"?>
<!DOCTYPE svg PUBLIC "-//W3C//DTD SVG 1.1//EN"
 "http://www.w3.org/Graphics/SVG/1.1/DTD/svg11.dtd">
<!-- Generated by graphviz version 15.0.0 (20260523.1842)
 -->
<!-- Title: G Pages: 1 -->
<svg width="825pt" height="222pt"
 viewBox="0.00 0.00 825.00 222.00" xmlns="http://www.w3.org/2000/svg" xmlns:xlink="http://www.w3.org/1999/xlink">
<g id="graph0" class="graph" transform="scale(1 1) rotate(0) translate(14.4 207.4)">
<title>G</title>
<polygon fill="white" stroke="none" points="-14.4,14.4 -14.4,-207.4 810.82,-207.4 810.82,14.4 -14.4,14.4"/>
<text xml:space="preserve" text-anchor="middle" x="398.21" y="-170" font-family="Segoe UI" font-size="20.00">contracts/api_commands module detail</text>
<g id="clust1" class="cluster">
<title>cluster_focus</title>
<path fill="white" stroke="#93c5fd" stroke-width="1.2" d="M301.71,-53C301.71,-53 595.21,-53 595.21,-53 601.21,-53 607.21,-59 607.21,-65 607.21,-65 607.21,-128 607.21,-128 607.21,-134 601.21,-140 595.21,-140 595.21,-140 301.71,-140 301.71,-140 295.71,-140 289.71,-134 289.71,-128 289.71,-128 289.71,-65 289.71,-65 289.71,-59 295.71,-53 301.71,-53"/>
<text xml:space="preserve" text-anchor="middle" x="448.46" y="-117" font-family="Segoe UI" font-size="20.00">contracts/api_commands modules</text>
</g>
<!-- mediapipeline_contracts_api_commands -->
<g id="node1" class="node">
<title>mediapipeline_contracts_api_commands</title>
<path fill="#eff6ff" stroke="#334155" stroke-width="1.1" d="M489.31,-97C489.31,-97 406.6,-97 406.6,-97 400.6,-97 394.6,-91 394.6,-85 394.6,-85 394.6,-73 394.6,-73 394.6,-67 400.6,-61 406.6,-61 406.6,-61 489.31,-61 489.31,-61 495.31,-61 501.31,-67 501.31,-73 501.31,-73 501.31,-85 501.31,-85 501.31,-91 495.31,-97 489.31,-97"/>
<text xml:space="preserve" text-anchor="middle" x="447.96" y="-76.22" font-family="Segoe UI" font-size="12.00" fill="#111827">api_commands.py</text>
</g>
<!-- external_contracts_source_media -->
<g id="node3" class="node">
<title>external_contracts_source_media</title>
<path fill="#f0fdf4" stroke="#64748b" stroke-width="1.1" stroke-dasharray="5,2" d="M784.42,-97C784.42,-97 671.71,-97 671.71,-97 665.71,-97 659.71,-91 659.71,-85 659.71,-85 659.71,-73 659.71,-73 659.71,-67 665.71,-61 671.71,-61 671.71,-61 784.42,-61 784.42,-61 790.42,-61 796.42,-67 796.42,-73 796.42,-73 796.42,-85 796.42,-85 796.42,-91 790.42,-97 784.42,-97"/>
<text xml:space="preserve" text-anchor="middle" x="728.06" y="-76.22" font-family="Segoe UI" font-size="12.00" fill="#111827">contracts/source_media</text>
</g>
<!-- mediapipeline_contracts_api_commands&#45;&gt;external_contracts_source_media -->
<g id="edge1" class="edge">
<title>mediapipeline_contracts_api_commands&#45;&gt;external_contracts_source_media</title>
<path fill="none" stroke="#9333ea" stroke-width="1.05" d="M501.6,-79C543.96,-79 604.05,-79 651.55,-79"/>
<polygon fill="#9333ea" stroke="#9333ea" stroke-width="1.05" points="651.27,-81.28 657.77,-79 651.27,-76.73 651.27,-81.28"/>
<text xml:space="preserve" text-anchor="middle" x="629.46" y="-83.2" font-family="Segoe UI" font-size="9.00" fill="#7e22ce">1</text>
</g>
<!-- external_contracts_api_routes_command_operations -->
<g id="node2" class="node">
<title>external_contracts_api_routes_command_operations</title>
<path fill="#f0fdf4" stroke="#64748b" stroke-width="1.1" stroke-dasharray="5,2" d="M225.21,-158C225.21,-158 12,-158 12,-158 6,-158 0,-152 0,-146 0,-146 0,-134 0,-134 0,-128 6,-122 12,-122 12,-122 225.21,-122 225.21,-122 231.21,-122 237.21,-128 237.21,-134 237.21,-134 237.21,-146 237.21,-146 237.21,-152 231.21,-158 225.21,-158"/>
<text xml:space="preserve" text-anchor="middle" x="118.61" y="-137.22" font-family="Segoe UI" font-size="12.00" fill="#111827">contracts/api_routes_command_operations</text>
</g>
<!-- external_contracts_api_routes_command_operations&#45;&gt;mediapipeline_contracts_api_commands -->
<g id="edge2" class="edge">
<title>external_contracts_api_routes_command_operations&#45;&gt;mediapipeline_contracts_api_commands</title>
<path fill="none" stroke="#64748b" stroke-width="1.05" stroke-dasharray="5,2" d="M218.71,-121.53C273.44,-111.33 339.63,-99 386.61,-90.25"/>
<polygon fill="#64748b" stroke="#64748b" stroke-width="1.05" points="386.74,-92.54 392.71,-89.11 385.9,-88.06 386.74,-92.54"/>
<text xml:space="preserve" text-anchor="middle" x="267.46" y="-116.44" font-family="Segoe UI" font-size="9.00" fill="#475569">1</text>
</g>
<!-- external_core_validation -->
<g id="node4" class="node">
<title>external_core_validation</title>
<path fill="#f8fafc" stroke="#64748b" stroke-width="1.1" stroke-dasharray="5,2" d="M152.09,-97C152.09,-97 85.13,-97 85.13,-97 79.13,-97 73.13,-91 73.13,-85 73.13,-85 73.13,-73 73.13,-73 73.13,-67 79.13,-61 85.13,-61 85.13,-61 152.09,-61 152.09,-61 158.09,-61 164.09,-67 164.09,-73 164.09,-73 164.09,-85 164.09,-85 164.09,-91 158.09,-97 152.09,-97"/>
<text xml:space="preserve" text-anchor="middle" x="118.61" y="-76.22" font-family="Segoe UI" font-size="12.00" fill="#111827">core/validation</text>
</g>
<!-- external_core_validation&#45;&gt;mediapipeline_contracts_api_commands -->
<g id="edge3" class="edge">
<title>external_core_validation&#45;&gt;mediapipeline_contracts_api_commands</title>
<path fill="none" stroke="#64748b" stroke-width="1.05" stroke-dasharray="5,2" d="M164.44,-79C221.95,-79 321.94,-79 386.24,-79"/>
<polygon fill="#64748b" stroke="#64748b" stroke-width="1.05" points="386.2,-81.28 392.7,-79 386.2,-76.73 386.2,-81.28"/>
<text xml:space="preserve" text-anchor="middle" x="267.46" y="-83.2" font-family="Segoe UI" font-size="9.00" fill="#475569">1</text>
</g>
<!-- external_desktop_api -->
<g id="node5" class="node">
<title>external_desktop_api</title>
<path fill="#f0fdf4" stroke="#64748b" stroke-width="1.1" stroke-dasharray="5,2" d="M143.84,-36C143.84,-36 93.38,-36 93.38,-36 87.38,-36 81.38,-30 81.38,-24 81.38,-24 81.38,-12 81.38,-12 81.38,-6 87.38,0 93.38,0 93.38,0 143.84,0 143.84,0 149.84,0 155.84,-6 155.84,-12 155.84,-12 155.84,-24 155.84,-24 155.84,-30 149.84,-36 143.84,-36"/>
<text xml:space="preserve" text-anchor="middle" x="118.61" y="-15.22" font-family="Segoe UI" font-size="12.00" fill="#111827">desktop/api</text>
</g>
<!-- external_desktop_api&#45;&gt;mediapipeline_contracts_api_commands -->
<g id="edge4" class="edge">
<title>external_desktop_api&#45;&gt;mediapipeline_contracts_api_commands</title>
<path fill="none" stroke="#64748b" stroke-width="1.05" stroke-dasharray="5,2" d="M156.2,-24.82C212.03,-35.22 319.07,-55.17 386.54,-67.74"/>
<polygon fill="#64748b" stroke="#64748b" stroke-width="1.05" points="385.79,-69.92 392.6,-68.87 386.62,-65.44 385.79,-69.92"/>
<text xml:space="preserve" text-anchor="middle" x="267.46" y="-49.96" font-family="Segoe UI" font-size="9.00" fill="#475569">1</text>
</g>
</g>
</svg>
