<?xml version="1.0" encoding="UTF-8" standalone="no"?>
<!DOCTYPE svg PUBLIC "-//W3C//DTD SVG 1.1//EN"
 "http://www.w3.org/Graphics/SVG/1.1/DTD/svg11.dtd">
<!-- Generated by graphviz version 15.0.0 (20260523.1842)
 -->
<!-- Title: G Pages: 1 -->
<svg width="773pt" height="283pt"
 viewBox="0.00 0.00 773.00 283.00" xmlns="http://www.w3.org/2000/svg" xmlns:xlink="http://www.w3.org/1999/xlink">
<g id="graph0" class="graph" transform="scale(1 1) rotate(0) translate(14.4 268.4)">
<title>G</title>
<polygon fill="white" stroke="none" points="-14.4,14.4 -14.4,-268.4 759.07,-268.4 759.07,14.4 -14.4,14.4"/>
<text xml:space="preserve" text-anchor="middle" x="372.34" y="-231" font-family="Segoe UI" font-size="20.00">tools/autonomy_health_gate module detail</text>
<g id="clust1" class="cluster">
<title>cluster_focus</title>
<path fill="white" stroke="#93c5fd" stroke-width="1.2" d="M255.96,-83C255.96,-83 581.71,-83 581.71,-83 587.71,-83 593.71,-89 593.71,-95 593.71,-95 593.71,-158 593.71,-158 593.71,-164 587.71,-170 581.71,-170 581.71,-170 255.96,-170 255.96,-170 249.96,-170 243.96,-164 243.96,-158 243.96,-158 243.96,-95 243.96,-95 243.96,-89 249.96,-83 255.96,-83"/>
<text xml:space="preserve" text-anchor="middle" x="418.84" y="-147" font-family="Segoe UI" font-size="20.00">tools/autonomy_health_gate modules</text>
</g>
<!-- mediapipeline_tools_autonomy_health_gate -->
<g id="node1" class="node">
<title>mediapipeline_tools_autonomy_health_gate</title>
<path fill="#eff6ff" stroke="#334155" stroke-width="1.1" d="M479.57,-127C479.57,-127 357.11,-127 357.11,-127 351.11,-127 345.11,-121 345.11,-115 345.11,-115 345.11,-103 345.11,-103 345.11,-97 351.11,-91 357.11,-91 357.11,-91 479.57,-91 479.57,-91 485.57,-91 491.57,-97 491.57,-103 491.57,-103 491.57,-115 491.57,-115 491.57,-121 485.57,-127 479.57,-127"/>
<text xml:space="preserve" text-anchor="middle" x="418.34" y="-106.22" font-family="Segoe UI" font-size="12.00" fill="#111827">autonomy_health_gate.py</text>
</g>
<!-- external_core_diagnostics -->
<g id="node2" class="node">
<title>external_core_diagnostics</title>
<path fill="#f8fafc" stroke="#64748b" stroke-width="1.1" stroke-dasharray="5,2" d="M732.67,-219C732.67,-219 658.21,-219 658.21,-219 652.21,-219 646.21,-213 646.21,-207 646.21,-207 646.21,-195 646.21,-195 646.21,-189 652.21,-183 658.21,-183 658.21,-183 732.67,-183 732.67,-183 738.67,-183 744.67,-189 744.67,-195 744.67,-195 744.67,-207 744.67,-207 744.67,-213 738.67,-219 732.67,-219"/>
<text xml:space="preserve" text-anchor="middle" x="695.44" y="-198.22" font-family="Segoe UI" font-size="12.00" fill="#111827">core/diagnostics</text>
</g>
<!-- mediapipeline_tools_autonomy_health_gate&#45;&gt;external_core_diagnostics -->
<g id="edge1" class="edge">
<title>mediapipeline_tools_autonomy_health_gate&#45;&gt;external_core_diagnostics</title>
<path fill="none" stroke="#9333ea" stroke-width="1.05" d="M474.68,-127.51C522.34,-143.45 590.79,-166.34 638.6,-182.33"/>
<polygon fill="#9333ea" stroke="#9333ea" stroke-width="1.05" points="637.69,-184.42 644.58,-184.33 639.14,-180.11 637.69,-184.42"/>
<text xml:space="preserve" text-anchor="middle" x="615.96" y="-179.28" font-family="Segoe UI" font-size="9.00" fill="#7e22ce">1</text>
</g>
<!-- external_core_processes -->
<g id="node3" class="node">
<title>external_core_processes</title>
<path fill="#f8fafc" stroke="#64748b" stroke-width="1.1" stroke-dasharray="5,2" d="M728.92,-158C728.92,-158 661.96,-158 661.96,-158 655.96,-158 649.96,-152 649.96,-146 649.96,-146 649.96,-134 649.96,-134 649.96,-128 655.96,-122 661.96,-122 661.96,-122 728.92,-122 728.92,-122 734.92,-122 740.92,-128 740.92,-134 740.92,-134 740.92,-146 740.92,-146 740.92,-152 734.92,-158 728.92,-158"/>
<text xml:space="preserve" text-anchor="middle" x="695.44" y="-137.22" font-family="Segoe UI" font-size="12.00" fill="#111827">core/processes</text>
</g>
<!-- mediapipeline_tools_autonomy_health_gate&#45;&gt;external_core_processes -->
<g id="edge2" class="edge">
<title>mediapipeline_tools_autonomy_health_gate&#45;&gt;external_core_processes</title>
<path fill="none" stroke="#9333ea" stroke-width="1.05" d="M491.98,-117.19C538.93,-122.48 598.99,-129.24 641.46,-134.03"/>
<polygon fill="#9333ea" stroke="#9333ea" stroke-width="1.05" points="641.16,-136.28 647.87,-134.75 641.67,-131.76 641.16,-136.28"/>
<text xml:space="preserve" text-anchor="middle" x="615.96" y="-135.47" font-family="Segoe UI" font-size="9.00" fill="#7e22ce">1</text>
</g>
<!-- external_core_publish -->
<g id="node4" class="node">
<title>external_core_publish</title>
<path fill="#f8fafc" stroke="#64748b" stroke-width="1.1" stroke-dasharray="5,2" d="M722.55,-97C722.55,-97 668.34,-97 668.34,-97 662.34,-97 656.34,-91 656.34,-85 656.34,-85 656.34,-73 656.34,-73 656.34,-67 662.34,-61 668.34,-61 668.34,-61 722.55,-61 722.55,-61 728.55,-61 734.55,-67 734.55,-73 734.55,-73 734.55,-85 734.55,-85 734.55,-91 728.55,-97 722.55,-97"/>
<text xml:space="preserve" text-anchor="middle" x="695.44" y="-76.22" font-family="Segoe UI" font-size="12.00" fill="#111827">core/publish</text>
</g>
<!-- mediapipeline_tools_autonomy_health_gate&#45;&gt;external_core_publish -->
<g id="edge3" class="edge">
<title>mediapipeline_tools_autonomy_health_gate&#45;&gt;external_core_publish</title>
<path fill="none" stroke="#9333ea" stroke-width="1.05" d="M491.98,-101.08C541.33,-95.7 605.14,-88.74 647.82,-84.08"/>
<polygon fill="#9333ea" stroke="#9333ea" stroke-width="1.05" points="648,-86.35 654.21,-83.39 647.5,-81.83 648,-86.35"/>
<text xml:space="preserve" text-anchor="middle" x="615.96" y="-91.65" font-family="Segoe UI" font-size="9.00" fill="#7e22ce">1</text>
</g>
<!-- external_desktop_models -->
<g id="node5" class="node">
<title>external_desktop_models</title>
<path fill="#f0fdf4" stroke="#64748b" stroke-width="1.1" stroke-dasharray="5,2" d="M731.92,-36C731.92,-36 658.96,-36 658.96,-36 652.96,-36 646.96,-30 646.96,-24 646.96,-24 646.96,-12 646.96,-12 646.96,-6 652.96,0 658.96,0 658.96,0 731.92,0 731.92,0 737.92,0 743.92,-6 743.92,-12 743.92,-12 743.92,-24 743.92,-24 743.92,-30 737.92,-36 731.92,-36"/>
<text xml:space="preserve" text-anchor="middle" x="695.44" y="-15.22" font-family="Segoe UI" font-size="12.00" fill="#111827">desktop/models</text>
</g>
<!-- mediapipeline_tools_autonomy_health_gate&#45;&gt;external_desktop_models -->
<g id="edge4" class="edge">
<title>mediapipeline_tools_autonomy_health_gate&#45;&gt;external_desktop_models</title>
<path fill="none" stroke="#9333ea" stroke-width="1.05" d="M475.34,-90.48C523.21,-74.64 591.7,-51.99 639.31,-36.23"/>
<polygon fill="#9333ea" stroke="#9333ea" stroke-width="1.05" points="639.8,-38.47 645.26,-34.27 638.38,-34.15 639.8,-38.47"/>
<text xml:space="preserve" text-anchor="middle" x="615.96" y="-47.84" font-family="Segoe UI" font-size="9.00" fill="#7e22ce">1</text>
</g>
<!-- external_tools_autonomy_growth_snapshot -->
<g id="node6" class="node">
<title>external_tools_autonomy_growth_snapshot</title>
<path fill="#f0fdf4" stroke="#64748b" stroke-width="1.1" stroke-dasharray="5,2" d="M179.46,-157C179.46,-157 12,-157 12,-157 6,-157 0,-151 0,-145 0,-145 0,-133 0,-133 0,-127 6,-121 12,-121 12,-121 179.46,-121 179.46,-121 185.46,-121 191.46,-127 191.46,-133 191.46,-133 191.46,-145 191.46,-145 191.46,-151 185.46,-157 179.46,-157"/>
<text xml:space="preserve" text-anchor="middle" x="95.73" y="-136.22" font-family="Segoe UI" font-size="12.00" fill="#111827">tools/autonomy_growth_snapshot</text>
</g>
<!-- external_tools_autonomy_growth_snapshot&#45;&gt;mediapipeline_tools_autonomy_health_gate -->
<g id="edge5" class="edge">
<title>external_tools_autonomy_growth_snapshot&#45;&gt;mediapipeline_tools_autonomy_health_gate</title>
<path fill="none" stroke="#64748b" stroke-width="1.05" stroke-dasharray="5,2" d="M191.62,-130.12C237.78,-125.8 292.67,-120.66 336.77,-116.54"/>
<polygon fill="#64748b" stroke="#64748b" stroke-width="1.05" points="336.75,-118.83 343.01,-115.96 336.32,-114.3 336.75,-118.83"/>
<text xml:space="preserve" text-anchor="middle" x="221.71" y="-131.33" font-family="Segoe UI" font-size="9.00" fill="#475569">1</text>
</g>
<!-- external_tools_autonomy_soak_tick -->
<g id="node7" class="node">
<title>external_tools_autonomy_soak_tick</title>
<path fill="#f0fdf4" stroke="#64748b" stroke-width="1.1" stroke-dasharray="5,2" d="M158.09,-96C158.09,-96 33.38,-96 33.38,-96 27.38,-96 21.38,-90 21.38,-84 21.38,-84 21.38,-72 21.38,-72 21.38,-66 27.38,-60 33.38,-60 33.38,-60 158.09,-60 158.09,-60 164.09,-60 170.09,-66 170.09,-72 170.09,-72 170.09,-84 170.09,-84 170.09,-90 164.09,-96 158.09,-96"/>
<text xml:space="preserve" text-anchor="middle" x="95.73" y="-75.22" font-family="Segoe UI" font-size="12.00" fill="#111827">tools/autonomy_soak_tick</text>
</g>
<!-- external_tools_autonomy_soak_tick&#45;&gt;mediapipeline_tools_autonomy_health_gate -->
<g id="edge6" class="edge">
<title>external_tools_autonomy_soak_tick&#45;&gt;mediapipeline_tools_autonomy_health_gate</title>
<path fill="none" stroke="#64748b" stroke-width="1.05" stroke-dasharray="5,2" d="M170.28,-85.11C220.05,-89.92 285.77,-96.28 336.92,-101.22"/>
<polygon fill="#64748b" stroke="#64748b" stroke-width="1.05" points="336.41,-103.46 343.1,-101.82 336.84,-98.93 336.41,-103.46"/>
<text xml:space="preserve" text-anchor="middle" x="221.71" y="-94.47" font-family="Segoe UI" font-size="9.00" fill="#475569">1</text>
</g>
</g>
</svg>
