<?xml version="1.0" encoding="UTF-8" standalone="no"?>
<!DOCTYPE svg PUBLIC "-//W3C//DTD SVG 1.1//EN"
 "http://www.w3.org/Graphics/SVG/1.1/DTD/svg11.dtd">
<!-- Generated by graphviz version 15.0.0 (20260523.1842)
 -->
<!-- Title: G Pages: 1 -->
<svg width="501pt" height="167pt"
 viewBox="0.00 0.00 501.00 167.00" xmlns="http://www.w3.org/2000/svg" xmlns:xlink="http://www.w3.org/1999/xlink">
<g id="graph0" class="graph" transform="scale(1 1) rotate(0) translate(14.4 152.4)">
<title>G</title>
<polygon fill="white" stroke="none" points="-14.4,14.4 -14.4,-152.4 486.61,-152.4 486.61,14.4 -14.4,14.4"/>
<text xml:space="preserve" text-anchor="middle" x="236.1" y="-115" font-family="Segoe UI" font-size="20.00">contracts/config_coercion module detail</text>
<g id="clust1" class="cluster">
<title>cluster_focus</title>
<path fill="white" stroke="#93c5fd" stroke-width="1.2" d="M161.46,-8C161.46,-8 460.21,-8 460.21,-8 466.21,-8 472.21,-14 472.21,-20 472.21,-20 472.21,-83 472.21,-83 472.21,-89 466.21,-95 460.21,-95 460.21,-95 161.46,-95 161.46,-95 155.46,-95 149.46,-89 149.46,-83 149.46,-83 149.46,-20 149.46,-20 149.46,-14 155.46,-8 161.46,-8"/>
<text xml:space="preserve" text-anchor="middle" x="310.83" y="-72" font-family="Segoe UI" font-size="20.00">contracts/config_coercion modules</text>
</g>
<!-- mediapipeline_contracts_config_coercion -->
<g id="node1" class="node">
<title>mediapipeline_contracts_config_coercion</title>
<path fill="#eff6ff" stroke="#334155" stroke-width="1.1" d="M353.19,-52C353.19,-52 267.48,-52 267.48,-52 261.48,-52 255.48,-46 255.48,-40 255.48,-40 255.48,-28 255.48,-28 255.48,-22 261.48,-16 267.48,-16 267.48,-16 353.19,-16 353.19,-16 359.19,-16 365.19,-22 365.19,-28 365.19,-28 365.19,-40 365.19,-40 365.19,-46 359.19,-52 353.19,-52"/>
<text xml:space="preserve" text-anchor="middle" x="310.33" y="-31.23" font-family="Segoe UI" font-size="12.00" fill="#111827">config_coercion.py</text>
</g>
<!-- external_contracts_config -->
<g id="node2" class="node">
<title>external_contracts_config</title>
<path fill="#f0fdf4" stroke="#64748b" stroke-width="1.1" stroke-dasharray="5,2" d="M84.96,-52C84.96,-52 12,-52 12,-52 6,-52 0,-46 0,-40 0,-40 0,-28 0,-28 0,-22 6,-16 12,-16 12,-16 84.96,-16 84.96,-16 90.96,-16 96.96,-22 96.96,-28 96.96,-28 96.96,-40 96.96,-40 96.96,-46 90.96,-52 84.96,-52"/>
<text xml:space="preserve" text-anchor="middle" x="48.48" y="-31.23" font-family="Segoe UI" font-size="12.00" fill="#111827">contracts/config</text>
</g>
<!-- external_contracts_config&#45;&gt;mediapipeline_contracts_config_coercion -->
<g id="edge1" class="edge">
<title>external_contracts_config&#45;&gt;mediapipeline_contracts_config_coercion</title>
<path fill="none" stroke="#64748b" stroke-width="1.05" stroke-dasharray="5,2" d="M97.44,-34C139.73,-34 201.58,-34 247.56,-34"/>
<polygon fill="#64748b" stroke="#64748b" stroke-width="1.05" points="247.28,-36.28 253.78,-34 247.28,-31.73 247.28,-36.28"/>
<text xml:space="preserve" text-anchor="middle" x="127.21" y="-38.2" font-family="Segoe UI" font-size="9.00" fill="#475569">1</text>
</g>
</g>
</svg>
