<?xml version="1.0" encoding="UTF-8" standalone="no"?>
<!DOCTYPE svg PUBLIC "-//W3C//DTD SVG 1.1//EN"
 "http://www.w3.org/Graphics/SVG/1.1/DTD/svg11.dtd">
<!-- Generated by graphviz version 15.0.0 (20260523.1842)
 -->
<!-- Title: G Pages: 1 -->
<svg width="714pt" height="579pt"
 viewBox="0.00 0.00 714.00 579.00" xmlns="http://www.w3.org/2000/svg" xmlns:xlink="http://www.w3.org/1999/xlink">
<g id="graph0" class="graph" transform="scale(1 1) rotate(0) translate(14.4 564.2)">
<title>G</title>
<polygon fill="white" stroke="none" points="-14.4,14.4 -14.4,-564.2 699.99,-564.2 699.99,14.4 -14.4,14.4"/>
<text xml:space="preserve" text-anchor="middle" x="342.8" y="-526.8" font-family="Segoe UI" font-size="20.00">core/telemetry module detail</text>
<g id="clust1" class="cluster">
<title>cluster_focus</title>
<path fill="white" stroke="#93c5fd" stroke-width="1.2" d="M171.21,-168.8C171.21,-168.8 524.13,-168.8 524.13,-168.8 530.13,-168.8 536.13,-174.8 536.13,-180.8 536.13,-180.8 536.13,-365.8 536.13,-365.8 536.13,-371.8 530.13,-377.8 524.13,-377.8 524.13,-377.8 171.21,-377.8 171.21,-377.8 165.21,-377.8 159.21,-371.8 159.21,-365.8 159.21,-365.8 159.21,-180.8 159.21,-180.8 159.21,-174.8 165.21,-168.8 171.21,-168.8"/>
<text xml:space="preserve" text-anchor="middle" x="347.67" y="-354.8" font-family="Segoe UI" font-size="20.00">core/telemetry modules</text>
</g>
<!-- mediapipeline_core_telemetry -->
<g id="node1" class="node">
<title>mediapipeline_core_telemetry</title>
<path fill="#eff6ff" stroke="#334155" stroke-width="1.1" d="M284.05,-212.8C284.05,-212.8 188.59,-212.8 188.59,-212.8 182.59,-212.8 176.59,-206.8 176.59,-200.8 176.59,-200.8 176.59,-188.8 176.59,-188.8 176.59,-182.8 182.59,-176.8 188.59,-176.8 188.59,-176.8 284.05,-176.8 284.05,-176.8 290.05,-176.8 296.05,-182.8 296.05,-188.8 296.05,-188.8 296.05,-200.8 296.05,-200.8 296.05,-206.8 290.05,-212.8 284.05,-212.8"/>
<text xml:space="preserve" text-anchor="middle" x="236.31" y="-192.03" font-family="Segoe UI" font-size="12.00" fill="#111827">telemetry/__init__.py</text>
</g>
<!-- mediapipeline_core_telemetry_gpu_usage -->
<g id="node2" class="node">
<title>mediapipeline_core_telemetry_gpu_usage</title>
<path fill="#eff6ff" stroke="#334155" stroke-width="1.1" d="M293.42,-273.8C293.42,-273.8 179.21,-273.8 179.21,-273.8 173.21,-273.8 167.21,-267.8 167.21,-261.8 167.21,-261.8 167.21,-249.8 167.21,-249.8 167.21,-243.8 173.21,-237.8 179.21,-237.8 179.21,-237.8 293.42,-237.8 293.42,-237.8 299.42,-237.8 305.42,-243.8 305.42,-249.8 305.42,-249.8 305.42,-261.8 305.42,-261.8 305.42,-267.8 299.42,-273.8 293.42,-273.8"/>
<text xml:space="preserve" text-anchor="middle" x="236.31" y="-253.03" font-family="Segoe UI" font-size="12.00" fill="#111827">telemetry/gpu_usage.py</text>
</g>
<!-- external_desktop_models -->
<g id="node13" class="node">
<title>external_desktop_models</title>
<path fill="#f0fdf4" stroke="#64748b" stroke-width="1.1" stroke-dasharray="5,2" d="M673.59,-178.8C673.59,-178.8 600.63,-178.8 600.63,-178.8 594.63,-178.8 588.63,-172.8 588.63,-166.8 588.63,-166.8 588.63,-154.8 588.63,-154.8 588.63,-148.8 594.63,-142.8 600.63,-142.8 600.63,-142.8 673.59,-142.8 673.59,-142.8 679.59,-142.8 685.59,-148.8 685.59,-154.8 685.59,-154.8 685.59,-166.8 685.59,-166.8 685.59,-172.8 679.59,-178.8 673.59,-178.8"/>
<text xml:space="preserve" text-anchor="middle" x="637.11" y="-158.03" font-family="Segoe UI" font-size="12.00" fill="#111827">desktop/models</text>
</g>
<!-- mediapipeline_core_telemetry_gpu_usage&#45;&gt;external_desktop_models -->
<g id="edge4" class="edge">
<title>mediapipeline_core_telemetry_gpu_usage&#45;&gt;external_desktop_models</title>
<path fill="none" stroke="#9333ea" stroke-width="1.05" d="M292.35,-237.43C297.25,-234.15 301.74,-230.3 305.42,-225.8 363.56,-154.61 288.27,-77.23 365.92,-28.05 429.83,12.43 468.43,5.71 536.13,-28.05 580.83,-50.34 610.79,-103.19 625.51,-135.08"/>
<polygon fill="#9333ea" stroke="#9333ea" stroke-width="1.05" points="623.37,-135.87 628.11,-140.87 627.52,-134 623.37,-135.87"/>
<text xml:space="preserve" text-anchor="middle" x="447.03" y="-32.25" font-family="Segoe UI" font-size="9.00" fill="#7e22ce">1</text>
</g>
<!-- mediapipeline_core_telemetry_health -->
<g id="node3" class="node">
<title>mediapipeline_core_telemetry_health</title>
<path fill="#eff6ff" stroke="#334155" stroke-width="1.1" d="M492.13,-334.8C492.13,-334.8 401.92,-334.8 401.92,-334.8 395.92,-334.8 389.92,-328.8 389.92,-322.8 389.92,-322.8 389.92,-310.8 389.92,-310.8 389.92,-304.8 395.92,-298.8 401.92,-298.8 401.92,-298.8 492.13,-298.8 492.13,-298.8 498.13,-298.8 504.13,-304.8 504.13,-310.8 504.13,-310.8 504.13,-322.8 504.13,-322.8 504.13,-328.8 498.13,-334.8 492.13,-334.8"/>
<text xml:space="preserve" text-anchor="middle" x="447.03" y="-314.03" font-family="Segoe UI" font-size="12.00" fill="#111827">telemetry/health.py</text>
</g>
<!-- external_contracts_config -->
<g id="node7" class="node">
<title>external_contracts_config</title>
<path fill="#f0fdf4" stroke="#64748b" stroke-width="1.1" stroke-dasharray="5,2" d="M673.59,-270.8C673.59,-270.8 600.63,-270.8 600.63,-270.8 594.63,-270.8 588.63,-264.8 588.63,-258.8 588.63,-258.8 588.63,-246.8 588.63,-246.8 588.63,-240.8 594.63,-234.8 600.63,-234.8 600.63,-234.8 673.59,-234.8 673.59,-234.8 679.59,-234.8 685.59,-240.8 685.59,-246.8 685.59,-246.8 685.59,-258.8 685.59,-258.8 685.59,-264.8 679.59,-270.8 673.59,-270.8"/>
<text xml:space="preserve" text-anchor="middle" x="637.11" y="-250.03" font-family="Segoe UI" font-size="12.00" fill="#111827">contracts/config</text>
</g>
<!-- mediapipeline_core_telemetry_health&#45;&gt;external_contracts_config -->
<g id="edge5" class="edge">
<title>mediapipeline_core_telemetry_health&#45;&gt;external_contracts_config</title>
<path fill="none" stroke="#9333ea" stroke-width="1.05" d="M502.43,-298.29C527.01,-289.92 556.01,-280.06 580.71,-271.65"/>
<polygon fill="#9333ea" stroke="#9333ea" stroke-width="1.05" points="581.3,-273.85 586.72,-269.61 579.84,-269.55 581.3,-273.85"/>
<text xml:space="preserve" text-anchor="middle" x="558.38" y="-283.27" font-family="Segoe UI" font-size="9.00" fill="#7e22ce">1</text>
</g>
<!-- external_core_config -->
<g id="node8" class="node">
<title>external_core_config</title>
<path fill="#f8fafc" stroke="#64748b" stroke-width="1.1" stroke-dasharray="5,2" d="M661.22,-514.8C661.22,-514.8 613,-514.8 613,-514.8 607,-514.8 601,-508.8 601,-502.8 601,-502.8 601,-490.8 601,-490.8 601,-484.8 607,-478.8 613,-478.8 613,-478.8 661.22,-478.8 661.22,-478.8 667.22,-478.8 673.22,-484.8 673.22,-490.8 673.22,-490.8 673.22,-502.8 673.22,-502.8 673.22,-508.8 667.22,-514.8 661.22,-514.8"/>
<text xml:space="preserve" text-anchor="middle" x="637.11" y="-494.03" font-family="Segoe UI" font-size="12.00" fill="#111827">core/config</text>
</g>
<!-- mediapipeline_core_telemetry_health&#45;&gt;external_core_config -->
<g id="edge6" class="edge">
<title>mediapipeline_core_telemetry_health&#45;&gt;external_core_config</title>
<path fill="none" stroke="#9333ea" stroke-width="1.05" d="M462.73,-335.31C486.97,-365.13 537.73,-424.74 588.63,-466.8 591.53,-469.2 594.64,-471.55 597.82,-473.83"/>
<polygon fill="#9333ea" stroke="#9333ea" stroke-width="1.05" points="596.46,-475.66 603.11,-477.46 599.04,-471.91 596.46,-475.66"/>
<text xml:space="preserve" text-anchor="middle" x="558.38" y="-444.92" font-family="Segoe UI" font-size="9.00" fill="#7e22ce">1</text>
</g>
<!-- external_core_kernel -->
<g id="node9" class="node">
<title>external_core_kernel</title>
<path fill="#f8fafc" stroke="#64748b" stroke-width="1.1" stroke-dasharray="5,2" d="M661.22,-453.8C661.22,-453.8 613,-453.8 613,-453.8 607,-453.8 601,-447.8 601,-441.8 601,-441.8 601,-429.8 601,-429.8 601,-423.8 607,-417.8 613,-417.8 613,-417.8 661.22,-417.8 661.22,-417.8 667.22,-417.8 673.22,-423.8 673.22,-429.8 673.22,-429.8 673.22,-441.8 673.22,-441.8 673.22,-447.8 667.22,-453.8 661.22,-453.8"/>
<text xml:space="preserve" text-anchor="middle" x="637.11" y="-433.03" font-family="Segoe UI" font-size="12.00" fill="#111827">core/kernel</text>
</g>
<!-- mediapipeline_core_telemetry_health&#45;&gt;external_core_kernel -->
<g id="edge7" class="edge">
<title>mediapipeline_core_telemetry_health&#45;&gt;external_core_kernel</title>
<path fill="none" stroke="#9333ea" stroke-width="1.05" d="M477.1,-335.22C505.53,-353.22 550.05,-381.4 588.63,-405.8 592.43,-408.2 596.4,-410.72 600.36,-413.22"/>
<polygon fill="#9333ea" stroke="#9333ea" stroke-width="1.05" points="598.93,-415 605.64,-416.55 601.36,-411.16 598.93,-415"/>
<text xml:space="preserve" text-anchor="middle" x="558.38" y="-390.51" font-family="Segoe UI" font-size="9.00" fill="#7e22ce">1</text>
</g>
<!-- external_core_storage -->
<g id="node11" class="node">
<title>external_core_storage</title>
<path fill="#f8fafc" stroke="#64748b" stroke-width="1.1" stroke-dasharray="5,2" d="M664.59,-392.8C664.59,-392.8 609.63,-392.8 609.63,-392.8 603.63,-392.8 597.63,-386.8 597.63,-380.8 597.63,-380.8 597.63,-368.8 597.63,-368.8 597.63,-362.8 603.63,-356.8 609.63,-356.8 609.63,-356.8 664.59,-356.8 664.59,-356.8 670.59,-356.8 676.59,-362.8 676.59,-368.8 676.59,-368.8 676.59,-380.8 676.59,-380.8 676.59,-386.8 670.59,-392.8 664.59,-392.8"/>
<text xml:space="preserve" text-anchor="middle" x="637.11" y="-372.03" font-family="Segoe UI" font-size="12.00" fill="#111827">core/storage</text>
</g>
<!-- mediapipeline_core_telemetry_health&#45;&gt;external_core_storage -->
<g id="edge8" class="edge">
<title>mediapipeline_core_telemetry_health&#45;&gt;external_core_storage</title>
<path fill="none" stroke="#9333ea" stroke-width="1.05" d="M504.46,-334.2C531.74,-342.61 564.07,-352.59 589.87,-360.54"/>
<polygon fill="#9333ea" stroke="#9333ea" stroke-width="1.05" points="588.91,-362.63 595.79,-362.37 590.25,-358.28 588.91,-362.63"/>
<text xml:space="preserve" text-anchor="middle" x="558.38" y="-355.2" font-family="Segoe UI" font-size="9.00" fill="#7e22ce">1</text>
</g>
<!-- external_desktop_api -->
<g id="node12" class="node">
<title>external_desktop_api</title>
<path fill="#f0fdf4" stroke="#64748b" stroke-width="1.1" stroke-dasharray="5,2" d="M662.34,-331.8C662.34,-331.8 611.88,-331.8 611.88,-331.8 605.88,-331.8 599.88,-325.8 599.88,-319.8 599.88,-319.8 599.88,-307.8 599.88,-307.8 599.88,-301.8 605.88,-295.8 611.88,-295.8 611.88,-295.8 662.34,-295.8 662.34,-295.8 668.34,-295.8 674.34,-301.8 674.34,-307.8 674.34,-307.8 674.34,-319.8 674.34,-319.8 674.34,-325.8 668.34,-331.8 662.34,-331.8"/>
<text xml:space="preserve" text-anchor="middle" x="637.11" y="-311.03" font-family="Segoe UI" font-size="12.00" fill="#111827">desktop/api</text>
</g>
<!-- mediapipeline_core_telemetry_health&#45;&gt;external_desktop_api -->
<g id="edge9" class="edge">
<title>mediapipeline_core_telemetry_health&#45;&gt;external_desktop_api</title>
<path fill="none" stroke="#9333ea" stroke-width="1.05" d="M504.46,-315.9C532.4,-315.45 565.66,-314.92 591.75,-314.51"/>
<polygon fill="#9333ea" stroke="#9333ea" stroke-width="1.05" points="591.55,-316.79 598.02,-314.41 591.48,-312.24 591.55,-316.79"/>
<text xml:space="preserve" text-anchor="middle" x="558.38" y="-319.23" font-family="Segoe UI" font-size="9.00" fill="#7e22ce">1</text>
</g>
<!-- mediapipeline_core_telemetry_nvidia -->
<g id="node4" class="node">
<title>mediapipeline_core_telemetry_nvidia</title>
<path fill="#eff6ff" stroke="#334155" stroke-width="1.1" d="M491.76,-273.8C491.76,-273.8 402.3,-273.8 402.3,-273.8 396.3,-273.8 390.3,-267.8 390.3,-261.8 390.3,-261.8 390.3,-249.8 390.3,-249.8 390.3,-243.8 396.3,-237.8 402.3,-237.8 402.3,-237.8 491.76,-237.8 491.76,-237.8 497.76,-237.8 503.76,-243.8 503.76,-249.8 503.76,-249.8 503.76,-261.8 503.76,-261.8 503.76,-267.8 497.76,-273.8 491.76,-273.8"/>
<text xml:space="preserve" text-anchor="middle" x="447.03" y="-253.03" font-family="Segoe UI" font-size="12.00" fill="#111827">telemetry/nvidia.py</text>
</g>
<!-- mediapipeline_core_telemetry_nvidia&#45;&gt;external_desktop_models -->
<g id="edge10" class="edge">
<title>mediapipeline_core_telemetry_nvidia&#45;&gt;external_desktop_models</title>
<path fill="none" stroke="#9333ea" stroke-width="1.05" d="M503.86,-239.13C514.76,-235.23 525.96,-230.74 536.13,-225.8 560.45,-213.98 585.98,-197.31 605.15,-183.8"/>
<polygon fill="#9333ea" stroke="#9333ea" stroke-width="1.05" points="606.38,-185.72 610.36,-180.09 603.74,-182.01 606.38,-185.72"/>
<text xml:space="preserve" text-anchor="middle" x="558.38" y="-219.34" font-family="Segoe UI" font-size="9.00" fill="#7e22ce">1</text>
</g>
<!-- mediapipeline_core_telemetry_service -->
<g id="node5" class="node">
<title>mediapipeline_core_telemetry_service</title>
<path fill="#eff6ff" stroke="#334155" stroke-width="1.1" d="M283.29,-334.8C283.29,-334.8 189.34,-334.8 189.34,-334.8 183.34,-334.8 177.34,-328.8 177.34,-322.8 177.34,-322.8 177.34,-310.8 177.34,-310.8 177.34,-304.8 183.34,-298.8 189.34,-298.8 189.34,-298.8 283.29,-298.8 283.29,-298.8 289.29,-298.8 295.29,-304.8 295.29,-310.8 295.29,-310.8 295.29,-322.8 295.29,-322.8 295.29,-328.8 289.29,-334.8 283.29,-334.8"/>
<text xml:space="preserve" text-anchor="middle" x="236.31" y="-314.03" font-family="Segoe UI" font-size="12.00" fill="#111827">telemetry/service.py</text>
</g>
<!-- mediapipeline_core_telemetry_service&#45;&gt;mediapipeline_core_telemetry_health -->
<g id="edge1" class="edge">
<title>mediapipeline_core_telemetry_service&#45;&gt;mediapipeline_core_telemetry_health</title>
<path fill="none" stroke="#2563eb" stroke-width="1.05" d="M295.73,-316.8C322.4,-316.8 354.07,-316.8 381.45,-316.8"/>
<polygon fill="#2563eb" stroke="#2563eb" stroke-width="1.05" points="381.34,-319.08 387.84,-316.8 381.34,-314.53 381.34,-319.08"/>
</g>
<!-- mediapipeline_core_telemetry_service&#45;&gt;mediapipeline_core_telemetry_nvidia -->
<g id="edge2" class="edge">
<title>mediapipeline_core_telemetry_service&#45;&gt;mediapipeline_core_telemetry_nvidia</title>
<path fill="none" stroke="#2563eb" stroke-width="1.05" d="M295.73,-299.73C322.63,-291.87 354.61,-282.52 382.14,-274.47"/>
<polygon fill="#2563eb" stroke="#2563eb" stroke-width="1.05" points="382.66,-276.69 388.26,-272.68 381.38,-272.32 382.66,-276.69"/>
</g>
<!-- mediapipeline_core_telemetry_system_metrics -->
<g id="node6" class="node">
<title>mediapipeline_core_telemetry_system_metrics</title>
<path fill="#eff6ff" stroke="#334155" stroke-width="1.1" d="M516.13,-212.8C516.13,-212.8 377.92,-212.8 377.92,-212.8 371.92,-212.8 365.92,-206.8 365.92,-200.8 365.92,-200.8 365.92,-188.8 365.92,-188.8 365.92,-182.8 371.92,-176.8 377.92,-176.8 377.92,-176.8 516.13,-176.8 516.13,-176.8 522.13,-176.8 528.13,-182.8 528.13,-188.8 528.13,-188.8 528.13,-200.8 528.13,-200.8 528.13,-206.8 522.13,-212.8 516.13,-212.8"/>
<text xml:space="preserve" text-anchor="middle" x="447.03" y="-192.03" font-family="Segoe UI" font-size="12.00" fill="#111827">telemetry/system_metrics.py</text>
</g>
<!-- mediapipeline_core_telemetry_service&#45;&gt;mediapipeline_core_telemetry_system_metrics -->
<g id="edge3" class="edge">
<title>mediapipeline_core_telemetry_service&#45;&gt;mediapipeline_core_telemetry_system_metrics</title>
<path fill="none" stroke="#2563eb" stroke-width="1.05" d="M285.43,-298.34C292.37,-294.91 299.24,-291.05 305.42,-286.8 336.89,-265.17 333.97,-246.71 365.92,-225.8 371.01,-222.47 376.51,-219.42 382.16,-216.63"/>
<polygon fill="#2563eb" stroke="#2563eb" stroke-width="1.05" points="383.02,-218.74 387.94,-213.92 381.09,-214.62 383.02,-218.74"/>
</g>
<!-- mediapipeline_core_telemetry_service&#45;&gt;external_desktop_models -->
<g id="edge11" class="edge">
<title>mediapipeline_core_telemetry_service&#45;&gt;external_desktop_models</title>
<path fill="none" stroke="#9333ea" stroke-width="1.05" d="M290.08,-298.43C295.66,-295.11 300.93,-291.26 305.42,-286.8 352,-240.54 310.81,-187.72 365.92,-152.05 430.21,-110.44 522.32,-125.43 580.66,-141.77"/>
<polygon fill="#9333ea" stroke="#9333ea" stroke-width="1.05" points="579.9,-143.92 586.78,-143.54 581.16,-139.55 579.9,-143.92"/>
<text xml:space="preserve" text-anchor="middle" x="447.03" y="-156.25" font-family="Segoe UI" font-size="9.00" fill="#7e22ce">1</text>
</g>
<!-- external_desktop_subprocess_runner -->
<g id="node15" class="node">
<title>external_desktop_subprocess_runner</title>
<path fill="#f0fdf4" stroke="#64748b" stroke-width="1.1" stroke-dasharray="5,2" d="M513.88,-88.8C513.88,-88.8 380.17,-88.8 380.17,-88.8 374.17,-88.8 368.17,-82.8 368.17,-76.8 368.17,-76.8 368.17,-64.8 368.17,-64.8 368.17,-58.8 374.17,-52.8 380.17,-52.8 380.17,-52.8 513.88,-52.8 513.88,-52.8 519.88,-52.8 525.88,-58.8 525.88,-64.8 525.88,-64.8 525.88,-76.8 525.88,-76.8 525.88,-82.8 519.88,-88.8 513.88,-88.8"/>
<text xml:space="preserve" text-anchor="middle" x="447.03" y="-68.03" font-family="Segoe UI" font-size="12.00" fill="#111827">desktop/subprocess_runner</text>
</g>
<!-- mediapipeline_core_telemetry_service&#45;&gt;external_desktop_subprocess_runner -->
<g id="edge12" class="edge">
<title>mediapipeline_core_telemetry_service&#45;&gt;external_desktop_subprocess_runner</title>
<path fill="none" stroke="#9333ea" stroke-width="1.05" d="M292.95,-298.43C297.67,-295.15 301.96,-291.31 305.42,-286.8 354.68,-222.69 280.91,-168.53 333.42,-107.05 340.79,-98.42 350.22,-91.83 360.49,-86.8"/>
<polygon fill="#9333ea" stroke="#9333ea" stroke-width="1.05" points="361.26,-88.94 366.26,-84.21 359.4,-84.79 361.26,-88.94"/>
<text xml:space="preserve" text-anchor="middle" x="335.67" y="-111.25" font-family="Segoe UI" font-size="9.00" fill="#7e22ce">1</text>
</g>
<!-- mediapipeline_core_telemetry_system_metrics&#45;&gt;external_desktop_models -->
<g id="edge13" class="edge">
<title>mediapipeline_core_telemetry_system_metrics&#45;&gt;external_desktop_models</title>
<path fill="none" stroke="#9333ea" stroke-width="1.05" d="M528.61,-180.23C546.09,-177.07 564.2,-173.8 580.46,-170.86"/>
<polygon fill="#9333ea" stroke="#9333ea" stroke-width="1.05" points="580.73,-173.12 586.73,-169.73 579.92,-168.65 580.73,-173.12"/>
<text xml:space="preserve" text-anchor="middle" x="558.38" y="-178.96" font-family="Segoe UI" font-size="9.00" fill="#7e22ce">1</text>
</g>
<!-- external_core_observability -->
<g id="node10" class="node">
<title>external_core_observability</title>
<path fill="#f8fafc" stroke="#64748b" stroke-width="1.1" stroke-dasharray="5,2" d="M94.71,-273.8C94.71,-273.8 12,-273.8 12,-273.8 6,-273.8 0,-267.8 0,-261.8 0,-261.8 0,-249.8 0,-249.8 0,-243.8 6,-237.8 12,-237.8 12,-237.8 94.71,-237.8 94.71,-237.8 100.71,-237.8 106.71,-243.8 106.71,-249.8 106.71,-249.8 106.71,-261.8 106.71,-261.8 106.71,-267.8 100.71,-273.8 94.71,-273.8"/>
<text xml:space="preserve" text-anchor="middle" x="53.36" y="-253.03" font-family="Segoe UI" font-size="12.00" fill="#111827">core/observability</text>
</g>
<!-- external_core_observability&#45;&gt;mediapipeline_core_telemetry_gpu_usage -->
<g id="edge14" class="edge">
<title>external_core_observability&#45;&gt;mediapipeline_core_telemetry_gpu_usage</title>
<path fill="none" stroke="#64748b" stroke-width="1.05" stroke-dasharray="5,2" d="M107.18,-255.8C123.38,-255.8 141.53,-255.8 158.96,-255.8"/>
<polygon fill="#64748b" stroke="#64748b" stroke-width="1.05" points="158.82,-258.08 165.32,-255.8 158.82,-253.53 158.82,-258.08"/>
<text xml:space="preserve" text-anchor="middle" x="136.96" y="-260" font-family="Segoe UI" font-size="9.00" fill="#475569">1</text>
</g>
<!-- external_desktop_services -->
<g id="node14" class="node">
<title>external_desktop_services</title>
<path fill="#f0fdf4" stroke="#64748b" stroke-width="1.1" stroke-dasharray="5,2" d="M91.34,-334.8C91.34,-334.8 15.38,-334.8 15.38,-334.8 9.38,-334.8 3.38,-328.8 3.38,-322.8 3.38,-322.8 3.38,-310.8 3.38,-310.8 3.38,-304.8 9.38,-298.8 15.38,-298.8 15.38,-298.8 91.34,-298.8 91.34,-298.8 97.34,-298.8 103.34,-304.8 103.34,-310.8 103.34,-310.8 103.34,-322.8 103.34,-322.8 103.34,-328.8 97.34,-334.8 91.34,-334.8"/>
<text xml:space="preserve" text-anchor="middle" x="53.36" y="-314.03" font-family="Segoe UI" font-size="12.00" fill="#111827">desktop/services</text>
</g>
<!-- external_desktop_services&#45;&gt;mediapipeline_core_telemetry_service -->
<g id="edge15" class="edge">
<title>external_desktop_services&#45;&gt;mediapipeline_core_telemetry_service</title>
<path fill="none" stroke="#64748b" stroke-width="1.05" stroke-dasharray="5,2" d="M103.8,-316.8C123.93,-316.8 147.5,-316.8 169.09,-316.8"/>
<polygon fill="#64748b" stroke="#64748b" stroke-width="1.05" points="168.85,-319.08 175.35,-316.8 168.85,-314.53 168.85,-319.08"/>
<text xml:space="preserve" text-anchor="middle" x="136.96" y="-321" font-family="Segoe UI" font-size="9.00" fill="#475569">1</text>
</g>
</g>
</svg>
